SplineFontDB: 3.2
FontName: Gruppo
FullName: Gruppo
FamilyName: Gruppo
Weight: Book
Copyright: Copyright (c) 2010 Vernon Adams (vern@newtypography.co.uk). Available under the terms of the SIL OFL v1.1 from http://scripts.sil.org/OFL
Version: 1.000
ItalicAngle: 0
UnderlinePosition: -272
UnderlineWidth: 41
Ascent: 1638
Descent: 410
InvalidEm: 0
sfntRevision: 0x00010000
LayerCount: 2
Layer: 0 1 "Back" 1
Layer: 1 1 "Fore" 0
XUID: [1021 745 1292230050 1391334]
StyleMap: 0x0040
FSType: 0
OS2Version: 3
OS2_WeightWidthSlopeOnly: 0
OS2_UseTypoMetrics: 0
CreationTime: 1296584385
ModificationTime: 1598569977
PfmFamily: 17
TTFWeight: 400
TTFWidth: 5
LineGap: 0
VLineGap: 0
Panose: 2 0 6 4 6 0 0 2 0 4
OS2TypoAscent: 1639
OS2TypoAOffset: 0
OS2TypoDescent: -340
OS2TypoDOffset: 0
OS2TypoLinegap: 0
OS2WinAscent: 1639
OS2WinAOffset: 0
OS2WinDescent: 340
OS2WinDOffset: 0
HheadAscent: 1639
HheadAOffset: 0
HheadDescent: -340
HheadDOffset: 0
OS2SubXSize: 1434
OS2SubYSize: 1331
OS2SubXOff: 0
OS2SubYOff: 287
OS2SupXSize: 1434
OS2SupYSize: 1331
OS2SupXOff: 0
OS2SupYOff: 977
OS2StrikeYSize: 102
OS2StrikeYPos: 512
OS2CapHeight: 1114
OS2XHeight: 766
OS2Vendor: '    '
OS2CodePages: 20000193.40000000
OS2UnicodeRanges: 8000006f.0000004b.00000000.00000000
Lookup: 258 0 0 "'kern' Horizontal Kerning lookup 0" { "'kern' Horizontal Kerning lookup 0 per glyph data 0"  "'kern' Horizontal Kerning lookup 0 kerning class 1"  } ['kern' ('DFLT' <'dflt' > ) ]
DEI: 91125
KernClass2: 95+ 104 "'kern' Horizontal Kerning lookup 0 kerning class 1"
 2 AE
 1 B
 1 D
 3 Eth
 1 F
 1 G
 1 H
 1 K
 1 L
 6 Lslash
 1 M
 2 OE
 6 Oslash
 1 P
 1 Q
 5 Thorn
 1 V
 1 W
 1 X
 2 ae
 8 asterisk
 2 at
 1 b
 9 backslash
 3 bar
 9 braceleft
 11 bracketleft
 1 d
 8 dotlessi
 6 emdash
 6 endash
 10 exclamdown
 1 f
 4 four
 1 g
 10 germandbls
 13 guillemotleft
 14 guillemotright
 13 guilsinglleft
 14 guilsinglright
 1 h
 4 hbar
 6 hyphen
 1 l
 6 lslash
 1 m
 2 oe
 6 oslash
 9 parenleft
 6 period
 1 q
 8 quotedbl
 12 quotedblbase

StartChar: exclam
Encoding: 33 33 4
Width: 330
Flags: W
LayerCount: 2
Fore
SplineSet
83 1036 m 2
 83 1040 l 2
 83 1079.50865447 83 1079.50865447 113.123258565 1096.72194507 c 0
 136.359854685 1110 136.359854685 1110 164.918206091 1110 c 0
 193.476557497 1110 193.476557497 1110 217.203848917 1094.40777992 c 0
 246 1075.48459493 246 1075.48459493 246 1038 c 2
 246 1037.49988321 l 1
 213.935811896 223.196458632 l 2
 211.708627709 192.01588001 211.708627709 192.01588001 189.135684411 178.174641229 c 0
 177.434942 171 177.434942 171 164 171 c 0
 144.021572913 171.78620674 144.021572913 171.78620674 129.722644508 186.450105504 c 0
 116.691658257 200.411876488 116.691658257 200.411876488 115.035538531 223.597552655 c 0
 83 1033.79306863 83 1033.79306863 83 1036 c 2
106.441675255 12.7091229034 m 0
 83 35.4182458069 83 35.4182458069 83 71.2710009059 c 0
 83 107.123756005 83 107.123756005 106.212724361 131.061878003 c 0
 129.425448722 155 129.425448722 155 165.172868367 155 c 0
 200.920288012 155 200.920288012 155 225.960144006 131.39099292 c 0
 251 107.78198584 251 107.78198584 251 71.2673643089 c 0
 251 34.7527427781 251 34.7527427781 225.736354883 12.3763713891 c 0
 200.472709767 -10 200.472709767 -10 166 -10 c 0
 129.88335051 -10 129.88335051 -10 106.441675255 12.7091229034 c 0
EndSplineSet
EndChar

StartChar: numbersign
Encoding: 35 35 6
Width: 758
Flags: W
LayerCount: 2
Fore
SplineSet
163.970805933 328 m 1
 120 328 l 2
 59.8699393588 328 59.8699393588 328 43.4220758711 357.99316283 c 0
 37 369.704007066 37 369.704007066 37 387.022258353 c 0
 37 404.340509641 37 404.340509641 45.530964682 417.610899146 c 0
 61.0774918907 441.794385915 61.0774918907 441.794385915 96.2933480597 443.471331447 c 0
 107.395387668 444 107.395387668 444 119 444 c 2
 182.935717605 444 l 1
 212.527519438 625 l 1
 159 625 l 2
 76 625 76 625 76 683 c 0
 76 699.422604199 76 699.422604199 81.8561987141 711.479483905 c 0
 90.8967871423 730.09246008 90.8967871423 730.09246008 111.139605006 736.04623004 c 0
 131.382422869 742 131.382422869 742 158 742 c 2
 231.655921728 742 l 1
 283.314676149 1037.21578802 l 2
 290.890782195 1081.45572979 290.890782195 1081.45572979 308.22416371 1097.5441139 c 0
 324.788751271 1114 324.788751271 1114 353.421241912 1114 c 0
 382.053732554 1114 382.053732554 1114 393.61001313 1092.17147002 c 0
 401 1079.14277155 401 1079.14277155 401 1060.27705681 c 0
 401 1046.43426941 401 1046.43426941 398.752778859 1031.75194532 c 2
 348.049876001 742 l 1
 470.655921728 742 l 1
 522.314676149 1038.07622062 l 2
 526.894461828 1064.89738361 526.894461828 1064.89738361 536.282645624 1083.00883019 c 0
 552.347116056 1114 552.347116056 1114 592 1114 c 0
 609.009659648 1114 609.009659648 1114 621.939751463 1104.27297704 c 0
 641 1090.8599859 641 1090.8599859 641 1059.1162113 c 0
 641 1046.11743143 641 1046.11743143 638.668509853 1031.91577727 c 2
 587.739341528 742 l 1
 635 742 l 2
 662.750999169 742 662.750999169 742 683.715554223 735.594163734 c 0
 704.680109276 729.188327467 704.680109276 729.188327467 713.910270935 710.343414081 c 0
 720 697.91021724 720 697.91021724 720 681.516278454 c 0
 720 665.122339668 720 665.122339668 712.736781296 653.147843967 c 0
 695.66349889 625 695.66349889 625 636 625 c 2
 568.512880963 625 l 1
 538.769382141 444 l 1
 596 444 l 2
 623.750999169 444 623.750999169 444 644.617428705 437.624146531 c 0
 665.483858241 431.248293061 665.483858241 431.248293061 674.756741777 412.960106088 c 0
 681 400.647013481 681 400.647013481 681 384 c 0
 681 367.82138566 681 367.82138566 673.874472788 355.785022126 c 0
 664.109257386 339.289725839 664.109257386 339.289725839 644.0300336 333.8629086 c 0
 622.337271781 328 622.337271781 328 597 328 c 2
 519.707250299 328 l 1
 474.659258552 73.2811453015 l 2
 470.045596271 47.559651334 470.045596271 47.559651334 460.747981165 30.2813637728 c 0
 444.453283891 0 444.453283891 0 409 0 c 0
 378.851676174 0 378.851676174 0 365.884621104 18.8611710104 c 0
 356 32.1630788751 356 32.1630788751 356 51.3709409128 c 0
 356 65.5265088731 356 65.5265088731 359.396913035 81.4187001034 c 2
 402.970805933 328 l 1
 280.432586215 328 l 1
 235.659258552 73.6196611826 l 2
 231.045596271 47.9323505275 231.045596271 47.9323505275 220.875258329 29.0573502764 c 0
 212.45036606 13.4217003505 212.45036606 13.4217003505 196.794699298 6.04949762228 c 0
 184.873630454 0 184.873630454 0 170 0 c 0
 139.851676174 0 139.851676174 0 126.884621104 18.8611710104 c 0
 117 32.1630788751 117 32.1630788751 117 48.8447938741 c 0
 117 65.5265088731 117 65.5265088731 120.396913035 81.4187001034 c 2
 163.970805933 328 l 1
299.378493498 444 m 1
 421.935717605 444 l 1
 451.527519438 625 l 1
 328.940641931 625 l 1
 299.378493498 444 l 1
EndSplineSet
EndChar

StartChar: dollar
Encoding: 36 36 7
Width: 1523
Flags: W
LayerCount: 2
Fore
SplineSet
713 1135 m 1
 716 1135 l 2
 756.555415528 1135 756.555415528 1135 816 1131.57401947 c 1
 816 1205 l 2
 816 1218.52931422 816 1218.52931422 816.597358855 1232.86592674 c 0
 817.19471771 1247.20253926 817.19471771 1247.20253926 822.76349207 1261.52224476 c 0
 828.33226643 1275.84195026 828.33226643 1275.84195026 842.076391255 1285.92097513 c 0
 855.820516079 1296 855.820516079 1296 878 1296 c 0
 900.241421411 1296 900.241421411 1296 913.230503507 1284.86650106 c 0
 926.219585603 1274.11493956 926.219585603 1274.11493956 931.520864491 1260.21937858 c 0
 936.822143378 1246.3238176 936.822143378 1246.3238176 937.281101156 1235.24348966 c 0
 938 1217.88756863 938 1217.88756863 938 1204.84275583 c 2
 938 1128.19630903 l 1
 1077.74848221 1113.90729969 1077.74848221 1113.90729969 1204.04198607 1081.12218589 c 0
 1281.07771662 1061.12412491 1281.07771662 1061.12412491 1322.15605112 1042.00272765 c 0
 1337.308879 1034.68622447 1337.308879 1034.68622447 1344.6544395 1021.38578217 c 0
 1352 1008.08533986 1352 1008.08533986 1352 994.321299782 c 0
 1352 972.407701437 1352 972.407701437 1337.11092691 954.245638592 c 0
 1320.08954347 933.482530374 1320.08954347 933.482530374 1291 933.482530374 c 0
 1275.51085561 933.482530374 1275.51085561 933.482530374 1263.37309837 939.588470044 c 0
 1193.62342337 966.579392305 1193.62342337 966.579392305 1109.0056333 985.470483459 c 0
 1024.38784323 1004.36157461 1024.38784323 1004.36157461 938 1014.57338349 c 1
 938 630.996598089 l 1
 1027.85418474 622.466998201 1027.85418474 622.466998201 1111.38954287 608.154639702 c 0
 1207.50585529 591.686749317 1207.50585529 591.686749317 1282.69961966 558.447844115 c 0
 1357.89338402 525.208938914 1357.89338402 525.208938914 1404.94669201 467.474511595 c 0
 1452 409.740084277 1452 409.740084277 1452 319.21802197 c 0
 1452 228.695959663 1452 228.695959663 1406.08087325 164.819685505 c 0
 1360.16174649 100.943411347 1360.16174649 100.943411347 1285.44191067 61.5387687303 c 0
 1210.72207484 22.1341261137 1210.72207484 22.1341261137 1113.62209347 2.57803650557 c 0
 1029.16111235 -14.4325384902 1029.16111235 -14.4325384902 938 -20.2418415742 c 1
 938 -40.9034749036 l 2
 938 -71.7320413417 938 -71.7320413417 936.235553221 -81.1052192322 c 0
 934.471106442 -90.4783971227 934.471106442 -90.4783971227 931.807312537 -97.4606577108 c 0
 926.020664276 -112.628455045 926.020664276 -112.628455045 912.830711554 -122.636465718 c 0
 899.640758831 -133 899.640758831 -133 878 -133 c 0
 843.10810357 -133 843.10810357 -133 827.149040482 -107.850442673 c 0
 817.552265568 -92.7270836429 817.552265568 -92.7270836429 816.526132497 -70.1521560813 c 0
 816 -58.5772411526 816 -58.5772411526 816 -46 c 2
 816 -19.94919055 l 1
 775.914429728 -19.6362481166 775.914429728 -19.6362481166 713 -16.3953547657 c 1
 713 -38 l 2
 713 -69.9237174668 713 -69.9237174668 711.235553221 -79.629867227 c 0
 709.471106442 -89.3360169873 709.471106442 -89.3360169873 707.526224384 -94.6149825732 c 0
 705.581342326 -99.8939481591 705.581342326 -99.8939481591 703.742476067 -103.432195253 c 0
 701.903609809 -106.970442348 701.903609809 -106.970442348 699.600816262 -110.287376555 c 0
 683.832495444 -133 683.832495444 -133 653 -133 c 0
 618.10810357 -133 618.10810357 -133 602.149040482 -108.706498164 c 0
 592.552265568 -94.0979169634 592.552265568 -94.0979169634 591.526132497 -72.2914081235 c 0
 591 -61.1104869877 591 -61.1104869877 591 -48.9613574002 c 2
 591 -11.0504485407 l 1
 415.048857915 5.7804504128 415.048857915 5.7804504128 266.305292953 42.8590631018 c 0
 180.90326123 64.1479763931 180.90326123 64.1479763931 137.843948875 84.9447934136 c 0
 117.479488441 94.7804348625 117.479488441 94.7804348625 107.22760776 110.777461271 c 0
 97 126.736612232 97 126.736612232 97 145.36453453 c 0
 97 163.992456827 97 163.992456827 108.629873392 178.683083838 c 0
 122.649848717 196.392840535 122.649848717 196.392840535 148 196.392840535 c 0
 159.35393884 196.392840535 159.35393884 196.392840535 169.921545384 192.180881072 c 0
 180.489151928 187.968921609 180.489151928 187.968921609 191.28628294 184.15383383 c 0
 250.328564207 163.291672811 250.328564207 163.291672811 347.852741146 142.709157046 c 0
 464.302638581 118.132360553 464.302638581 118.132360553 591 103.651629583 c 1
 591 529.434150499 l 1
 420.079640723 542.264271497 420.079640723 542.264271497 331.992545547 564.128861112 c 0
 226.697088882 590.264834193 226.697088882 590.264834193 166.506053031 637.899985639 c 0
 147.763511797 652.732822083 147.763511797 652.732822083 132.498745944 669.965134725 c 0
 85 723.586215327 85 723.586215327 85 806.880451145 c 0
 85 896.678924169 85 896.678924169 130.530421345 958.675715804 c 0
 176.060842689 1020.67250744 176.060842689 1020.67250744 250.317512677 1058.58644845 c 0
 324.574182665 1096.50038946 324.574182665 1096.50038946 419.654692716 1114.56808194 c 0
 501.999003436 1130.21557566 501.999003436 1130.21557566 591 1135.8810987 c 1
 591 1207.75443596 l 2
 591 1220.82323139 591 1220.82323139 591.597358855 1234.67184582 c 0
 592.19471771 1248.52046026 592.19471771 1248.52046026 597.76349207 1262.35274316 c 0
 603.33226643 1276.18502606 603.33226643 1276.18502606 617.076391255 1285.92097513 c 0
 630.820516079 1296 630.820516079 1296 653 1296 c 0
 675.241421411 1296 675.241421411 1296 688.230503507 1284.86650106 c 0
 701.219585603 1273.73300212 701.219585603 1273.73300212 706.520864491 1259.34381657 c 0
 711.822143378 1244.95463102 711.822143378 1244.95463102 712.281101156 1233.48068658 c 0
 713 1215.50821548 713 1215.50821548 713 1202 c 2
 713 1135 l 1
1286.98001357 207.063489576 m 0
 1317 249.886117279 1317 249.886117279 1317 311 c 0
 1317 363.903889154 1317 363.903889154 1287.88227161 398.588242087 c 0
 1231.51041215 465.73707468 1231.51041215 465.73707468 1075.02003519 490.815660732 c 0
 1010.07753931 501.223111994 1010.07753931 501.223111994 938 507.065965375 c 1
 938 73.4475730175 l 1
 1009.63546156 78.278204612 1009.63546156 78.278204612 1079.53793643 92.5258428007 c 0
 1149.44041129 106.773480989 1149.44041129 106.773480989 1203.20021921 135.507171431 c 0
 1256.96002714 164.240861873 1256.96002714 164.240861873 1286.98001357 207.063489576 c 0
248.76610882 913.026628098 m 0
 220 874.671816338 220 874.671816338 220 821 c 0
 220 777.133634586 220 777.133634586 246.434154489 749.910400858 c 0
 275.958202328 719.505038158 275.958202328 719.505038158 327.63268012 700.467072656 c 0
 382.101912775 680.399460625 382.101912775 680.399460625 455.925055295 670.266872436 c 0
 519.727106289 661.509728182 519.727106289 661.509728182 591 655.91132169 c 1
 591 1039.25467036 l 1
 520.517621716 1033.76927103 520.517621716 1033.76927103 452.427604032 1019.97325437 c 0
 384.337586348 1006.17723772 384.337586348 1006.17723772 329.88684058 978.241637714 c 0
 277.532217641 951.381439859 277.532217641 951.381439859 248.76610882 913.026628098 c 0
816 71.1605283322 m 1
 816 514 l 1
 713 514 l 1
 713 75.2460730593 l 1
 764.26919433 71.8255895173 764.26919433 71.8255895173 816 71.1605283322 c 1
816 641.887744371 m 1
 816 1041.42388463 l 1
 748.687621588 1044.97671776 748.687621588 1044.97671776 713 1043.8937465 c 1
 713 647.719365988 l 1
 790.455399996 643.642765988 790.455399996 643.642765988 816 641.887744371 c 1
EndSplineSet
EndChar

StartChar: percent
Encoding: 37 37 8
Width: 1268
Flags: W
LayerCount: 2
Fore
SplineSet
344.194137209 9.50871983247 m 0
 329.211003361 -2 329.211003361 -2 311 -2 c 0
 275.845415123 -2 275.845415123 -2 261.04678009 22.6643917212 c 0
 250 40.2761291715 250 40.2761291715 250 55.5088792515 c 0
 250 76.2812672862 250 76.2812672862 258.848441346 90.9012021117 c 2
 895.836375246 1083.35051955 l 2
 901.451358957 1091.83868828 901.451358957 1091.83868828 907.005281389 1099.42829923 c 0
 924.986350635 1124 924.986350635 1124 956 1124 c 0
 991.013649365 1124 991.013649365 1124 1005.49471861 1103.31275822 c 0
 1017 1087.59512675 1017 1087.59512675 1017 1070.49994042 c 0
 1017 1040.97754587 1017 1040.97754587 994.077167759 1007.91133381 c 1
 380.976384559 55.307562879 l 2
 367.517524746 35.5067595648 367.517524746 35.5067595648 359.31587808 25.049263999 c 0
 351.114231414 14.5917684332 351.114231414 14.5917684332 344.194137209 9.50871983247 c 0
805.294876551 126.52219214 m 0
 760.818671864 155.252240385 760.818671864 155.252240385 730.263812421 198.141197716 c 0
 682 265.887691378 682 265.887691378 682 346.471872989 c 0
 682 418.447964065 682 418.447964065 720.645396114 481.185821739 c 0
 766.955689413 556.367056298 766.955689413 556.367056298 852.260240057 592.528767984 c 0
 902.910325838 614 902.910325838 614 960.5 614 c 0
 1018.08967416 614 1018.08967416 614 1068.564459 592.603080342 c 0
 1119.03924383 571.206160683 1119.03924383 571.206160683 1156.4064353 534.938004261 c 0
 1193.81513114 498.629564182 1193.81513114 498.629564182 1215.90756557 450.026208432 c 0
 1238 401.422852682 1238 401.422852682 1238 346.471872989 c 0
 1238 266.344419396 1238 266.344419396 1189.93084192 198.237561493 c 0
 1143.89584993 133.012814844 1143.89584993 133.012814844 1068.52776272 101.882517951 c 0
 1017.97008768 81 1017.97008768 81 960.5 81 c 0
 875.766541555 81 875.766541555 81 805.294876551 126.52219214 c 0
813.972150326 403.62775058 m 0
 802 375.835258751 802 375.835258751 802 345 c 0
 802 282.528706575 802 282.528706575 847.307114365 239.033876784 c 0
 861.714264305 225.203012842 861.714264305 225.203012842 875.003971698 217.694351024 c 0
 888.293679091 210.185689206 888.293679091 210.185689206 898.122982291 206.077920704 c 0
 927.023721119 194 927.023721119 194 960 194 c 0
 1008.7563394 194 1008.7563394 194 1049.01804568 220.378174699 c 0
 1086.52890787 244.954084848 1086.52890787 244.954084848 1105.71580967 287.297592257 c 0
 1118 314.407529539 1118 314.407529539 1118 345 c 0
 1118 398.677437303 1118 398.677437303 1081.99934374 441.383633021 c 0
 1058.03543313 469.811099718 1058.03543313 469.811099718 1021.87701771 484.922079296 c 0
 992.976278881 497 992.976278881 497 960 497 c 0
 927.023721119 497 927.023721119 497 897.974954573 484.860216966 c 0
 838.204552569 459.881541501 838.204552569 459.881541501 813.972150326 403.62775058 c 0
157.351945459 582.567002308 m 0
 118.0023466 608.144329677 118.0023466 608.144329677 89.163052757 645.937173877 c 0
 35 716.915881795 35 716.915881795 35 802.471872989 c 0
 35 857.422852682 35 857.422852682 57.0924344317 906.026208432 c 0
 79.1848688633 954.629564182 79.1848688633 954.629564182 116.593564703 990.938004261 c 0
 153.960756168 1027.20616068 153.960756168 1027.20616068 204.260240057 1048.52876798 c 0
 254.910325838 1070 254.910325838 1070 312 1070 c 0
 369.089674162 1070 369.089674162 1070 419.564458997 1048.60308034 c 0
 470.039243832 1027.20616068 470.039243832 1027.20616068 507.406435297 990.938004261 c 0
 544.815131137 954.629564182 544.815131137 954.629564182 566.907565568 906.026208432 c 0
 589 857.422852682 589 857.422852682 589 803 c 0
 589 747.520893296 589 747.520893296 566.887486181 699.42617574 c 0
 544.774972362 651.331458184 544.774972362 651.331458184 507.406435297 615.061995739 c 0
 469.953361015 578.710482464 469.953361015 578.710482464 419.527762718 557.882517951 c 0
 368.97008768 537 368.97008768 537 312 537 c 0
 227.454784436 537 227.454784436 537 157.351945459 582.567002308 c 0
165.343333673 859.333944076 m 0
 153 831.667851362 153 831.667851362 153 801 c 0
 153 755.436957624 153 755.436957624 180.091413431 717.509024653 c 0
 206.23343342 680.910240894 206.23343342 680.910240894 250.746146755 662.026059479 c 0
 279.093286956 650 279.093286956 650 311.534782919 650 c 0
 343.976278881 650 343.976278881 650 372.877017709 662.077920704 c 0
 430.900872168 686.326695702 430.900872168 686.326695702 456.715809669 743.297592257 c 0
 469 770.407529539 469 770.407529539 469 801 c 0
 469 846.470600923 469 846.470600923 441.947464676 885.662271479 c 0
 416.341928462 922.757638981 416.341928462 922.757638981 372.877017709 940.922079296 c 0
 343.976278881 953 343.976278881 953 311.534782919 953 c 0
 279.093286956 953 279.093286956 953 250.47579441 940.859245586 c 0
 190.33237018 915.343853489 190.33237018 915.343853489 165.343333673 859.333944076 c 0
EndSplineSet
EndChar

StartChar: ampersand
Encoding: 38 38 9
Width: 1164
Flags: W
LayerCount: 2
Fore
SplineSet
564.295114522 114.67290348 m 0
 624.182688785 131.345806959 624.182688785 131.345806959 671.025472008 156.044243821 c 1
 650 214.664503507 650 214.664503507 650 294.427509294 c 2
 650 611 l 1
 367.971807842 611 l 1
 290.736797407 586.800598573 290.736797407 586.800598573 245.315886649 550.06166197 c 0
 194.996083248 509.36023093 194.996083248 509.36023093 173.794064744 446.81452265 c 0
 159 403.172203518 159 403.172203518 159 344.011152416 c 0
 159 275.890639678 159 275.890639678 181.662611857 229.646274344 c 0
 204.218231154 183.620233497 204.218231154 183.620233497 241.977698609 154.473453919 c 0
 279.737166063 125.326674341 279.737166063 125.326674341 330.120453389 111.66333717 c 0
 380.503740716 98 380.503740716 98 436 98 c 0
 504.407540259 98 504.407540259 98 564.295114522 114.67290348 c 0
550.503252047 1026.72511398 m 0
 516.943992083 1035 516.943992083 1035 471 1035 c 0
 382.41345962 1035 382.41345962 1035 328.923450625 993.98737647 c 0
 304.010806906 974.885998527 304.010806906 974.885998527 290.005403453 948.934809776 c 0
 276 922.983621025 276 922.983621025 276 894.22255896 c 0
 276 865.461496895 276 865.461496895 284.496912112 841.430756294 c 0
 292.993824224 817.400015692 292.993824224 817.400015692 303.367008297 800.421554115 c 0
 320.687589028 772.071838888 320.687589028 772.071838888 336.959728218 753.822357707 c 0
 353.231867408 735.572876525 353.231867408 735.572876525 368.808277732 720 c 1
 650 720 l 1
 650 855 l 2
 650 867.533963794 650 867.533963794 655.506444089 879.648140789 c 0
 661.012888177 891.762317783 661.012888177 891.762317783 674.664391721 899.95321991 c 0
 693.075691871 911 693.075691871 911 715 911 c 0
 736.924308129 911 736.924308129 911 755.335608279 899.95321991 c 0
 768.987111823 891.762317783 768.987111823 891.762317783 774.493555911 879.648140789 c 0
 780 867.533963794 780 867.533963794 780 855 c 2
 780 720 l 1
 916 720 l 2
 934.242225248 720 934.242225248 720 947.228102765 716.594612539 c 0
 960.213980281 713.189225079 960.213980281 713.189225079 968.277355492 704.549894496 c 0
 982 689.847061094 982 689.847061094 982 668.318060797 c 0
 982 646.7890605 982 646.7890605 970.138874173 630.691818307 c 0
 955.629113316 611 955.629113316 611 916 611 c 2
 780 611 l 1
 780 294.456238361 l 2
 780 228.73734157 780 228.73734157 793.723547406 189.483395917 c 0
 806.82037017 152.022092814 806.82037017 152.022092814 827.997005781 132.227231324 c 0
 848.603600072 112.965215994 848.603600072 112.965215994 878.328620076 105.982607997 c 0
 908.05364008 99 908.05364008 99 944 99 c 0
 972.212692488 99 972.212692488 99 996.798432337 108.749517527 c 0
 1023.76526978 119.443263407 1023.76526978 119.443263407 1046.03440826 133.183795662 c 0
 1068.30354674 146.924327916 1068.30354674 146.924327916 1081.87518676 156.383349752 c 0
 1095.44682679 165.842371587 1095.44682679 165.842371587 1104.84583344 169.921185794 c 0
 1114.24484009 174 1114.24484009 174 1123 174 c 0
 1144.49264692 174 1144.49264692 174 1157.24632346 159.120710706 c 0
 1170 144.241421411 1170 144.241421411 1170 125 c 0
 1170 101.65159375 1170 101.65159375 1144.17420313 75.825796875 c 0
 1123.37330159 55.024895341 1123.37330159 55.024895341 1090.56996299 35.8896144885 c 0
 1058.2162047 17.0165888237 1058.2162047 17.0165888237 1016.62856055 3.68721569896 c 0
 973.924447574 -10 973.924447574 -10 930 -10 c 0
 865.696859935 -10 865.696859935 -10 812.174620498 8.92200384145 c 0
 766.243126444 25.1604108301 766.243126444 25.1604108301 731.198657478 60.2137578594 c 1
 667.086974833 24.0749104015 667.086974833 24.0749104015 591.254287481 3.03745520077 c 0
 515.421600129 -18 515.421600129 -18 435.85908719 -18 c 0
 356.29657425 -18 356.29657425 -18 284.171507819 3.74358620333 c 0
 212.046441389 24.5704575151 212.046441389 24.5704575151 155.941129656 68.4924896337 c 0
 99.8358179236 112.414521752 99.8358179236 112.414521752 66.4210972981 179.523767272 c 0
 33 246.645819534 33 246.645819534 33 337.317424752 c 0
 33 424.665458782 33 424.665458782 60.9550224139 486.457224609 c 0
 88.9100448277 548.248990436 88.9100448277 548.248990436 131.523604213 589.582622173 c 0
 174.137163598 630.916253909 174.137163598 630.916253909 223.843948875 654.72182146 c 0
 244.421529615 664.576833921 244.421529615 664.576833921 264.062734606 672.414700543 c 1
 200.938629803 716.948622179 200.938629803 716.948622179 171.396109545 797.797194769 c 0
 156 839.9314971 156 839.9314971 156 894.780162965 c 0
 156 984.655957698 156 984.655957698 219.641813508 1051.4763385 c 0
 234.102266606 1066.65901368 234.102266606 1066.65901368 251.152872125 1079.38505096 c 0
 314.665127763 1126.78860691 314.665127763 1126.78860691 400.985831996 1139.69498747 c 0
 428.564785737 1144 428.564785737 1144 455.701339832 1144 c 0
 482.837893928 1144 482.837893928 1144 505.544720426 1142.69609843 c 0
 551.594102547 1140.05178959 551.594102547 1140.05178959 586.281205406 1131.82701263 c 0
 658.535782414 1114.69448406 658.535782414 1114.69448406 697.023919982 1086.96768151 c 0
 708.721332222 1078.54088146 708.721332222 1078.54088146 716.500359455 1068.64030134 c 0
 724.279386687 1058.73972123 724.279386687 1058.73972123 728.639693344 1050.21730367 c 0
 733 1041.69488612 733 1041.69488612 733 1032.62552086 c 0
 733 1014.12335805 733 1014.12335805 721.494718611 997.687241781 c 0
 714.782484046 988.098335259 714.782484046 988.098335259 704.236571883 982.549167629 c 0
 693.690659721 977 693.690659721 977 682 977 c 0
 667.267606058 977 667.267606058 977 645.973413975 989.364369596 c 0
 604.604347589 1013.38511782 604.604347589 1013.38511782 550.503252047 1026.72511398 c 0
EndSplineSet
EndChar

StartChar: quotesingle
Encoding: 39 39 10
Width: 246
Flags: W
LayerCount: 2
Fore
SplineSet
49 1122.84121854 m 1
 49 1124.3266 l 2
 49 1122.95806321 49 1122.95806321 75.3424684137 1122.2567506 c 0
 95.8732591095 1135 95.8732591095 1135 123.106884375 1135 c 0
 150.340509641 1135 150.340509641 1135 170.492900714 1122.04489145 c 0
 196 1122.82362431 196 1122.82362431 196 1124.3266 c 2
 196 1099.29044227 l 1
 192.272846563 1099.29044227 l 1
 191.392777675 1091.46680607 191.392777675 1091.46680607 189.131578941 1067.54593844 c 0
 186.916345362 1044.11132899 186.916345362 1044.11132899 173.737674539 931.330716443 c 0
 169.702763851 909.106611155 169.702763851 909.106611155 153.342247627 898.183825429 c 0
 139.566509484 839 139.566509484 839 123.379281396 839 c 0
 107.192053307 839 107.192053307 839 94.2324291037 896.623308355 c 0
 72.8849001094 909.198715544 72.8849001094 909.198715544 72.032986229 933.186396786 c 1
 57.6049625526 1046.36825489 57.6049625526 1046.36825489 54.7565469022 1072.04081849 c 0
 51.1627724649 1104.43124675 51.1627724649 1104.43124675 49 1122.84121854 c 1
EndSplineSet
EndChar

StartChar: parenleft
Encoding: 40 40 11
Width: 444
Flags: W
LayerCount: 2
Fore
SplineSet
55.1538601109 373.340271139 m 0
 45 461.695014093 45 461.695014093 45 551.033156499 c 0
 45 847.805348791 45 847.805348791 143.432784957 1046.79528192 c 0
 177.966195133 1116.60739772 177.966195133 1116.60739772 226.31695258 1169.00582402 c 0
 274.667710027 1221.40425032 274.667710027 1221.40425032 338.469999158 1251.20212516 c 0
 402.272288289 1281 402.272288289 1281 481 1281 c 0
 510.010790088 1281 510.010790088 1281 525.531043836 1261.59968282 c 0
 539 1244.76348761 539 1244.76348761 539 1224 c 0
 539 1203.23651239 539 1203.23651239 525.531043836 1186.40031718 c 0
 510.010790088 1167 510.010790088 1167 481.716188496 1167 c 0
 453.421586903 1167 453.421586903 1167 429.06682753 1161.59406127 c 0
 380.907723677 1150.90435744 380.907723677 1150.90435744 343.18918422 1118.36933282 c 0
 283.866691436 1067.19930367 283.866691436 1067.19930367 246.060902396 981.205340688 c 0
 191.913753663 858.040925339 191.913753663 858.040925339 177.430772483 668.998391215 c 0
 173 611.164686401 173 611.164686401 173 552 c 0
 173 433.700637779 173 433.700637779 190.627556678 321.244630038 c 0
 208.255113356 208.788622297 208.255113356 208.788622297 246.060902396 122.794659312 c 0
 283.866691437 36.8006963263 283.866691437 36.8006963263 341.717216307 -13.0996518368 c 0
 399.567741178 -63 399.567741178 -63 481 -63 c 0
 510.010790088 -63 510.010790088 -63 525.531043836 -82.4003171844 c 0
 539 -99.2365123897 539 -99.2365123897 539 -120 c 0
 539 -140.76348761 539 -140.76348761 525.531043836 -157.599682816 c 0
 510.010790088 -177 510.010790088 -177 481 -177 c 0
 402.27228829 -177 402.27228829 -177 338.498796122 -147.215574338 c 0
 215.705193909 -89.8667168009 215.705193909 -89.8667168009 143.432784957 56.2378745787 c 0
 75.9082197993 192.744311038 75.9082197993 192.744311038 55.1538601109 373.340271139 c 0
EndSplineSet
EndChar

StartChar: parenright
Encoding: 41 41 12
Width: 444
Flags: W
LayerCount: 2
Fore
SplineSet
396.461431386 640.062356936 m 0
 399 595.641195874 399 595.641195874 399 550.976577636 c 0
 399 255.194217262 399 255.194217262 300.567215043 56.2197485722 c 0
 266.00673926 -13.641652887 266.00673926 -13.641652887 217.640717652 -65.5387154683 c 0
 169.274696045 -117.43577805 169.274696045 -117.43577805 105.501203878 -147.217889025 c 0
 41.7277117105 -177 41.7277117105 -177 -37 -177 c 0
 -66.0107900882 -177 -66.0107900882 -177 -81.5310438357 -157.599682816 c 0
 -95 -140.76348761 -95 -140.76348761 -95 -120 c 0
 -95 -99.2365123897 -95 -99.2365123897 -81.5310438357 -82.4003171844 c 0
 -66.0107900882 -63 -66.0107900882 -63 -37 -63 c 0
 44.4322588216 -63 44.4322588216 -63 102.282783693 -13.0996518368 c 0
 160.133308563 36.8006963263 160.133308563 36.8006963263 197.939097604 122.794659312 c 0
 235.744886644 208.788622297 235.744886644 208.788622297 253.372443322 321.244630038 c 0
 271 433.700637779 271 433.700637779 271 552 c 0
 271 670.299362221 271 670.299362221 253.372443322 782.755369962 c 0
 235.744886644 895.211377703 235.744886644 895.211377703 197.939097604 981.205340688 c 0
 160.133308564 1067.19930367 160.133308564 1067.19930367 102.282783693 1117.09965184 c 0
 44.4322588216 1167 44.4322588216 1167 -37 1167 c 0
 -66.0107900882 1167 -66.0107900882 1167 -81.5310438357 1186.40031718 c 0
 -95 1203.23651239 -95 1203.23651239 -95 1224 c 0
 -95 1244.76348761 -95 1244.76348761 -81.5310438357 1261.59968282 c 0
 -66.0107900882 1281 -66.0107900882 1281 -38.4799108814 1281 c 0
 -10.9490316745 1281 -10.9490316745 1281 13.579163807 1277.59035747 c 0
 63.011602987 1270.94715144 63.011602987 1270.94715144 105.850889081 1250.94127864 c 0
 169.332289973 1221.29557378 169.332289973 1221.29557378 218.158621727 1168.3858728 c 0
 266.033804867 1116.50686543 266.033804867 1116.50686543 300.302100583 1047.236084 c 0
 382.712401082 880.649862104 382.712401082 880.649862104 396.461431386 640.062356936 c 0
EndSplineSet
EndChar

StartChar: asterisk
Encoding: 42 42 13
Width: 868
Flags: W
LayerCount: 2
Fore
SplineSet
548.503740941 1007.73949415 m 0
 561.800445274 1018 561.800445274 1018 578.345010786 1018 c 0
 586.736914021 1018 586.736914021 1018 594.950925855 1016.07495846 c 0
 612.283720411 1012.01283264 612.283720411 1012.01283264 624.774142359 1000.06547252 c 0
 644 982.95961875 644 982.95961875 644 964.657960339 c 0
 644 951.981460437 644 951.981460437 637.107136301 938.445939646 c 0
 632.691017907 929.774005172 632.691017907 929.774005172 627.581424499 919.317821301 c 2
 520.899220914 720.851800896 l 1
 756.724369132 725.603246759 l 2
 784.338485072 725.603246759 784.338485072 725.603246759 801.880939573 716.764582091 c 0
 827 704.108488164 827 704.108488164 827 669.004161344 c 0
 827 612.928171642 827 612.928171642 764.182222222 612.928171642 c 0
 763.894060527 612.928171642 763.894060527 612.928171642 530.015637667 618.485957659 c 1
 648.45321991 436.166225206 l 2
 655.070375037 425.907715974 655.070375037 425.907715974 661.535187518 413.279575188 c 0
 668 400.651434403 668 400.651434403 668 387.01991702 c 0
 668 367.211272586 668 367.211272586 647.71342825 350.605636293 c 0
 627.4268565 334 627.4268565 334 603 334 c 0
 590.908426004 334 590.908426004 334 579.848444569 339.143599412 c 0
 568.788463135 344.287198824 568.788463135 344.287198824 560.816298085 354.916752224 c 0
 552.844133036 365.546305623 552.844133036 365.546305623 542.979634403 384.15928639 c 2
 438.096192458 575.226021717 l 1
 347.812989151 376.765646881 l 2
 338.922377133 356.777768642 338.922377133 356.777768642 330.170186593 343.941222518 c 0
 315.210262149 322 315.210262149 322 290 322 c 0
 259.0088633 322 259.0088633 322 240.569065568 342.11614298 c 0
 223 359.940003363 223 359.940003363 223 376.41667663 c 0
 223 388.797817677 223 388.797817677 228.240083522 399.762227864 c 0
 233.480167044 410.726638051 233.480167044 410.726638051 239.820749055 421.564464914 c 2
 346.104031953 619.242995092 l 1
 102.577777778 614.362594414 l 2
 78.6988612436 614.362594414 78.6988612436 614.362594414 63.3085872714 622.819891168 c 0
 40 635.628476631 40 635.628476631 40 671.214185505 c 0
 40 712.154824311 40 712.154824311 72.0984695168 722.104928256 c 0
 90.9278272986 727.94178185 90.9278272986 727.94178185 119 727.94178185 c 0
 119.775534803 727.930785017 119.775534803 727.930785017 336.014133333 721.790529264 c 1
 218.711531137 903.601858979 l 2
 210.867323595 915.100438773 210.867323595 915.100438773 204.933661798 927.362820241 c 0
 199 939.625201709 199 939.625201709 199 952.062285442 c 0
 199 968.268575297 199 968.268575297 216.85218314 987.134287648 c 0
 234.70436628 1006 234.70436628 1006 264 1006 c 0
 279.542777838 1006 279.542777838 1006 292.600088578 996.856854134 c 0
 298.796379202 992.518013607 298.796379202 992.518013607 302.127332689 988.354321749 c 0
 305.458286176 984.19062989 305.458286176 984.19062989 307.421851283 981.52935894 c 0
 309.385416389 978.86808799 309.385416389 978.86808799 311.340528221 976.026398824 c 0
 313.295640053 973.184709658 313.295640053 973.184709658 315.32592838 970.046427602 c 0
 319.263502327 963.959992737 319.263502327 963.959992737 323.763740991 956.309587008 c 0
 428.857727123 764.044620132 l 1
 519.363065807 964.624019379 l 2
 534.605955044 997.015159008 534.605955044 997.015159008 548.503740941 1007.73949415 c 0
EndSplineSet
EndChar

StartChar: plus
Encoding: 43 43 14
Width: 797
Flags: W
LayerCount: 2
Fore
SplineSet
343 244.729354693 m 2
 343 432 l 1
 107 432 l 2
 65.1893188774 432 65.1893188774 432 50.4360920655 463.251356847 c 0
 46 472.64820934 46 472.64820934 46 483 c 0
 46 504.34840625 46 504.34840625 61.825796875 520.174203125 c 0
 77.65159375 536 77.65159375 536 107 536 c 2
 343 536 l 1
 343 721.374352997 l 2
 343 746.769317061 343 746.769317061 360.402182207 760.689136985 c 0
 376.501903099 775 376.501903099 775 398 775 c 0
 418.117647684 775 418.117647684 775 434.588699422 761.129640642 c 0
 453 747.17500926 453 747.17500926 453 721.410676852 c 2
 453 536 l 1
 690 536 l 2
 719.34840625 536 719.34840625 536 735.174203125 520.174203125 c 0
 751 504.34840625 751 504.34840625 751 483 c 0
 751 462.204795301 751 462.204795301 734.626613673 446.794549346 c 0
 718.907404993 432 718.907404993 432 690 432 c 2
 453 432 l 1
 453 244.62412006 l 2
 453 218.400138236 453 218.400138236 433.97268873 204.868030979 c 0
 417.673182824 192 417.673182824 192 397.314196249 192 c 0
 376.955209674 192 376.955209674 192 359.977604837 206.148004031 c 0
 343 218.886012899 343 218.886012899 343 244.729354693 c 2
EndSplineSet
EndChar

StartChar: comma
Encoding: 44 44 15
Width: 323
Flags: W
LayerCount: 2
Fore
SplineSet
60 -38 m 1
 85 -38 l 2
 108.815872593 -38 108.815872593 -38 114.191941821 -32.4111021274 c 0
 119.568011048 -26.8222042547 119.568011048 -26.8222042547 121.626790621 -19.2516536086 c 1
 109.033745618 -14.0877202141 109.033745618 -14.0877202141 97.325796875 -5.75988956393 c 0
 74 10.8316834278 74 10.8316834278 74 39.5313900652 c 0
 74 53.4678551928 74 53.4678551928 81.8061531329 65.3864321479 c 0
 89.6123062658 77.305009103 89.6123062658 77.305009103 104.759344916 85.1884570463 c 0
 131.835120286 105 131.835120286 105 169 105 c 0
 185.546054428 105 185.546054428 105 202.02224569 98.8214282771 c 0
 236.251747437 85.9598773955 236.251747437 85.9598773955 253.188548673 49.4081787197 c 0
 262 30.3919837887 262 30.3919837887 262 2.93178140631 c 0
 262 -24.5284209761 262 -24.5284209761 251.090348711 -55.5963656476 c 0
 240.11919617 -86.8394504277 240.11919617 -86.8394504277 218.281868338 -113.3266 c 0
 195.953684175 -109.425705043 195.953684175 -109.425705043 162.476051971 -106.967520457 c 0
 128.998419766 -124 128.998419766 -124 85 -124 c 2
 60 -124 l 1
 60 -38 l 1
EndSplineSet
EndChar

StartChar: hyphen
Encoding: 45 45 16
Width: 603
Flags: W
LayerCount: 2
Fore
SplineSet
122 518 m 2
 481 518 l 2
 501.769806715 518 501.769806715 518 515.182249616 503.894709122 c 0
 520.329562696 498.401708719 520.329562696 498.401708719 523.695530146 491.833280562 c 0
 533 473.676318954 533 473.676318954 533 454.6734 c 0
 533 436.1646332 533 436.1646332 523.497837145 418.826496926 c 0
 509.891679414 394 509.891679414 394 481 394 c 2
 122 394 l 2
 109.871209995 394 109.871209995 394 99.880985912 448.995112042 c 0
 79.9525984242 454.772841719 79.9525984242 454.772841719 72.4502949636 470.836337974 c 0
 70 476.082767178 70 476.082767178 70 479.399792805 c 0
 70 482.716818432 70 482.716818432 70.1225684962 483.964286009 c 0
 70.2451369924 485.211753587 70.2451369924 485.211753587 70.4859495709 486.439676215 c 0
 70.7267621494 487.667598844 70.7267621494 487.667598844 71.0851876901 488.891272566 c 0
 71.4436132308 490.114946287 71.4436132308 490.114946287 71.9137434369 491.316946221 c 0
 72.383873643 492.518946156 72.383873643 492.518946156 72.9667668695 493.71214679 c 0
 73.549660096 494.905347424 73.549660096 494.905347424 74.237718571 496.074745433 c 0
 74.9257770461 497.244143441 74.9257770461 497.244143441 75.7217485997 498.400191757 c 0
 89.2167639954 518 89.2167639954 518 122 518 c 2
EndSplineSet
EndChar

StartChar: period
Encoding: 46 46 17
Width: 312
Flags: W
LayerCount: 2
Fore
SplineSet
92.9316314088 14.2192990828 m 0
 68 30.5124337556 68 30.5124337556 68 56.6495049037 c 0
 68 82.7865760518 68 82.7865760518 92.7223078377 99.8932880259 c 0
 117.444615675 117 117.444615675 117 155.606104392 117 c 0
 193.767593109 117 193.767593109 117 220.883796555 100.139744345 c 0
 248 83.2794886897 248 83.2794886897 248 56.569845996 c 0
 248 29.8602033024 248 29.8602033024 220.680331579 13.8171468289 c 0
 193.360663157 -60 193.360663157 -60 155.611962987 -60 c 0
 117.863262818 -60 117.863262818 -60 92.9316314088 14.2192990828 c 0
EndSplineSet
EndChar

StartChar: slash
Encoding: 47 47 18
Width: 602
Flags: W
LayerCount: 2
Fore
SplineSet
86 -53 m 0
 65.0756918714 -53 65.0756918714 -53 51.6643917212 -48.515896767 c 0
 26.535390053 -40.0876329377 26.535390053 -40.0876329377 24.5559724549 -23.4902229358 c 0
 24 -16.2833055351 24 -16.2833055351 24 -11 c 0
 24 11.0359356916 24 11.0359356916 28.5783451476 24.935979847 c 0
 33.1566902952 34.6391247358 33.1566902952 34.6391247358 37.8799012498 44.9095402644 c 2
 447.313038187 1117.26727643 l 1
 460.741640729 1154.08515628 460.741640729 1154.08515628 476.708869192 1166.90957161 c 0
 493.483655351 1176 493.483655351 1176 520 1176 c 0
 555.84210753 1176 555.84210753 1176 568.962985905 1164.97375305 c 0
 578 1154.27520238 578 1154.27520238 578 1143.15251222 c 0
 578 1121.28233296 578 1121.28233296 573.970582068 1105.93387935 c 0
 569.941164136 1093.38001817 569.941164136 1093.38001817 566.815644264 1081.4783607 c 1
 153.567215043 4.02281738096 l 1
 142.600849671 -19.0024262995 142.600849671 -19.0024262995 137.419522524 -30.0586373807 c 0
 132.238195378 -38.3372231314 132.238195378 -38.3372231314 129.060884089 -41.6976516558 c 0
 113.550844717 -53 113.550844717 -53 86 -53 c 0
EndSplineSet
EndChar

StartChar: zero
Encoding: 48 48 19
Width: 1060
Flags: W
LayerCount: 2
Fore
SplineSet
530.517061515 95 m 0,0,1
 671.587120543 95 671.587120543 95 746.105694473 148.068758678 c 0,2,3
 828.172916916 206.513323481 828.172916916 206.513323481 852.069322416 346.919149369 c 0,4,5
 867 434.645904647 867 434.645904647 867 556.530543438 c 128,-1,6
 867 678.415182229 867 678.415182229 852.066483093 766.615617316 c 128,-1,7
 837.132966187 854.816052403 837.132966187 854.816052403 800.068051637 909.946906366 c 128,-1,8
 763.003137087 965.07776033 763.003137087 965.07776033 698.370431608 992.038880165 c 128,-1,9
 633.73772613 1019 633.73772613 1019 530 1019 c 0,10,11
 427.2963969 1019 427.2963969 1019 363.121372487 992.038583173 c 128,-1,12
 298.946348075 965.077166346 298.946348075 965.077166346 262.017932633 910.819194501 c 0,13,14
 223.820061464 854.696043979 223.820061464 854.696043979 208.410030732 766.52543308 c 128,-1,15
 193 678.354822181 193 678.354822181 193 556.530692634 c 128,-1,16
 193 434.706563088 193 434.706563088 208.407078884 347.00959663 c 0,17,18
 231.503294748 215.54612563 231.503294748 215.54612563 305.410889911 155.839197858 c 0,19,20
 330.253229273 135.77008644 330.253229273 135.77008644 362.103504621 122.389046736 c 0,21,22
 427.2963969 95 427.2963969 95 530.517061515 95 c 0,0,1
762.393179065 21.1712179945 m 0,23,24
 671.75239862 -21 671.75239862 -21 530 -21 c 128,-1,25
 388.24760138 -21 388.24760138 -21 296.97891723 21.4633543142 c 128,-1,26
 205.710233081 63.9267086284 205.710233081 63.9267086284 154.432617449 141.238202153 c 128,-1,27
 103.155001816 218.549695677 103.155001816 218.549695677 85.0775009082 324.003069134 c 128,-1,28
 67 429.456442592 67 429.456442592 67 556.516211623 c 128,-1,29
 67 683.575980653 67 683.575980653 85.0749055354 789.509229433 c 128,-1,30
 103.149811071 895.442478212 103.149811071 895.442478212 154.430022076 972.757884792 c 128,-1,31
 205.710233081 1050.07329137 205.710233081 1050.07329137 296.97891723 1092.53664569 c 128,-1,32
 388.24760138 1135 388.24760138 1135 530 1135 c 128,-1,33
 671.75239862 1135 671.75239862 1135 762.393179065 1092.82878201 c 0,34,35
 854.289766919 1050.07329137 854.289766919 1050.07329137 906.112836496 971.939414463 c 0,36,37
 956.850188929 895.442478212 956.850188929 895.442478212 975.171559076 788.064751789 c 0,38,39
 993 683.575980653 993 683.575980653 993 556.516211623 c 128,-1,40
 993 429.456442592 993 429.456442592 974.922499092 324.003069134 c 128,-1,41
 956.844998184 218.549695677 956.844998184 218.549695677 906.112836496 142.060585537 c 0,42,43
 854.289766919 63.9267086284 854.289766919 63.9267086284 762.393179065 21.1712179945 c 0,23,24
EndSplineSet
EndChar

StartChar: one
Encoding: 49 49 20
Width: 452
Flags: W
LayerCount: 2
Fore
SplineSet
338 1046.55992945 m 2
 338 67.0048620986 l 2
 338 29.8412796324 338 29.8412796324 316.256184684 12.0126542336 c 0
 302.241421411 0 302.241421411 0 280 0 c 0
 256.23651239 0 256.23651239 0 242.731530463 10.8039855415 c 0
 218.037296472 29.6033398561 218.037296472 29.6033398561 216.520257962 65.6939314543 c 0
 216 78.0709525615 216 78.0709525615 216 90.9254578376 c 2
 216 994 l 1
 66 994 l 2
 30.65159375 994 30.65159375 994 12.325796875 1012.32579687 c 0
 -1 1025.65159375 -1 1025.65159375 -1 1048 c 0
 -1 1071.45789014 -1 1071.45789014 10.0935193559 1085.96480007 c 0
 29.8367905584 1111.78292395 29.8367905584 1111.78292395 65.2933480597 1113.47133145 c 0
 76.3953876682 1114 76.3953876682 1114 85 1114 c 2
 278 1114 l 2
 311.636469314 1114 311.636469314 1114 327.286580917 1089.29925893 c 0
 338 1072.39015327 338 1072.39015327 338 1046.55992945 c 2
EndSplineSet
EndChar

StartChar: two
Encoding: 50 50 21
Width: 925
Flags: W
LayerCount: 2
Fore
SplineSet
737.222070743 903.191098477 m 0
 726.885338015 922.469527836 726.885338015 922.469527836 712.365529749 937.955677247 c 0
 668.585908673 984.648976549 668.585908673 984.648976549 580.683909281 1002.88538137 c 0
 522.289768044 1015 522.289768044 1015 442.040628362 1015 c 0
 361.79148868 1015 361.79148868 1015 290.059224455 998.896838643 c 0
 227.406736874 984.831994493 227.406736874 984.831994493 161.697015789 965.908665124 c 0
 140.425821344 960 140.425821344 960 128.69777953 960 c 0
 103.326817176 960 103.326817176 960 87.0273112696 972.868030979 c 0
 68 987.889592507 68 987.889592507 68 1011 c 0
 68 1045.1565059 68 1045.1565059 115.961258823 1070.17977137 c 0
 152.998313055 1089.50345184 152.998313055 1089.50345184 207.624119698 1103.55008784 c 0
 262.249926342 1117.59672383 262.249926342 1117.59672383 325.774894195 1125.79349388 c 0
 389.37531666 1134 389.37531666 1134 447 1134 c 0
 560.476102083 1134 560.476102083 1134 641.791631584 1111.06485065 c 0
 724.856287241 1088.76157577 724.856287241 1088.76157577 778.895797787 1046.15129905 c 0
 832.935308334 1003.54102234 832.935308334 1003.54102234 857.467654167 943.858290354 c 0
 882 884.175558367 882 884.175558367 882 813.035799665 c 0
 882 725.460217761 882 725.460217761 848.800715464 663.286845287 c 0
 816.15294967 602.146319776 816.15294967 602.146319776 763.664459199 557.730687338 c 0
 711.175968729 513.315054901 711.175968729 513.315054901 646.401514703 481.993920735 c 0
 581.627060678 450.672786569 581.627060678 450.672786569 515.026722356 423.024533627 c 0
 448.426384034 395.376280686 448.426384034 395.376280686 387.044056009 367.086672299 c 0
 325.661727983 338.797063913 325.661727983 338.797063913 278.546677829 301.193687204 c 0
 232.735085608 264.63062393 232.735085608 264.63062393 204.514770327 214.864391928 c 0
 181.794898349 174.798134388 181.794898349 174.798134388 177.835914656 120 c 1
 752 120 l 2
 785.34840625 120 785.34840625 120 803.674203125 101.674203125 c 0
 822 83.34840625 822 83.34840625 822 59 c 0
 822 34.65159375 822 34.65159375 803.674203125 16.325796875 c 0
 785.34840625 -2 785.34840625 -2 752 -2 c 2
 119 -2 l 2
 99.1375315236 -2 99.1375315236 -2 82.9160352627 5.84321048056 c 0
 66.6945390017 13.3161636698 66.6945390017 13.3161636698 60.8472695009 31.7012402312 c 0
 55 50.0863167927 55 50.0863167927 55 90.7911429922 c 0
 55 179.949093909 55 179.949093909 87.3500252984 245.704541123 c 0
 119.325002232 310.697655921 119.325002232 310.697655921 171.701260422 358.58505739 c 0
 224.077518612 406.472458858 224.077518612 406.472458858 289.354382887 440.753341466 c 0
 354.631247162 475.034224074 354.631247162 475.034224074 420.764177247 504.856209302 c 2
 549.698926737 563.423206214 l 2
 610.788394756 591.380224415 610.788394756 591.380224415 657.352055362 625.886734476 c 0
 703.915715969 660.393244537 703.915715969 660.393244537 731.490637957 704.619768598 c 0
 758 747.137275584 758 747.137275584 758 805.788343041 c 0
 758 864.439410497 758 864.439410497 737.222070743 903.191098477 c 0
EndSplineSet
EndChar

StartChar: three
Encoding: 51 51 22
Width: 946
Flags: W
LayerCount: 2
Fore
SplineSet
431 545 m 2
 289 545 l 2
 259.444615266 545 259.444615266 545 243.445141816 563.822909941 c 0
 229 580.81719443 229 580.81719443 229 602 c 0
 229 623.18280557 229 623.18280557 244.222307633 641.091402785 c 0
 259.444615266 659 259.444615266 659 289 659 c 2
 431 659 l 2
 523.322907704 659 523.322907704 659 582.750223664 675.614642989 c 0
 693.976998741 706.711338656 693.976998741 706.711338656 722.257480089 773.199562012 c 0
 736 805.508620762 736 805.508620762 736 837.993259528 c 0
 736 870.477898295 736 870.477898295 725.541295571 903.194320274 c 0
 715.995074415 933.056355459 715.995074415 933.056355459 687.572539215 957.601960105 c 0
 659.150004014 982.14756475 659.150004014 982.14756475 603.635022508 998.573782375 c 0
 548.120041002 1015 548.120041002 1015 455 1015 c 0
 356.545189533 1015 356.545189533 1015 227.718979125 985.784259906 c 0
 199.315257745 979.342746654 199.315257745 979.342746654 178 973.035122089 c 1
 178 972 l 1
 159.697015789 966.908665124 l 2
 138.425821344 961 138.425821344 961 126.69777953 961 c 0
 101.326817176 961 101.326817176 961 85.0273112696 973.868030979 c 0
 66 988.889592507 66 988.889592507 66 1012 c 0
 66 1046.1565059 66 1046.1565059 113.961258823 1071.17977137 c 0
 150.998313055 1090.50345184 150.998313055 1090.50345184 205.624119698 1104.55008784 c 0
 260.249926342 1118.59672383 260.249926342 1118.59672383 323.774894195 1126.79349388 c 0
 387.37531666 1135 387.37531666 1135 445 1135 c 0
 569.072172701 1135 569.072172701 1135 647.901530483 1109.81295257 c 0
 728.11189252 1084.18465558 728.11189252 1084.18465558 775.553294501 1041.35401117 c 0
 822.994696483 998.523366754 822.994696483 998.523366754 840.424475796 943.551448433 c 0
 857 891.273772032 857 891.273772032 857 837.852404643 c 0
 857 800.727613104 857 800.727613104 843.701119405 758.767035041 c 0
 830.40223881 716.806456977 830.40223881 716.806456977 796.584594615 679.076840512 c 0
 762.766950421 641.347224046 762.766950421 641.347224046 706.913499319 613.798646207 c 0
 693.33454524 607.101103511 693.33454524 607.101103511 678.18864988 601.57421047 c 1
 813.968411929 556.214275945 813.968411929 556.214275945 860.337659583 445.818609672 c 0
 884 389.483431337 884 389.483431337 884 318.357021654 c 0
 884 247.23061197 884 247.23061197 861.814930945 184.990738587 c 0
 839.62986189 122.750865204 839.62986189 122.750865204 786.988113097 75.9709308233 c 0
 677.866126326 -21 677.866126326 -21 445 -21 c 0
 338.952109835 -21 338.952109835 -21 229.453127573 3.67327709413 c 0
 155.508315985 20.3351746597 155.508315985 20.3351746597 112.054943687 44.037014095 c 0
 66 69.15789247 66 69.15789247 66 102 c 0
 66 117.059618059 66 117.059618059 75.0726351883 129.708899866 c 0
 91.7780622523 153 91.7780622523 153 127 153 c 0
 140.096824125 153 140.096824125 153 155.933951016 149.040718277 c 0
 171.771077906 145.081436555 171.771077906 145.081436555 188.061110712 139.990801303 c 0
 233.429064299 125.813315807 233.429064299 125.813315807 252.148047612 121.921104797 c 0
 294.064490431 113.205479729 294.064490431 113.205479729 343.007128309 105.602739865 c 0
 391.949766187 98 391.949766187 98 445 98 c 0
 544.443638546 98 544.443638546 98 608.557647429 115.540795933 c 0
 670.660964269 132.531491515 670.660964269 132.531491515 705.464587535 161.736741783 c 0
 740.268210802 190.941992051 740.268210802 190.941992051 754.134105401 232.03079221 c 0
 768 273.119592369 768 273.119592369 768 325.288135593 c 0
 768 368.550572352 768 368.550572352 753.318068727 407.735380067 c 0
 738.636137453 446.920187781 738.636137453 446.920187781 702.138238587 476.848200812 c 0
 665.64033972 506.776213842 665.64033972 506.776213842 599.935439109 525.888106921 c 0
 534.230538497 545 534.230538497 545 431 545 c 2
EndSplineSet
EndChar

StartChar: four
Encoding: 52 52 23
Width: 1058
Flags: W
LayerCount: 2
Fore
SplineSet
1037.98302154 332.813065838 m 0
 1013.73966804 322 1013.73966804 322 962 322 c 2
 898 323 l 1
 778 323 l 1
 778 88.7799388636 l 2
 778 64.6447943087 778 64.6447943087 776.997883399 57.3857181137 c 0
 775.315417563 45.1983661677 775.315417563 45.1983661677 772.103890455 36.7036843434 c 0
 766.385118018 21.5771882425 766.385118018 21.5771882425 753.313269715 11.204441403 c 0
 740.241421411 0 740.241421411 0 717.2389669 0 c 0
 684.221671224 0 684.221671224 0 668.345817762 24.1904034219 c 0
 657.639517816 39.2443462202 657.639517816 39.2443462202 656.520257962 65.0655069191 c 0
 656 77.0677818296 656 77.0677818296 656 89.5330838457 c 2
 656 323 l 1
 173 323 l 2
 111.386350635 323 111.386350635 323 88.5052813887 354.672451817 c 0
 77.6199742012 369.740120364 77.6199742012 369.740120364 76.0803642133 388.387771749 c 0
 75 401.47306957 75 401.47306957 75 415.050682734 c 2
 75 1024.52309789 l 2
 75 1036.66516192 75 1036.66516192 75.6047157989 1050.72690901 c 0
 76.2094315978 1064.78865611 76.2094315978 1064.78865611 80.6404673321 1074.98565272 c 0
 88.4142968664 1092.87531063 88.4142968664 1092.87531063 101.825404628 1103.27111379 c 0
 115.23651239 1114 115.23651239 1114 138.523378148 1114 c 0
 170.225681483 1114 170.225681483 1114 186.147637954 1089.44037805 c 0
 196.391404059 1073.6393662 196.391404059 1073.6393662 197.478025586 1048.49719224 c 0
 198 1036.41978426 198 1036.41978426 198 1025.3045977 c 2
 198 443 l 1
 656 443 l 1
 656 1022.05992148 l 2
 656 1035.07500666 656 1035.07500666 656.57333991 1048.88524639 c 0
 657.146679819 1062.69548611 657.146679819 1062.69548611 661.716335672 1077.3716068 c 0
 666.285991525 1092.04772748 666.285991525 1092.04772748 680.261251958 1102.81979165 c 0
 694.23651239 1114 694.23651239 1114 718 1114 c 0
 740.241421411 1114 740.241421411 1114 753.313269715 1102.7955586 c 0
 775.965141893 1084.08848885 775.965141893 1084.08848885 777.479742038 1047.60583223 c 0
 778 1035.07421281 778 1035.07421281 778 1022.05914508 c 2
 778 443 l 1
 972 443 l 2
 1001.22255913 443 1001.22255913 443 1009.47781618 442.110799351 c 0
 1023.19918638 440.632825835 1023.19918638 440.632825835 1031.7980333 437.917400491 c 0
 1069 426.169411007 1069 426.169411007 1069 381 c 0
 1069 346.647316541 1069 346.647316541 1037.98302154 332.813065838 c 0
EndSplineSet
EndChar

StartChar: five
Encoding: 53 53 24
Width: 869
Flags: W
LayerCount: 2
Fore
SplineSet
336.825990915 86.7085207818 m 0
 386.931375997 79 386.931375997 79 439 79 c 0
 516.353672348 79 516.353672348 79 567.264453315 97.4791763649 c 0
 618.175234281 115.95835273 618.175234281 115.95835273 648.230035956 148.969032183 c 0
 678.28483763 181.979711636 678.28483763 181.979711636 691.642418815 229.880750021 c 0
 705 277.781788406 705 277.781788406 705 338.043668122 c 0
 705 385.827936955 705 385.827936955 692.519400502 417.970977689 c 0
 680.038801004 450.114018423 680.038801004 450.114018423 652.378159109 470.019837199 c 0
 623.316699741 490.933746058 623.316699741 490.933746058 571.324082236 501.466873029 c 0
 519.331464731 512 519.331464731 512 439 512 c 2
 189 512 l 2
 154.295014887 512 154.295014887 512 143.43082718 514.1606454 c 0
 132.566639474 516.3212908 132.566639474 516.3212908 124.401306088 519.581357022 c 0
 105.653950432 527.066369334 105.653950432 527.066369334 93.3269752158 544.04599527 c 0
 81 561.025621206 81 561.025621206 81 588.657337184 c 0
 81 601.336066819 81 601.336066819 82.3521315136 607.709743203 c 0
 121.159453506 995.371964556 121.159453506 995.371964556 122.05016939 1004.55343818 c 0
 122.940885273 1013.7349118 122.940885273 1013.7349118 123.263299123 1016.75889421 c 0
 123.90779442 1022.80374136 123.90779442 1022.80374136 124.679044864 1028.96228358 c 0
 129.659272659 1068.73009622 129.659272659 1068.73009622 168.293798948 1085.32538019 c 0
 187.644873906 1094 187.644873906 1094 220 1094 c 2
 658 1094 l 2
 688.707594507 1094 688.707594507 1094 705.853797254 1075.99648712 c 0
 723 1057.99297423 723 1057.99297423 723 1034.5 c 0
 723 1011.00702577 723 1011.00702577 705.853797254 993.003512884 c 0
 688.707594507 975 688.707594507 975 658 975 c 2
 242.723382691 975 l 1
 207.508071686 632 l 1
 439 632 l 2
 523.674921839 632 523.674921839 632 594.873805548 617.269705468 c 0
 666.072689257 602.539410935 666.072689257 602.539410935 718.879830435 567.573940491 c 0
 771.686971612 532.608470047 771.686971612 532.608470047 800.343485806 474.756183023 c 0
 829 416.903895998 829 416.903895998 829 335.363401054 c 0
 829 232.758024956 829 232.758024956 801.135735288 161.022701556 c 0
 773.271470576 89.2873781561 773.271470576 89.2873781561 720.772598037 43.9922793383 c 0
 668.273725499 -1.30281947943 668.273725499 -1.30281947943 595.114759242 -20.614031517 c 0
 524.382171534 -40 524.382171534 -40 439 -40 c 0
 378.302341136 -40 378.302341136 -40 313.631624922 -31.2745859076 c 0
 175.002286768 -12.5706275853 175.002286768 -12.5706275853 106.054943687 25.037014095 c 0
 60 50.15789247 60 50.15789247 60 83 c 0
 60 98.0596180588 60 98.0596180588 69.0726351883 110.708899866 c 0
 85.7780622523 134 85.7780622523 134 121 134 c 0
 134.096824125 134 134.096824125 134 149.933951016 130.040718277 c 0
 165.771077906 126.081436555 165.771077906 126.081436555 182.061110712 120.990801303 c 0
 198.351143518 115.900166051 198.351143518 115.900166051 210.403430525 112.247944056 c 0
 230.101314178 106.278865831 230.101314178 106.278865831 241.293921717 103.980362131 c 0
 252.486529256 101.681858431 252.486529256 101.681858431 261.121976508 99.9548291 c 0
 269.75742376 98.2277997686 269.75742376 98.2277997686 278.815748004 96.534317635 c 0
 287.874072249 94.8408355013 287.874072249 94.8408355013 297.33167501 93.1856476051 c 0
 316.281562418 89.869202089 316.281562418 89.869202089 336.825990915 86.7085207818 c 0
EndSplineSet
EndChar

StartChar: seven
Encoding: 55 55 26
Width: 707
Flags: W
LayerCount: 2
Fore
SplineSet
167.636944731 40.5125734015 m 0
 151 57.1525612112 151 57.1525612112 151 82.7833590427 c 0
 151 102.474934643 151 102.474934643 157.517032403 114.135187593 c 1
 560.838989063 994 l 1
 74 994 l 2
 43.9115235753 994 43.9115235753 994 27.4557617877 1012.18794724 c 0
 11 1030.37589448 11 1030.37589448 11 1054 c 0
 11 1076.29443204 11 1076.29443204 26.5739022642 1094.3273715 c 0
 43.5638996034 1114 43.5638996034 1114 74 1114 c 2
 629 1114 l 2
 672.577372087 1114 672.577372087 1114 691.589704171 1089.50978839 c 0
 708 1068.37131806 708 1068.37131806 708 1041.36651526 c 0
 708 1028.70045045 708 1028.70045045 705.035911289 1017.93584584 c 0
 702.071846273 1007.17132729 702.071846273 1007.17132729 698.51574727 995.842724782 c 1
 273.857764131 70.243779232 l 2
 263.016155867 46.9307065513 263.016155867 46.9307065513 245.426379948 35.2363658572 c 0
 227.836604028 23 227.836604028 23 209 23 c 0
 184.273889463 23 184.273889463 23 167.636944731 40.5125734015 c 0
EndSplineSet
EndChar

StartChar: eight
Encoding: 56 56 27
Width: 1030
Flags: W
LayerCount: 2
Fore
SplineSet
684.814490657 523.106455282 m 0
 618.313721776 542 618.313721776 542 515 542 c 0
 411.686278224 542 411.686278224 542 345.946865199 523.322764223 c 0
 280.207452175 504.645528447 280.207452175 504.645528447 243.217705637 474.741405639 c 0
 207.297523713 445.701965467 207.297523713 445.701965467 192.648761856 407.026074187 c 0
 178 368.350182906 178 368.350182906 178 321.387491155 c 0
 178 274.424799403 178 274.424799403 194.114583322 232.880811821 c 0
 219.127013214 168.397849023 219.127013214 168.397849023 291.412834933 134.013488985 c 0
 316.93412294 121.873720292 316.93412294 121.873720292 349.417740472 113.021033402 c 0
 415.543241561 95 415.543241561 95 515 95 c 0
 614.456758439 95 614.456758439 95 680.582259528 113.021033402 c 0
 802.254942675 146.180214823 802.254942675 146.180214823 835.524822825 231.951187625 c 0
 852 274.424799403 852 274.424799403 852 325.129237288 c 0
 852 368.350182906 852 368.350182906 836.960113256 408.058728262 c 0
 822.702476287 445.701965467 822.702476287 445.701965467 786.782294363 474.741405639 c 0
 749.792547825 504.645528447 749.792547825 504.645528447 684.814490657 523.106455282 c 0
864.336821718 75.8328840531 m 0
 809.448257408 29.4710049133 809.448257408 29.4710049133 723.095686164 4.23550245664 c 0
 636.74311492 -21 636.74311492 -21 514.489119731 -21 c 0
 392.235124541 -21 392.235124541 -21 306.385071297 4.2425656865 c 0
 220.535018053 29.485131373 220.535018053 29.485131373 165.654816012 75.839947283 c 0
 110.774613972 122.194763193 110.774613972 122.194763193 86.0829006173 185.309457803 c 0
 62 246.867961095 62 246.867961095 62 317.364842454 c 0
 62 377.406511338 62 377.406511338 77.7903181334 428.554608801 c 0
 109.987030317 532.8464007 109.987030317 532.8464007 224.59592399 586.23498594 c 0
 242.681006197 594.659610958 242.681006197 594.659610958 263.086560488 601.698262671 c 1
 229.293205204 614.411209273 229.293205204 614.411209273 197.239496009 636.007464721 c 0
 138.572512217 675.534471115 138.572512217 675.534471115 111.45047296 733.630223254 c 0
 105.085498241 747.264079845 105.085498241 747.264079845 100.935149346 761.368883821 c 0
 89 801.930038136 89 801.930038136 89 837.852404643 c 0
 89 891.814771263 89 891.814771263 108.766751534 945.498602267 c 0
 128.533503068 999.182433271 128.533503068 999.182433271 177.898622214 1041.76905844 c 0
 227.263741361 1084.35568362 227.263741361 1084.35568362 309.157703827 1109.67784181 c 0
 391.051666293 1135 391.051666293 1135 515 1135 c 0
 638.948333707 1135 638.948333707 1135 720.17279485 1109.88485607 c 0
 802.736258639 1084.35568362 802.736258639 1084.35568362 852.101377786 1041.76905844 c 0
 901.466496932 999.182433271 901.466496932 999.182433271 921.233248466 945.498602267 c 0
 941 891.814771263 941 891.814771263 941 837.852404643 c 0
 941 801.930038136 941 801.930038136 929.064850654 761.368883821 c 0
 916.665985442 719.231808651 916.665985442 719.231808651 884.987082097 681.94082412 c 0
 853.308178753 644.649839589 853.308178753 644.649839589 800.038730946 616.51422506 c 0
 784.547498277 608.332136286 784.547498277 608.332136286 766.913439469 601.698262673 c 1
 851.070130765 572.669419396 851.070130765 572.669419396 899.772316757 519.620528427 c 0
 936.419363733 479.702706265 936.419363733 479.702706265 952.209681867 428.554608801 c 0
 968 377.406511338 968 377.406511338 968 317.364842454 c 0
 968 246.867961095 968 246.867961095 943.917099383 185.309457803 c 0
 919.225386028 122.194763193 919.225386028 122.194763193 864.336821718 75.8328840531 c 0
363.117037218 678.191472423 m 0
 422.585058503 662 422.585058503 662 515 662 c 0
 607.414941497 662 607.414941497 662 667.503849374 678.360522409 c 0
 751.60027499 701.257617803 751.60027499 701.257617803 788.527763015 745.442869932 c 0
 799.831667271 758.96845443 799.831667271 758.96845443 806.298515907 773.980040493 c 0
 820 805.785486891 820 805.785486891 820 838.367683104 c 0
 820 870.949879318 820 870.949879318 807.876517768 902.107546023 c 0
 795.753035536 933.265212728 795.753035536 933.265212728 763.259914998 959.117864986 c 0
 730.766794459 984.970517244 730.766794459 984.970517244 671.012948707 1001.98525862 c 0
 611.259102954 1019 611.259102954 1019 515 1019 c 0
 418.740897046 1019 418.740897046 1019 358.28742802 1001.78604284 c 0
 299.233205541 984.970517244 299.233205541 984.970517244 266.740085002 959.117864986 c 0
 234.246964464 933.265212728 234.246964464 933.265212728 222.123482232 902.107546023 c 0
 210 870.949879318 210 870.949879318 210 838.367683104 c 0
 210 805.785486891 210 805.785486891 223.35885253 774.775395928 c 0
 236.717705059 743.765304965 236.717705059 743.765304965 270.183360497 719.074124906 c 0
 303.649015934 694.382944847 303.649015934 694.382944847 363.117037218 678.191472423 c 0
EndSplineSet
EndChar

StartChar: nine
Encoding: 57 57 28
Width: 1023
Flags: W
LayerCount: 2
Fore
SplineSet
801.77102402 287.329963163 m 0
 824.107652989 369.313357087 824.107652989 369.313357087 826.660281981 497.93991943 c 1
 724.145868126 462 724.145868126 462 523 462 c 0
 409.838099492 462 409.838099492 462 322.284020411 476.571410579 c 0
 234.729941331 491.142821157 234.729941331 491.142821157 172.955669646 529.618699724 c 0
 111.181397961 568.09457829 111.181397961 568.09457829 80.0906989807 635.408066259 c 0
 49 702.721554228 49 702.721554228 49 803.302725968 c 0
 49 866.673979835 49 866.673979835 73.4951158095 927.027321132 c 0
 97.9902316189 987.380662428 97.9902316189 987.380662428 153.775157901 1033.3320686 c 0
 209.560084183 1079.28347477 209.560084183 1079.28347477 296.790179553 1106.64173739 c 0
 384.020274923 1134 384.020274923 1134 507.247933474 1134 c 0
 630.475592025 1134 630.475592025 1134 716.110555269 1103.73348159 c 0
 801.745518512 1073.46696317 801.745518512 1073.46696317 855.099075864 1003.21694887 c 0
 908.452633216 932.966934562 908.452633216 932.966934562 931.226316608 823.331183086 c 0
 954 713.695431611 954 713.695431611 954 559.039594817 c 0
 954 404.383758024 954 404.383758024 933.801286171 295.670491326 c 0
 902.936094998 129.548242743 902.936094998 129.548242743 794.403246143 54.0630108492 c 0
 687.915270144 -20 687.915270144 -20 477 -20 c 0
 387.453365208 -20 387.453365208 -20 290.071089224 -1.28910510696 c 0
 181.175244507 19.6339908487 181.175244507 19.6339908487 130.959675472 52.8535802538 c 0
 98 74.6577120623 98 74.6577120623 98 103 c 0
 98 126.110407493 98 126.110407493 117.02731127 141.131969021 c 0
 133.326817176 154 133.326817176 154 159 154 c 0
 172.096824125 154 172.096824125 154 187.933951016 150.040718277 c 0
 203.771077906 146.081436555 203.771077906 146.081436555 220.061110712 140.990801303 c 0
 265.429064299 126.813315807 265.429064299 126.813315807 278.990942909 124.026198662 c 0
 292.552821519 121.239081518 292.552821519 121.239081518 303.452847544 119.089937835 c 0
 314.352873568 116.940794152 314.352873568 116.940794152 325.865980317 114.847248719 c 0
 348.919707918 110.655154682 348.919707918 110.655154682 374.361915744 106.702967059 c 0
 423.949766187 99 423.949766187 99 477 99 c 0
 564.486903814 99 564.486903814 99 628.977706509 111.153907116 c 0
 693.468509204 123.307814232 693.468509204 123.307814232 736.451452128 164.777907119 c 0
 779.434395052 206.248000006 779.434395052 206.248000006 801.77102402 287.329963163 c 0
809.105638358 800.407107746 m 0
 783.231867702 925.432280942 783.231867702 925.432280942 703.288468895 974.047358307 c 0
 635.945299974 1015 635.945299974 1015 501.286630877 1015 c 0
 404.905114345 1015 404.905114345 1015 339.592730638 995.312455946 c 0
 275.62637528 976.030654125 275.62637528 976.030654125 239.555371491 945.71770965 c 0
 203.484367702 915.404765175 203.484367702 915.404765175 189.242183851 876.693545478 c 0
 175 837.982325781 175 837.982325781 175 797.883124597 c 0
 175 720.533016228 175 720.533016228 195.133281185 679.567885958 c 0
 215.266562369 638.602755688 215.266562369 638.602755688 256.003458346 617.06845626 c 0
 296.740354323 595.534156832 296.740354323 595.534156832 363.546369419 588.767078416 c 0
 430.352384515 582 430.352384515 582 523 582 c 0
 704.982030482 582 704.982030482 582 826.898639626 606.545381575 c 1
 825.660745668 720.410837149 825.660745668 720.410837149 809.105638358 800.407107746 c 0
EndSplineSet
EndChar

StartChar: less
Encoding: 60 60 31
Width: 775
Flags: W
LayerCount: 2
Fore
SplineSet
40 335.517886422 m 0
 40 366.858229017 40 366.858229017 63.6408733167 382.957756473 c 0
 79.2377564268 393.579295047 79.2377564268 393.579295047 105.493899078 404.642876778 c 2
 612.098469517 620.723547406 l 1
 622.598469517 624.223547406 l 2
 630.927827299 627 630.927827299 627 640 627 c 0
 666.436100397 627 666.436100397 627 682.718050198 608.147216019 c 0
 699 590.877916022 699 590.877916022 699 569.540031096 c 0
 699 554.233850771 699 554.233850771 691.714692909 542.237621239 c 0
 682.451201003 526.984046643 682.451201003 526.984046643 663.162940825 519.300144023 c 2
 225.944379256 335.088579575 l 1
 663.324271996 151.631631545 l 2
 681.849017904 143.918534039 681.849017904 143.918534039 690.424508952 129.779141691 c 0
 699 115.639749344 699 115.639749344 699 100.543960954 c 0
 699 80.1220839776 699 80.1220839776 682.718050198 62.8527839809 c 0
 666.436100397 44 666.436100397 44 640 44 c 0
 630.927860977 44 630.927860977 44 610.767709788 50.7200383766 c 1
 105.604784783 266.345868956 l 2
 79.2389237301 277.455682859 79.2389237301 277.455682859 65.4844089885 286.822561348 c 0
 40 304.177543827 40 304.177543827 40 335.517886422 c 0
EndSplineSet
EndChar

StartChar: equal
Encoding: 61 61 32
Width: 906
Flags: W
LayerCount: 2
Fore
SplineSet
793.816174571 557.842247627 m 0
 804 542.566509484 804 542.566509484 804 524 c 0
 804 505.433490516 804 505.433490516 793.816174571 490.157752373 c 0
 780.377672989 470 780.377672989 470 754 470 c 2
 149 470 l 2
 132.887919002 470 132.887919002 470 120.217586409 479.093820251 c 0
 107.407190901 488.288167221 107.407190901 488.288167221 102.314148346 506.80798284 c 0
 100 515.222913645 100 515.222913645 100 524 c 0
 100 542.03337156 100 542.03337156 109.152120376 557.009568539 c 0
 121.979606269 578 121.979606269 578 149 578 c 2
 754 578 l 2
 780.377672989 578 780.377672989 578 793.816174571 557.842247627 c 0
795.816174571 646.842247627 m 0
 806 631.566509484 806 631.566509484 806 613 c 0
 806 594.433490516 806 594.433490516 795.816174571 579.157752373 c 0
 782.377672989 559 782.377672989 559 756 559 c 2
 151 559 l 2
 134.887919002 559 134.887919002 559 122.217586409 568.093820251 c 0
 109.407190901 577.288167221 109.407190901 577.288167221 104.314148346 595.80798284 c 0
 102 604.222913645 102 604.222913645 102 613 c 0
 102 631.03337156 102 631.03337156 111.152120376 646.009568539 c 0
 123.979606269 667 123.979606269 667 151 667 c 2
 756 667 l 2
 782.377672989 667 782.377672989 667 795.816174571 646.842247627 c 0
EndSplineSet
EndChar

StartChar: question
Encoding: 63 63 34
Width: 888
Flags: W
LayerCount: 2
Fore
SplineSet
320 455.540913738 m 1
 320 264 l 2
 320 232.56359054 320 232.56359054 315.53730044 209.692255294 c 0
 313.550199252 199.508361705 313.550199252 199.508361705 307.646097319 190.619172398 c 0
 301.741995387 181.72998309 301.741995387 181.72998309 290.797314803 175.364991545 c 0
 279.85263422 169 279.85263422 169 265.490059946 169 c 0
 251.127485672 169 251.127485672 169 241.91471984 171.243472759 c 0
 232.701954009 173.486945518 232.701954009 173.486945518 224.737908685 179.327245422 c 0
 211.633512092 188.937136257 211.633512092 188.937136257 205.421471845 203.690731844 c 0
 199.209431598 218.444327432 199.209431598 218.444327432 198.604715799 232.957506605 c 0
 198 247.470685778 198 247.470685778 198 262 c 2
 198 512 l 2
 198 533.18280557 198 533.18280557 213.222307633 551.091402785 c 0
 228.444615266 569 228.444615266 569 258 569 c 0
 457.168325119 569 457.168325119 569 573.543592185 603.441038386 c 0
 669.807883413 631.93027182 669.807883413 631.93027182 706.852886861 683.205241555 c 0
 723.71845595 706.549322107 723.71845595 706.549322107 730.158218094 732.570327111 c 0
 737 760.215764507 737 760.215764507 737 788.711864407 c 0
 737 839.969107357 737 839.969107357 722.658623725 882.905023779 c 0
 701.907196818 945.031664505 701.907196818 945.031664505 633.298986949 978.129102145 c 0
 554.795794763 1016 554.795794763 1016 414 1016 c 0
 328.79148868 1016 328.79148868 1016 257.059224455 999.896838643 c 0
 194.406736874 985.831994493 194.406736874 985.831994493 128.697015789 966.908665124 c 0
 107.425821344 961 107.425821344 961 96 961 c 0
 60.1015509118 961.943208055 60.1015509118 961.943208055 44.0726351883 984.291100134 c 0
 35 996.940381941 35 996.940381941 35 1012 c 0
 35 1046.1565059 35 1046.1565059 82.9612588228 1071.17977137 c 0
 119.998313055 1090.50345184 119.998313055 1090.50345184 174.624119698 1104.55008784 c 0
 229.249926342 1118.59672383 229.249926342 1118.59672383 292.774894195 1126.79349388 c 0
 356.37531666 1135 356.37531666 1135 414 1135 c 0
 646.866126326 1135 646.866126326 1135 755.988113097 1038.1142315 c 0
 808.62986189 991.37538044 808.62986189 991.37538044 831.16422349 928.211093375 c 0
 853 867.004954935 853 867.004954935 853 796.932318105 c 0
 853 758.819903048 853 758.819903048 847.078956979 719.125871831 c 0
 841.157913958 679.431840614 841.157913958 679.431840614 820.750744046 641.400423948 c 0
 800.057787767 602.836407197 800.057787767 602.836407197 760.931407364 570.115000627 c 0
 681.405971706 500.705038092 681.405971706 500.705038092 508.133401551 471.840741448 c 0
 428.186804378 458.516308585 428.186804378 458.516308585 320 455.540913738 c 1
201.610695205 12.5453848275 m 0
 189.91117395 23.8792960425 189.91117395 23.8792960425 183.955586975 38.9543201925 c 0
 178 54.0293443424 178 54.0293443424 178 68.2269708538 c 0
 178 82.4245973651 178 82.4245973651 180.493511621 92.9976108557 c 0
 185.696935097 115.061220324 185.696935097 115.061220324 201.05394374 130.898135487 c 0
 224.425448722 155 224.425448722 155 260.172868367 155 c 0
 295.920288012 155 295.920288012 155 320.960144006 131.39099292 c 0
 346 107.78198584 346 107.78198584 346 71.2673643089 c 0
 346 34.7527427781 346 34.7527427781 320.736354883 12.3763713891 c 0
 295.472709767 -10 295.472709767 -10 261 -10 c 0
 224.88335051 -10 224.88335051 -10 201.610695205 12.5453848275 c 0
EndSplineSet
EndChar

StartChar: at
Encoding: 64 64 35
Width: 1334
Flags: W
LayerCount: 2
Fore
SplineSet
1025.92044955 52.4384858717 m 0
 1038.21589377 59 1038.21589377 59 1054 59 c 0
 1077.49264692 59 1077.49264692 59 1090.24632346 44.1207107056 c 0
 1103 29.2414214113 1103 29.2414214113 1103 11.7629894836 c 0
 1103 -5.71544244415 1103 -5.71544244415 1093.77135651 -21.6558266611 c 0
 1084.54271301 -37.596210878 1084.54271301 -37.596210878 1065.10087316 -45.8765001266 c 0
 1007.35073514 -72.6348194334 1007.35073514 -72.6348194334 923.378240314 -95.8174097167 c 0
 839.405745484 -119 839.405745484 -119 721 -119 c 0
 379.397193279 -119 379.397193279 -119 209.91697704 33.1388860962 c 0
 126.423868007 108.088923846 126.423868007 108.088923846 87.2119340035 215.311778938 c 0
 48 322.53463403 48 322.53463403 48 453.003372759 c 0
 48 647.825478489 48 647.825478489 150.432712541 787.565783922 c 0
 252.395095242 926.664458045 252.395095242 926.664458045 440.278541034 989.422206536 c 0
 564.753674263 1031 564.753674263 1031 723 1031 c 0
 1004.15111085 1031 1004.15111085 1031 1148.57555543 911.960641141 c 0
 1293 792.921282282 1293 792.921282282 1293 560.512953368 c 0
 1293 270.192182208 1293 270.192182208 1183.46745059 154.533971397 c 0
 1123.29845945 91 1123.29845945 91 1038 91 c 0
 972.079145596 91 972.079145596 91 933.649423909 132.52889279 c 0
 910.210062265 157.858525534 910.210062265 157.858525534 901.406516138 197.881203118 c 1
 839.650939584 143.138528865 839.650939584 143.138528865 744.074402191 119.244394516 c 0
 695.096824125 107 695.096824125 107 634 107 c 0
 544.099145981 107 544.099145981 107 480.191678128 132.99625811 c 0
 416.284210275 158.992516219 416.284210275 158.992516219 376.01622056 203.673436314 c 0
 335.748230845 248.354356409 335.748230845 248.354356409 317.874115423 305.768181706 c 0
 300 363.182007003 300 363.182007003 300 424 c 0
 300 532.979324264 300 532.979324264 339.10370022 610.115390451 c 0
 378.20740044 687.251456639 378.20740044 687.251456639 439.850939261 735.494226151 c 0
 501.494478083 783.736995663 501.494478083 783.736995663 576.511310781 804.868497832 c 0
 651.528143478 826 651.528143478 826 724 826 c 0
 814.956001374 826 814.956001374 826 883.405558266 799.864714641 c 0
 914.306799361 788.06605895 914.306799361 788.06605895 936.553779153 772.812177954 c 1
 951.185096535 806 951.185096535 806 985 806 c 0
 1014.22267417 806 1014.22267417 806 1032.24432396 782.829307411 c 0
 1048 762.572009649 1048 762.572009649 1048 718 c 0
 1048 660.583239273 1048 660.583239273 1022.92564728 329.059422836 c 0
 1021.91950947 315.979631268 1021.91950947 315.979631268 1020.45975473 298.462574464 c 0
 1019 280.945517659 1019 280.945517659 1019 269.073069356 c 0
 1019 257.200621053 1019 257.200621053 1019.19977993 252.456521625 c 0
 1021.14024524 206.37701499 1021.14024524 206.37701499 1036.7843878 201.684081089 c 0
 1039.06480817 201 1039.06480817 201 1043 201 c 0
 1066.7857438 201 1066.7857438 201 1086.98993079 220.172064739 c 0
 1110.58382868 242.56067845 1110.58382868 242.56067845 1128.61283231 288.133270211 c 0
 1146.64183594 333.705861971 1146.64183594 333.705861971 1156.82091797 403.040056116 c 0
 1167 472.37425026 1167 472.37425026 1167 562.466487936 c 0
 1167 762.814076969 1167 762.814076969 1033.25386813 850.349799081 c 0
 923.779278908 922 923.779278908 922 723 922 c 0
 592.286948365 922 592.286948365 922 490.201515558 887.884647824 c 0
 286.820699516 819.917965661 286.820699516 819.917965661 212.137838356 647.260894089 c 0
 175 561.403037071 175 561.403037071 175 456.949083503 c 0
 175 345.803827549 175 345.803827549 203.974331632 259.249408671 c 0
 232.948663265 172.694989793 232.948663265 172.694989793 296.615252845 113.60298235 c 0
 360.281842426 54.5109749064 360.281842426 54.5109749064 464.6330141 22.2554874532 c 0
 568.984185774 -10 568.984185774 -10 723 -10 c 0
 824.730783707 -10 824.730783707 -10 899.36050614 9.74076528892 c 0
 973.990228574 29.4815305778 973.990228574 29.4815305778 1025.92044955 52.4384858717 c 0
808.618787322 703.294303613 m 0
 771.764116579 710 771.764116579 710 730 710 c 0
 673.806664548 710 673.806664548 710 619.839644582 693.251614493 c 0
 565.872624615 676.503228986 565.872624615 676.503228986 523.385137656 642.695981298 c 0
 480.897650696 608.88873361 480.897650696 608.88873361 454.948825348 556.991082914 c 0
 429 505.093432217 429 505.093432217 429 433 c 0
 429 325.030040498 429 325.030040498 477.834891178 274.015020249 c 0
 526.669782357 223 526.669782357 223 639 223 c 0
 685.798268728 223 685.798268728 223 725.56638678 233.292924672 c 0
 765.334504833 243.585849345 765.334504833 243.585849345 797.21771379 259.058583103 c 0
 838.82216331 279.248977724 838.82216331 279.248977724 871.392869108 306.251554125 c 0
 880.227226555 313.575632805 880.227226555 313.575632805 886.325796875 319.674203125 c 2
 898.614717256 331.963123506 l 1
 918.973947399 669.741259957 l 1
 886.453666394 682.644743042 886.453666394 682.644743042 856.683274098 691.305220801 c 0
 826.912881802 699.96569856 826.912881802 699.96569856 808.618787322 703.294303613 c 0
EndSplineSet
EndChar

StartChar: A
Encoding: 65 65 36
Width: 1349
Flags: W
LayerCount: 2
Fore
SplineSet
627.642778828 1093.81453043 m 0
 644.158163025 1114 644.158163025 1114 674 1114 c 0
 698.34840625 1114 698.34840625 1114 716.174203125 1096.17420313 c 0
 729.091097898 1083.25730835 729.091097898 1083.25730835 747.767369378 1050.29918221 c 2
 1299.92105818 54.0216051432 l 2
 1314 28.4235291148 1314 28.4235291148 1314 3 c 0
 1314 5.6848732715 1314 5.6848732715 1296.67420312 7.325796875 c 0
 1279.34840625 -10 1279.34840625 -10 1256.21887789 -10 c 0
 1233.08934953 -10 1233.08934953 -10 1214.0253018 3.41544099304 c 0
 1194.96125408 15.8403287671 1194.96125408 15.8403287671 1178.09694547 43.7315824213 c 2
 1015.24230973 317 l 1
 332.76631584 317 l 1
 168.032199434 40.2361383145 l 2
 154.047066203 15.6114970515 154.047066203 15.6114970515 133.752469189 3.2964601122 c 0
 113.457872176 -10 113.457872176 -10 92 -10 c 0
 78.2974439639 -10 78.2974439639 -10 66.0375439378 -4.11648767575 c 0
 53.7776439118 1.76702464849 53.7776439118 1.76702464849 46.1838254287 13.1577523731 c 0
 34 30.6252992729 34 30.6252992729 34 56.9727602347 c 0
 34 69.6255002272 34 69.6255002272 39.5839111875 81.8243093542 c 0
 43.3394308001 90.0287498241 43.3394308001 90.0287498241 48.8594109426 100.580500048 c 0
 600.094875041 1051.98586469 l 2
 617.195876126 1081.61074068 617.195876126 1081.61074068 627.642778828 1093.81453043 c 0
674 945.95730191 m 1
 389.199266793 426 l 1
 958.800733207 426 l 1
 674 945.95730191 l 1
EndSplineSet
EndChar

StartChar: B
Encoding: 66 66 37
Width: 1408
Flags: W
LayerCount: 2
Fore
SplineSet
973.486414946 13.2416270817 m 0
 878.757851977 3.5527136788e-15 878.757851977 3.5527136788e-15 770 0 c 2
 194 0 l 2
 165.444615266 0 165.444615266 0 149.445141816 18.8229099411 c 0
 135 35.070778131 135 35.070778131 135 58.1914359975 c 2
 135 1054.4251206 l 2
 135 1071.93099337 135 1071.93099337 143.465044141 1085.86831392 c 0
 151.914641675 1099.78020231 151.914641675 1099.78020231 168.112011001 1107.21475015 c 0
 182.245496329 1114 182.245496329 1114 199 1114 c 2
 657 1114 l 2
 805.146120967 1114 805.146120967 1114 869.064814354 1109.17595684 c 0
 976.025289678 1101.45570583 976.025289678 1101.45570583 1054.19904512 1077.24678696 c 0
 1111.06702339 1059.63586033 1111.06702339 1059.63586033 1153.67699289 1026.82353651 c 0
 1196.2869624 994.011212696 1196.2869624 994.011212696 1220.1434812 944.135252487 c 0
 1244 894.259292277 1244 894.259292277 1244 824.010167734 c 0
 1244 763.925751777 1244 763.925751777 1226.22217392 721.420414862 c 0
 1200.83250018 660.715768994 1200.83250018 660.715768994 1151.9101376 624.23017028 c 0
 1128.31458189 606.632942104 1128.31458189 606.632942104 1093.44974882 592.658725005 c 1
 1216.49607458 558.034631196 1216.49607458 558.034631196 1271.31704844 464.615691549 c 0
 1301.91065565 412.481952492 1301.91065565 412.481952492 1302.99761318 336.596201675 c 1
 1302.99761318 336.262751794 l 2
 1302.99761318 231.958171643 1302.99761318 231.958171643 1260.31877748 165.496575081 c 0
 1217.66609515 99.0794202333 1217.66609515 99.0794202333 1142.97794746 62.0613076873 c 0
 1070.69979091 26.2376727901 1070.69979091 26.2376727901 973.486414946 13.2416270817 c 0
1087.88961449 732.331838779 m 0
 1109 766.133918558 1109 766.133918558 1109 823.335092348 c 0
 1109 866.150893149 1109 866.150893149 1094.68636397 897.215237802 c 0
 1064.69332697 962.307995279 1064.69332697 962.307995279 913.959309333 985.227483264 c 0
 829.958621179 998 829.958621179 998 694 998 c 2
 270 998 l 1
 270 644 l 1
 718 644 l 2
 870.886142808 644 870.886142808 644 948.90195626 658.417627267 c 0
 1024.27073926 672.346072961 1024.27073926 672.346072961 1061.74334966 702.941661385 c 0
 1077.64107702 715.921817237 1077.64107702 715.921817237 1087.88961449 732.331838779 c 0
1158.99532519 250.993655918 m 0
 1168 293.057081663 1168 293.057081663 1168 337.886160714 c 0
 1168 395.355745086 1168 395.355745086 1138.88785875 433.099884513 c 0
 1081.59317358 507.382932484 1081.59317358 507.382932484 911.734717601 528.341649487 c 0
 825.354861371 539 825.354861371 539 718 539 c 2
 270 539 l 1
 270 116 l 1
 808 116 l 2
 939.502515673 116 939.502515673 116 1012.39251814 135.536704001 c 0
 1085.2825206 155.073408003 1085.2825206 155.073408003 1118.16940914 184.490791621 c 0
 1151.05629768 213.908175239 1151.05629768 213.908175239 1158.99532519 250.993655918 c 0
EndSplineSet
EndChar

StartChar: C
Encoding: 67 67 38
Width: 1489
Flags: W
LayerCount: 2
Fore
SplineSet
147.552951761 293.650624028 m 0
 98 402.875159157 98 402.875159157 98 557.005831536 c 0
 98 711.136503916 98 711.136503916 147.864692551 821.048177584 c 0
 246.397966657 1038.23505902 246.397966657 1038.23505902 540.933320982 1102.37687514 c 0
 684.169228583 1135 684.169228583 1135 873 1135 c 0
 1138.08166436 1135 1138.08166436 1135 1382.52099355 1034.12027684 c 0
 1405.46591083 1024.36764323 1405.46591083 1024.36764323 1416.73295542 1007.46707636 c 0
 1428 990.566509484 1428 990.566509484 1428 973 c 0
 1428 950.65159375 1428 950.65159375 1411.67420313 934.325796875 c 0
 1395.34840625 918 1395.34840625 918 1371 918 c 0
 1363.60297616 918 1363.60297616 918 1354.98993526 920.758488823 c 0
 1343.65440601 924.388905898 1343.65440601 924.388905898 1342.38715166 924.91784684 c 0
 1229.71570518 971.94592885 1229.71570518 971.94592885 1109.19225529 995.46269956 c 0
 988.56359054 1019 988.56359054 1019 873 1019 c 0
 697.907186506 1019 697.907186506 1019 575.953911619 991.913184325 c 0
 395.341038272 951.797594044 395.341038272 951.797594044 312.941885701 846.019695706 c 0
 233 743.396253659 233 743.396253659 233 557 c 0
 233 433.33258462 233 433.33258462 267.92668963 346.916212803 c 0
 302.853379259 260.499840987 302.853379259 260.499840987 378.427007996 204.836736168 c 0
 454.000636732 149.17363135 454.000636732 149.17363135 575.953911619 122.086815675 c 0
 697.907186506 95 697.907186506 95 873 95 c 0
 988.56359054 95 988.56359054 95 1109.19225529 118.53730044 c 0
 1254.26175662 146.843544601 1254.26175662 146.843544601 1341.71364558 188.801275332 c 0
 1355 195 1355 195 1368.35613689 195 c 0
 1394.95478554 195 1394.95478554 195 1411.68655014 179.148854583 c 0
 1429 162.746638929 1429 162.746638929 1429 140 c 0
 1429 122.12335805 1429 122.12335805 1417.49471861 105.687241781 c 0
 1406.27672746 89.6615401396 1406.27672746 89.6615401396 1382.45712844 79.8534699523 c 0
 1253.18182476 26.9218495497 1253.18182476 26.9218495497 1129.26762938 2.95490641008 c 0
 1005.41566645 -21 1005.41566645 -21 873 -21 c 0
 684.169228583 -21 684.169228583 -21 539.765274991 11.88915669 c 0
 246.397966657 75.7766040507 246.397966657 75.7766040507 147.552951761 293.650624028 c 0
EndSplineSet
EndChar

StartChar: D
Encoding: 68 68 39
Width: 1670
Flags: W
LayerCount: 2
Fore
SplineSet
1179.04280641 1086.61158258 m 0
 1440.74382284 1029.82722803 1440.74382284 1029.82722803 1528.25208976 818.459894726 c 0
 1572 712.791259615 1572 712.791259615 1572 557.019747657 c 0
 1572 401.248235699 1572 401.248235699 1527.8949545 293.711964771 c 0
 1441.39939562 82.8197697982 1441.39939562 82.8197697982 1178.94947601 26.889824981 c 0
 1052.76961963 0 1052.76961963 0 887 0 c 2
 199 0 l 2
 183.155031886 0 183.155031886 0 174.815445062 0.55597245488 c 0
 158.908968509 1.61640422509 158.908968509 1.61640422509 147.851944842 11.291299934 c 0
 136.794921175 20.5432385052 136.794921175 20.5432385052 135.564188104 37.0202465818 c 0
 135 44.5735757046 135 44.5735757046 135 57.8706031586 c 2
 135 1054.31751909 l 2
 135 1069.46979319 135 1069.46979319 135.555972455 1077.44479854 c 0
 136.817625939 1095.54226577 136.817625939 1095.54226577 150.020997591 1105.01188594 c 0
 160.026533599 1112.51603795 160.026533599 1112.51603795 176.011858149 1113.45635115 c 0
 185.253888517 1114 185.253888517 1114 201 1114 c 2
 887 1114 l 2
 1052.81830789 1114 1052.81830789 1114 1179.04280641 1086.61158258 c 0
1409.58876907 354.884716629 m 0
 1437 438.521019018 1437 438.521019018 1437 558.892703863 c 0
 1437 720.393950337 1437 720.393950337 1387.1886148 812.658021318 c 0
 1361.60959957 860.037231275 1361.60959957 860.037231275 1320.41090316 894.661316674 c 0
 1257.96089732 947.145364084 1257.96089732 947.145364084 1152.40499203 972.572682042 c 0
 1046.84908674 998 1046.84908674 998 887 998 c 2
 270 998 l 1
 270 116 l 1
 887 116 l 2
 1046.84908674 116 1046.84908674 116 1152.40499203 141.427317958 c 0
 1257.96089732 166.854635916 1257.96089732 166.854635916 1320.06921773 219.051525078 c 0
 1382.17753814 271.24841424 1382.17753814 271.24841424 1409.58876907 354.884716629 c 0
EndSplineSet
EndChar

StartChar: E
Encoding: 69 69 40
Width: 1302
Flags: W
LayerCount: 2
Fore
SplineSet
1212 59.3801355406 m 0
 1212 36.9926779719 1212 36.9926779719 1202.35673797 23.4921111293 c 0
 1185.57665859 2.09610107049e-13 1185.57665859 2.09610107049e-13 1148 0 c 2
 187 0 l 2
 174.504356666 0 174.504356666 0 167.309296389 1.43901205547 c 0
 151.521834558 4.5965044216 151.521834558 4.5965044216 143.284345116 17.7764875296 c 0
 137.5433832 26.5536351808 137.5433832 26.5536351808 136.7716916 36.139601104 c 0
 136 45.7255670272 136 45.7255670272 136 58.122731844 c 2
 136 1044.23974808 l 2
 136 1071.76633108 136 1071.76633108 138.014174805 1079.48909485 c 0
 140.02834961 1087.21185862 140.02834961 1087.21185862 143.271261403 1092.37641047 c 0
 146.514173196 1097.78126345 146.514173196 1097.78126345 150.960105781 1101.64297017 c 0
 158.754473714 1108.41310499 158.754473714 1108.41310499 169.229901864 1111.20655249 c 0
 179.705330015 1114 179.705330015 1114 198 1114 c 2
 1139 1114 l 2
 1179.34978978 1114 1179.34978978 1114 1197.98734577 1092.25618468 c 0
 1210 1078.24142141 1210 1078.24142141 1210 1055.23691415 c 0
 1210 1032.23240689 1210 1032.23240689 1198.2986475 1019.55594168 c 0
 1178.40085518 998 1178.40085518 998 1139 998 c 2
 271 998 l 1
 271 635 l 1
 1106 635 l 2
 1173.12949689 635 1173.12949689 635 1181.72360111 591.43005806 c 0
 1183 584.959037477 1183 584.959037477 1183 578 c 0
 1183 562.06012522 1183 562.06012522 1177.13139121 548.416645031 c 0
 1168.76798389 528.973198329 1168.76798389 528.973198329 1143.75058466 521.2322693 c 0
 1130.07259196 517 1130.07259196 517 1113 517 c 2
 271 517 l 1
 271 116 l 1
 1141 116 l 2
 1180.40085518 116 1180.40085518 116 1199.37174206 95.4482058814 c 0
 1212 81.7675931094 1212 81.7675931094 1212 59.3801355406 c 0
EndSplineSet
EndChar

StartChar: F
Encoding: 70 70 41
Width: 1239
Flags: W
LayerCount: 2
Fore
SplineSet
271 503 m 1
 271 90.776045494 l 2
 271 58.4191952846 271 58.4191952846 260.604581395 34.5508535896 c 0
 252.443096322 15.8117222618 252.443096322 15.8117222618 234.995597195 6.967255673 c 0
 221.910751175 0 221.910751175 0 205 0 c 0
 186.53762225 0 186.53762225 0 172.883649194 6.39786166046 c 0
 152.724341104 15.4322263346 152.724341104 15.4322263346 144.362170552 37.2926115083 c 0
 136 59.1529966819 136 59.1529966819 136 89.2254100133 c 2
 136 1054.24772806 l 2
 136 1077.47076231 136 1077.47076231 137.111247028 1083.14613445 c 0
 139.471709247 1095.20151113 139.471709247 1095.20151113 148.222242993 1103.57064924 c 0
 156.97277674 1112.32118299 156.97277674 1112.32118299 173.815445062 1113.44402755 c 0
 182.155031886 1114 182.155031886 1114 198 1114 c 2
 1176 1114 l 2
 1204.85348695 1114 1204.85348695 1114 1212.2884163 1112.53559971 c 0
 1241.27166224 1106.82699489 1241.27166224 1106.82699489 1254.35673797 1088.50788887 c 0
 1264 1075.00732203 1264 1075.00732203 1264 1054 c 0
 1264 1025.16187235 1264 1025.16187235 1245.23735377 1010.98361379 c 0
 1237.15976433 1004.87966928 1237.15976433 1004.87966928 1227.73959681 1002.66315927 c 0
 1207.9211699 998 1207.9211699 998 1176 998 c 2
 271 998 l 1
 271 619 l 1
 1033 619 l 2
 1064.69183173 619 1064.69183173 619 1085.80012665 614.436044343 c 0
 1107.02499816 609.846882934 1107.02499816 609.846882934 1117.12866428 591.960663186 c 0
 1124 579.796541847 1124 579.796541847 1124 560.577891508 c 0
 1124 530.957332867 1124 530.957332867 1099.15613264 514.867452793 c 0
 1083.19062796 504.527554739 1083.19062796 504.527554739 1059.05670015 503.521974414 c 0
 1046.52931422 503 1046.52931422 503 1033 503 c 2
 271 503 l 1
EndSplineSet
EndChar

StartChar: G
Encoding: 71 71 42
Width: 1623
Flags: W
LayerCount: 2
Fore
SplineSet
575.953911619 122.086815675 m 0
 697.907186506 95 697.907186506 95 873 95 c 0
 1022.16554246 95 1022.16554246 95 1152.98663884 113.015318898 c 0
 1283.80773522 131.030637797 1283.80773522 131.030637797 1412 158.979672555 c 1
 1412 511 l 1
 927 511 l 2
 898.386496998 511 898.386496998 511 888.497999552 512.719720866 c 0
 878.609502106 514.439441731 878.609502106 514.439441731 871.14391626 516.927970346 c 0
 855.046163199 522.293888033 855.046163199 522.293888033 843.023081599 535.241822063 c 0
 831 548.189756093 831 548.189756093 831 571 c 0
 831 593.810243907 831 593.810243907 842.955711465 606.685625484 c 0
 854.911422929 619.561007061 854.911422929 619.561007061 869.582033373 624.695720717 c 0
 884.252643816 629.830434372 884.252643816 629.830434372 898.87221417 630.415217186 c 0
 913.491784523 631 913.491784523 631 927 631 c 2
 1437 631 l 2
 1489.82421681 631 1489.82421681 631 1511.91210841 608.33702749 c 0
 1534 585.674054981 1534 585.674054981 1534 539.618666449 c 2
 1534 137.540798824 l 2
 1534 95.3804778762 1534 95.3804778762 1500.54979825 72.2976647313 c 0
 1473.09902426 53.3548466455 1473.09902426 53.3548466455 1441.82710168 47.5700895865 c 0
 1293.29258719 19.5739887067 1293.29258719 19.5739887067 1153.07275722 -0.319125720942 c 0
 1012.85292725 -21 1012.85292725 -21 873 -21 c 0
 684.169228583 -21 684.169228583 -21 539.765274991 11.88915669 c 0
 246.397966657 75.7766040507 246.397966657 75.7766040507 147.552951761 293.650624028 c 0
 98 402.875159157 98 402.875159157 98 557.005831536 c 0
 98 711.136503916 98 711.136503916 147.864692551 821.048177584 c 0
 246.397966657 1038.23505902 246.397966657 1038.23505902 540.933320982 1102.37687514 c 0
 684.169228583 1135 684.169228583 1135 873 1135 c 0
 1138.08166436 1135 1138.08166436 1135 1382.52099355 1034.12027684 c 0
 1405.46591083 1024.36764323 1405.46591083 1024.36764323 1416.73295542 1007.46707636 c 0
 1428 990.566509484 1428 990.566509484 1428 973 c 0
 1428 950.65159375 1428 950.65159375 1411.67420313 934.325796875 c 0
 1395.34840625 918 1395.34840625 918 1371 918 c 0
 1363.60297616 918 1363.60297616 918 1354.98993526 920.758488823 c 0
 1343.65440601 924.388905898 1343.65440601 924.388905898 1342.38715166 924.91784684 c 0
 1229.71570518 971.94592885 1229.71570518 971.94592885 1109.19225529 995.46269956 c 0
 988.56359054 1019 988.56359054 1019 873 1019 c 0
 697.907186506 1019 697.907186506 1019 575.953911619 991.913184325 c 0
 395.341038272 951.797594044 395.341038272 951.797594044 312.941885701 846.019695706 c 0
 233 743.396253659 233 743.396253659 233 557 c 0
 233 433.33258462 233 433.33258462 267.92668963 346.916212803 c 0
 302.853379259 260.499840987 302.853379259 260.499840987 378.427007996 204.836736168 c 0
 454.000636732 149.17363135 454.000636732 149.17363135 575.953911619 122.086815675 c 0
EndSplineSet
EndChar

StartChar: H
Encoding: 72 72 43
Width: 1373
Flags: W
LayerCount: 2
Fore
SplineSet
134 91.2831301427 m 2
 134 1022.72103018 l 2
 134 1049.79657576 134 1049.79657576 139.164483344 1065.6710273 c 0
 147.406123299 1091.003961 147.406123299 1091.003961 169.176498254 1104.15283315 c 0
 184.767845766 1114 184.767845766 1114 206.289044836 1114 c 0
 242.318198734 1114 242.318198734 1114 259.310760791 1078.09708017 c 0
 269 1057.62506557 269 1057.62506557 269 1023.67519685 c 2
 269 631 l 1
 1104 631 l 1
 1104 1023.24882789 l 2
 1104 1046.78379216 1104 1046.78379216 1105.71569657 1055.58511369 c 0
 1108.45079779 1069.61586118 1108.45079779 1069.61586118 1112.68923921 1078.56137465 c 0
 1119.83783132 1093.64895538 1119.83783132 1093.64895538 1133.75482383 1103.56225562 c 0
 1147.67181634 1114 1147.67181634 1114 1171 1114 c 0
 1193.93061344 1114 1193.93061344 1114 1208.46677508 1103.73918002 c 0
 1234.8306611 1085.94363254 1234.8306611 1085.94363254 1237.91963579 1049.02088878 c 0
 1239 1036.10721514 1239 1036.10721514 1239 1022.70768326 c 2
 1239 91.3241388067 l 2
 1239 77.9246069305 1239 77.9246069305 1237.78783677 63.4355298346 c 0
 1234.89502163 28.8574957025 1234.89502163 28.8574957025 1209.97900241 10.9881140603 c 0
 1195.32818366 0 1195.32818366 0 1172 0 c 0
 1149.06938656 0 1149.06938656 0 1134.53322492 10.2608199771 c 0
 1108.1693389 27.998950719 1108.1693389 27.998950719 1105.08036421 64.8025644617 c 0
 1104 77.6745725646 1104 77.6745725646 1104 91.0308712947 c 2
 1104 519 l 1
 269 519 l 1
 269 91.1235445725 l 2
 269 36.6686867199 269 36.6686867199 239.860359796 12.6024420999 c 0
 225.31908045 1.42108547152e-14 225.31908045 1.42108547152e-14 204.043463108 7.1054273576e-15 c 0
 182.767845766 0 182.767845766 0 167.025755858 9.94237257347 c 0
 151.28366595 19.4502808191 151.28366595 19.4502808191 144.45775418 33.9561282402 c 0
 137.631842411 48.4619756613 137.631842411 48.4619756613 135.815921205 62.9333808132 c 0
 134 77.4047859651 134 77.4047859651 134 91.2831301427 c 2
EndSplineSet
EndChar

StartChar: I
Encoding: 73 73 44
Width: 1031
Flags: W
LayerCount: 2
Fore
SplineSet
90 116 m 2
 448 116 l 1
 448 998 l 1
 90 998 l 2
 51.65159375 998 51.65159375 998 31.825796875 1017.82579687 c 0
 18 1031.65159375 18 1031.65159375 18 1055.5 c 0
 18 1079.34840625 18 1079.34840625 32.325796875 1093.67420312 c 0
 52.65159375 1114 52.65159375 1114 91 1114 c 2
 943 1114 l 2
 959.869801522 1114 959.869801522 1114 974.595772854 1109.34969326 c 0
 989.321744187 1104.69938653 989.321744187 1104.69938653 999.987345766 1092.25618468 c 0
 1012 1078.24142141 1012 1078.24142141 1012 1056 c 0
 1012 1032.23240689 1012 1032.23240689 1000.42395863 1019.6916954 c 0
 988.847917253 1007.15098392 988.847917253 1007.15098392 974.358859388 1002.57549196 c 0
 959.869801522 998 959.869801522 998 943 998 c 2
 583 998 l 1
 583 116 l 1
 943 116 l 2
 981.349789781 116 981.349789781 116 999.987345766 94.2561846838 c 0
 1012 80.2414214113 1012 80.2414214113 1012 57.236914151 c 0
 1012 25.7966316629 1012 25.7966316629 987.326459902 10.6733709123 c 0
 969.912897474 2.13162820728e-14 969.912897474 2.13162820728e-14 943 0 c 2
 91 0 l 2
 52.65159375 0 52.65159375 0 32.325796875 20.325796875 c 0
 18 34.65159375 18 34.65159375 18 58.5 c 0
 18 82.34840625 18 82.34840625 31.825796875 96.174203125 c 0
 51.65159375 116 51.65159375 116 90 116 c 2
EndSplineSet
EndChar

StartChar: J
Encoding: 74 74 45
Width: 1057
Flags: W
LayerCount: 2
Fore
SplineSet
923 1022.62053687 m 2
 923 592.097703684 l 2
 923 353.199453441 923 353.199453441 873.244167812 223.079545014 c 0
 854.755556433 174.728702231 854.755556433 174.728702231 828.463753869 136.108687819 c 0
 756.807961699 30.8535338755 756.807961699 30.8535338755 621.239098616 -2.5500158212 c 0
 553.483365784 -20 553.483365784 -20 467 -20 c 0
 380.3329414 -20 380.3329414 -20 302.294087025 -9.66372789745 c 0
 224.255232651 0.672544205103 224.255232651 0.672544205103 160.277942952 28.3960364082 c 0
 96.3006532523 56.1195286113 96.3006532523 56.1195286113 50.2293710185 105.442901356 c 0
 4.10188158839 154.826448863 4.10188158839 154.826448863 -16.5831563628 230.423323267 c 0
 -21.9999984618 242.810912753 -21.9999984618 242.810912753 -21.9999992309 259.962868156 c 0
 -22 277.114823558 -22 277.114823558 -17.8539846921 289.35918159 c 0
 -13.7079693842 301.603539622 -13.7079693842 301.603539622 -4.79541709455 310.070464297 c 0
 13.025146803 327 13.025146803 327 35.7208417142 327 c 0
 58.4165366254 327 58.4165366254 327 77.6067128893 312.415466039 c 0
 96.8412864466 297.797190136 96.8412864466 297.797190136 104.234351412 271.182156262 c 1
 118.666672472 208.942771689 118.666672472 208.942771689 153.994549461 175.381288549 c 0
 189.32242645 141.81980541 189.32242645 141.81980541 239.192328152 124.272988144 c 0
 289.062229854 106.726170879 289.062229854 106.726170879 348.940054163 102.863085439 c 0
 408.817878473 99 408.817878473 99 467 99 c 0
 566.823376234 99 566.823376234 99 628.888680321 130.100080648 c 0
 689.721172508 160.582416002 689.721172508 160.582416002 724.08563643 220.033956843 c 0
 759.894075842 281.98361807 759.894075842 281.98361807 773.947037921 375.708297102 c 0
 788 469.432976134 788 469.432976134 788 594.440369722 c 2
 788 1023.18684352 l 2
 788 1055.31136403 788 1055.31136403 797.700835272 1078.99569119 c 0
 805.806854407 1098.78631785 805.806854407 1098.78631785 825.883012281 1107.64785853 c 0
 839.59434204 1114 839.59434204 1114 859.732073109 1114 c 0
 879.869804178 1114 879.869804178 1114 893.840514439 1102.64879791 c 0
 907.811224701 1091.78890528 907.811224701 1091.78890528 913.621628768 1077.8916185 c 0
 923 1055.46049098 923 1055.46049098 923 1022.62053687 c 2
EndSplineSet
EndChar

StartChar: K
Encoding: 75 75 46
Width: 1229
Flags: W
LayerCount: 2
Fore
SplineSet
1086.63478209 1114 m 0
 1113.76952652 1114 1113.76952652 1114 1129.38476326 1097.46621992 c 0
 1145 1081.6648038 1145 1081.6648038 1145 1058.79245161 c 0
 1145 1025.60345135 1145 1025.60345135 1112.67571769 1003.13619469 c 2
 555.212321784 615.916362503 l 1
 1115.89335889 115.916290873 l 2
 1144 91.6284110454 1144 91.6284110454 1144 60.0807369862 c 0
 1144 36.5147679212 1144 36.5147679212 1127.02645658 18.6708977614 c 0
 1110.05291316 0 1110.05291316 0 1083.58701283 0 c 0
 1057.1211125 0 1057.1211125 0 1033.83808898 21.827834551 c 2
 450.205842722 573.252950166 l 1
 271 455.513845769 l 1
 271 95 l 2
 271 60.7452514735 271 60.7452514735 259.903327386 35.4694971858 c 0
 244.331353012 1.42108547152e-14 244.331353012 1.42108547152e-14 204 0 c 0
 185.53762225 0 185.53762225 0 171.883649194 6.39786166046 c 0
 151.724341104 15.4330860649 151.724341104 15.4330860649 143.362170552 37.2955515216 c 0
 135 59.1580169783 135 59.1580169783 135 89.2332920677 c 2
 135 1026.60878135 l 2
 135 1059.5850452 135 1059.5850452 145.769951629 1082.00599844 c 0
 153.592754265 1098.29155832 153.592754265 1098.29155832 169.888157441 1105.9711747 c 0
 186.183560618 1114 186.183560618 1114 204.378397534 1114 c 0
 246.603483168 1114 246.603483168 1114 261.052239793 1079.68420301 c 0
 271 1056.05827252 271 1056.05827252 271 1025 c 2
 271 547.717638701 l 1
 1032.31805684 1094.23128668 l 2
 1059.50003766 1114 1059.50003766 1114 1086.63478209 1114 c 0
EndSplineSet
EndChar

StartChar: L
Encoding: 76 76 47
Width: 1145
Flags: W
LayerCount: 2
Fore
SplineSet
1104 0 m 2
 201 0 l 2
 176.92504914 0 176.92504914 0 169.488160538 1.80623880942 c 0
 137.573161223 9.22243711579 137.573161223 9.22243711579 135.555972455 38.1718927641 c 0
 135 46.1508683448 135 46.1508683448 135 59.3971675734 c 2
 135 1027.63737646 l 2
 135 1057.77347825 135 1057.77347825 146.287802405 1081.17284486 c 0
 155.311417835 1099.87860157 155.311417835 1099.87860157 175.29731722 1108.11888835 c 0
 188.944512212 1114 188.944512212 1114 206.537959098 1114 c 0
 224.131405984 1114 224.131405984 1114 237.064827252 1106.83418551 c 0
 254.661755763 1097.55289342 254.661755763 1097.55289342 262.330877882 1076.1722432 c 0
 270 1054.79159299 270 1054.79159299 270 1027.97922103 c 2
 270 116 l 1
 1104 116 l 2
 1134.34840625 116 1134.34840625 116 1152.17420313 98.174203125 c 0
 1170 80.34840625 1170 80.34840625 1170 57.3204058713 c 0
 1170 34.2924054926 1170 34.2924054926 1151.73466571 16.8968490306 c 0
 1133.99297423 -9.23705556488e-14 1133.99297423 -9.23705556488e-14 1104 0 c 2
EndSplineSet
EndChar

StartChar: M
Encoding: 77 77 48
Width: 1768
Flags: W
LayerCount: 2
Fore
SplineSet
269 901.556273544 m 1
 269 95 l 2
 269 61.0123678221 269 61.0123678221 258.604581395 35.9410641267 c 0
 250.371688122 16.0852627046 250.371688122 16.0852627046 232.396782734 6.81518571202 c 0
 219.181971414 -1.06581410364e-14 219.181971414 -1.06581410364e-14 202 0 c 0
 183.479771419 0 183.479771419 0 169.882615733 6.44489460292 c 0
 149.636777587 15.6180575402 149.636777587 15.6180575402 141.818388793 37.5051807208 c 0
 134 59.3923039014 134 59.3923039014 134 91.0953311471 c 2
 134 1037.44316511 l 2
 134 1067.85867475 134 1067.85867475 153.024804358 1090.4092426 c 0
 172.049608716 1114 172.049608716 1114 203 1114 c 0
 247.147202802 1114 247.147202802 1114 284.536698118 1111 c 0
 284.829943799 1110.56897111 284.829943799 1110.56897111 884.000020981 209.881048637 c 1
 1483.04448529 1110.37833256 l 2
 1518.50257243 1114 1518.50257243 1114 1565 1114 c 0
 1595.95039128 1114 1595.95039128 1114 1615.96928785 1089.17656826 c 0
 1634 1067.79981169 1634 1067.79981169 1634 1037.37788284 c 2
 1634 90.830321539 l 2
 1634 59.1206033483 1634 59.1206033483 1626.18161121 37.2288608758 c 0
 1612.88574364 2.27373675443e-13 1612.88574364 2.27373675443e-13 1566 0 c 0
 1536.79249871 0 1536.79249871 0 1519.98793625 19.0146161138 c 0
 1513.25470851 26.6333649513 1513.25470851 26.6333649513 1509.39541861 35.9410641267 c 0
 1499 61.0123678221 1499 61.0123678221 1499 95 c 2
 1499 901.556273544 l 1
 953.441667832 96.6038781957 l 1
 921.954779396 51.9974529114 921.954779396 51.9974529114 882.734097277 51.9987264557 c 0
 843.513415157 52 843.513415157 52 814.147013143 97.2107651504 c 1
 269 901.556273544 l 1
EndSplineSet
EndChar

StartChar: N
Encoding: 78 78 49
Width: 1527
Flags: W
LayerCount: 2
Fore
SplineSet
270 953.772206012 m 1
 270 95 l 2
 270 61.0123678221 270 61.0123678221 259.604581395 35.9410641267 c 0
 251.443096322 16.2574824808 251.443096322 16.2574824808 233.995597195 6.967255673 c 0
 220.910751175 0 220.910751175 0 204 0 c 0
 185.53762225 0 185.53762225 0 171.883649194 6.39786166046 c 0
 151.724341104 15.4304128844 151.724341104 15.4304128844 143.362170552 37.2864100662 c 0
 135 59.142407248 135 59.142407248 135 91.1212294184 c 2
 135 1027.26316221 l 2
 135 1077.34857292 135 1077.34857292 164.047396519 1098.53989451 c 0
 180.379040258 1111 180.379040258 1111 201 1111 c 0
 235.65947609 1111.00136502 235.65947609 1111.00136502 275.808284478 1074.5024483 c 2
 1257 160.449950848 l 1
 1257 1013 l 2
 1257 1028.93818099 1257 1028.93818099 1258.18817289 1044.97851495 c 0
 1259.37634577 1061.0188489 1259.37634577 1061.0188489 1264.15674099 1072.17310442 c 0
 1272.5960196 1091.86475451 1272.5960196 1091.86475451 1287.06906473 1102.93237725 c 0
 1301.54210986 1114 1301.54210986 1114 1322.28882036 1114 c 0
 1368.6492846 1114 1368.6492846 1114 1382.56312077 1076.55466734 c 0
 1392 1051.15785528 1392 1051.15785528 1392 1017.35494212 c 2
 1392 85.3521067676 l 2
 1392 19.8062697885 1392 19.8062697885 1354.35750035 4.39790748971 c 0
 1344.07671386 0 1344.07671386 0 1334.26981123 0 c 0
 1316.93406587 0 1316.93406587 0 1298.80519084 8.95609762496 c 0
 1280.67631581 17.9121952499 1280.67631581 17.9121952499 1259.01981839 37.657825252 c 2
 270 953.772206012 l 1
EndSplineSet
EndChar

StartChar: O
Encoding: 79 79 50
Width: 1715
Flags: W
LayerCount: 2
Fore
SplineSet
1571.37582406 810.768464719 m 0
 1617 701.723852052 1617 701.723852052 1617 557.188725483 c 0
 1617 264.127268276 1617 264.127268276 1430.04659425 121.603926115 c 0
 1289.07010819 14.1309443825 1289.07010819 14.1309443825 1037.05906466 -11.9640949056 c 0
 953.440640633 -21 953.440640633 -21 857 -21 c 0
 663.828024312 -21 663.828024312 -21 521.214216072 15.5544418233 c 0
 235.239172211 85.6965170168 235.239172211 85.6965170168 143.2851585 305.170511225 c 0
 98 413.256218562 98 413.256218562 98 557.592862543 c 0
 98 701.929506524 98 701.929506524 143.617421249 810.80825192 c 0
 189.234842498 919.686997316 189.234842498 919.686997316 284.400317184 992.538967447 c 0
 424.60729402 1099.87153235 424.60729402 1099.87153235 676.940935345 1125.96409491 c 0
 760.559359367 1135 760.559359367 1135 857 1135 c 0
 1243.4826005 1135 1243.4826005 1135 1430.04659425 992.773524852 c 0
 1525.75164812 919.813077387 1525.75164812 919.813077387 1571.37582406 810.768464719 c 0
317.988508581 850.973866685 m 0
 233 744.587732966 233 744.587732966 233 557 c 0
 233 428.894768701 233 428.894768701 270.774063084 341.995032406 c 0
 308.548126168 255.09529611 308.548126168 255.09529611 384.181946173 200.279176941 c 0
 459.815766179 145.463057773 459.815766179 145.463057773 576.51261677 120.508779543 c 0
 695.802552053 95 695.802552053 95 857 95 c 0
 1104.66447356 95 1104.66447356 95 1244.46692822 153.146976192 c 0
 1340.80609253 193.21659519 1340.80609253 193.21659519 1396.93210948 262.963085995 c 0
 1482 368.674967334 1482 368.674967334 1482 557 c 0
 1482 684.178723378 1482 684.178723378 1444.22393261 771.531031171 c 0
 1369.71088182 943.832898352 1369.71088182 943.832898352 1137.48738323 993.491220457 c 0
 1018.19744795 1019 1018.19744795 1019 857 1019 c 0
 695.802552053 1019 695.802552053 1019 577.809159116 993.768471114 c 0
 402.035365781 956.181268698 402.035365781 956.181268698 317.988508581 850.973866685 c 0
EndSplineSet
EndChar

StartChar: P
Encoding: 80 80 51
Width: 1187
Flags: W
LayerCount: 2
Fore
SplineSet
795.390296135 1101.13031132 m 0
 913.161825759 1085.37845141 913.161825759 1085.37845141 996.156051125 1045.1730691 c 0
 1115.20221196 987.502834962 1115.20221196 987.502834962 1157.66721654 857.901926731 c 0
 1179 792.79541987 1179 792.79541987 1179 702.561618719 c 0
 1179 612.327817568 1179 612.327817568 1155.03019573 547.817630241 c 0
 1107.64072396 420.277844496 1107.64072396 420.277844496 981.735013535 371.699152815 c 0
 871.467629221 329.154257537 871.467629221 329.154257537 703.155852518 324.945934073 c 0
 625.310037468 322.999544007 625.310037468 322.999544007 543 323 c 2
 270 323 l 1
 270 94.1854177559 l 2
 270 63.6996445975 270 63.6996445975 261.322129467 38.5109007176 c 0
 254.373068667 18.3402710635 254.373068667 18.3402710635 237.322999171 8.44222448522 c 0
 223.851364354 0 223.851364354 0 205.513302849 0 c 0
 187.175241344 0 187.175241344 0 173.065832914 7.09411597043 c 0
 153.276346088 16.6139110718 153.276346088 16.6139110718 145.104170331 37.3107910351 c 0
 135 62.9006469919 135 62.9006469919 135 96.9396295652 c 2
 135 1054.65766862 l 2
 135 1072.90518494 135 1072.90518494 138.776452594 1083.74467577 c 0
 148.487440579 1111.61796759 148.487440579 1111.61796759 185.167290964 1113.46501288 c 0
 195.332046234 1114 195.332046234 1114 211 1114 c 2
 543 1114 l 2
 702.163054942 1114 702.163054942 1114 795.390296135 1101.13031132 c 0
1044 704.650245224 m 0
 1044 799.088368388 1044 799.088368388 1015.46726511 855.462163522 c 0
 986.934530211 911.835958655 986.934530211 911.835958655 927.995591721 943.333464464 c 0
 869.056653231 974.830970274 869.056653231 974.830970274 773.233167729 986.415485137 c 0
 677.409682228 998 677.409682228 998 543 998 c 2
 270 998 l 1
 270 435 l 1
 543 435 l 2
 677.91925232 435 677.91925232 435 774.569029154 442.905471354 c 0
 871.218805988 450.810942708 871.218805988 450.810942708 929.8618213 478.232884254 c 0
 988.504836613 505.654825799 988.504836613 505.654825799 1015.69805847 556.88901596 c 0
 1044 610.212122059 1044 610.212122059 1044 704.650245224 c 0
EndSplineSet
EndChar

StartChar: Q
Encoding: 81 81 52
Width: 1715
Flags: W
LayerCount: 2
Fore
SplineSet
979.431643684 -129.658358615 m 1
 956.826480825 -18.3070008243 l 1
 908.578473768 -21 908.578473768 -21 857 -21 c 0
 663.828024312 -21 663.828024312 -21 521.214216072 15.5544418233 c 0
 235.239172211 85.6965170168 235.239172211 85.6965170168 143.2851585 305.170511225 c 0
 98 413.256218562 98 413.256218562 98 557.592862543 c 0
 98 701.929506524 98 701.929506524 143.617421249 810.80825192 c 0
 189.234842498 919.686997316 189.234842498 919.686997316 284.400317184 992.538967447 c 0
 424.60729402 1099.87153235 424.60729402 1099.87153235 676.940935345 1125.96409491 c 0
 760.559359367 1135 760.559359367 1135 857 1135 c 0
 1243.4826005 1135 1243.4826005 1135 1430.04659425 992.80266253 c 0
 1525.75164812 919.857162338 1525.75164812 919.857162338 1571.37582406 810.83488944 c 0
 1617 701.812616543 1617 701.812616543 1617 557.307100621 c 0
 1617 306.454654232 1617 306.454654232 1478.7838693 164.473138524 c 0
 1347.49045849 29.6029365073 1347.49045849 29.6029365073 1078.85778801 -6.36523979633 c 1
 1098.36100004 -102.397989819 1098.36100004 -102.397989819 1099.98729313 -111.749174534 c 0
 1101.61358622 -121.10035925 1101.61358622 -121.10035925 1103.30679311 -130.412997156 c 0
 1105 -139.725635063 1105 -139.725635063 1105 -147.998268546 c 0
 1105 -156.270902029 1105 -156.270902029 1104.22889176 -161.385218453 c 0
 1103.45778352 -166.499534878 1103.45778352 -166.499534878 1101.90325528 -171.452162364 c 0
 1095.28178289 -192.547749628 1095.28178289 -192.547749628 1078.02627154 -201.723630192 c 0
 1064.34284563 -209 1064.34284563 -209 1045 -209 c 0
 1014.18896527 -209 1014.18896527 -209 998.282338992 -186.275289295 c 0
 986.370705746 -169.25795232 986.370705746 -169.25795232 979.431643684 -129.658358615 c 1
317.988508581 850.973866685 m 0
 233 744.587732966 233 744.587732966 233 557 c 0
 233 428.894768701 233 428.894768701 270.774063084 341.995032406 c 0
 308.548126168 255.09529611 308.548126168 255.09529611 384.181946173 200.279176941 c 0
 459.815766179 145.463057773 459.815766179 145.463057773 576.51261677 120.508779543 c 0
 695.802552053 95 695.802552053 95 857 95 c 0
 895.973628471 95 895.973628471 95 932.88886421 96.4474408816 c 1
 929.417107565 113.196347956 929.417107565 113.196347956 924.708553782 136.646925617 c 0
 920 160.097503279 920 160.097503279 920 170.893223819 c 0
 920 191.222541452 920 191.222541452 931.54448529 208.015382068 c 0
 946.459094174 229.710472279 946.459094174 229.710472279 981 229.710472279 c 0
 996.50695463 229.710472279 996.50695463 229.710472279 1008.64939395 223.153439972 c 0
 1024.24709877 214.730531545 1024.24709877 214.730531545 1032.13412891 196.277298845 c 0
 1040.02115904 177.824066146 1040.02115904 177.824066146 1045.47710987 152.979884304 c 2
 1055.06997468 106.17773485 l 1
 1156.41153843 119.578106687 1156.41153843 119.578106687 1236.55996731 150.077634108 c 0
 1316.70839619 180.57716153 1316.70839619 180.57716153 1371.96021885 235.213643527 c 0
 1427.02051613 289.660733164 1427.02051613 289.660733164 1454.51025806 368.795686655 c 0
 1482 447.930640146 1482 447.930640146 1482 557 c 0
 1482 684.178723378 1482 684.178723378 1444.22393261 771.531031171 c 0
 1369.71088182 943.832898352 1369.71088182 943.832898352 1137.48738323 993.491220457 c 0
 1018.19744795 1019 1018.19744795 1019 857 1019 c 0
 695.802552053 1019 695.802552053 1019 577.809159116 993.768471114 c 0
 402.035365781 956.181268698 402.035365781 956.181268698 317.988508581 850.973866685 c 0
EndSplineSet
EndChar

StartChar: R
Encoding: 82 82 53
Width: 1256
Flags: W
LayerCount: 2
Fore
SplineSet
1141.81724648 904.501412382 m 0
 1166 844.885457869 1166 844.885457869 1166 764.82532266 c 0
 1166 727.904429268 1166 727.904429268 1161.11712628 700.144350501 c 0
 1156.23425256 672.384271735 1156.23425256 672.384271735 1146.29085221 648.082858572 c 0
 1107.91862125 554.302118968 1107.91862125 554.302118968 1014.59223898 504.837411227 c 0
 930.61482896 460.327831595 930.61482896 460.327831595 819.958022988 445.658981534 c 0
 796.081001824 442.493803935 796.081001824 442.493803935 772.736642488 440.372449177 c 1
 1103.91384353 107.302957078 l 2
 1124.05180417 87.9145977698 1124.05180417 87.9145977698 1128 57.7081296135 c 1
 1128 56.2022396403 l 2
 1128 32.9169407793 1128 32.9169407793 1111.17420313 16.825796875 c 0
 1094.34840625 0 1094.34840625 0 1069 0 c 0
 1053.17434242 0 1053.17434242 0 1039.98251964 5.27672911253 c 0
 1026.79069686 10.5534582251 1026.79069686 10.5534582251 1018.4084289 17.013413667 c 0
 1010.02616095 23.1020958534 1010.02616095 23.1020958534 1002.39419722 31.4219993767 c 2
 609.171161637 427 l 1
 271 427 l 1
 271 95.5474592029 l 2
 271 16.8863348784 271 16.8863348784 227.178054394 3.09255331245 c 0
 217.900366847 0 217.900366847 0 209.987522619 0 c 0
 202.074678392 0 202.074678392 0 196.633968697 0.681389626261 c 0
 184.910409997 2.14963765439 184.910409997 2.14963765439 175.066118894 7.04458903171 c 0
 155.325612864 16.4322466718 155.325612864 16.4322466718 146.777826078 36.8697912105 c 0
 136 62.6393039529 136 62.6393039529 136 96.9026046494 c 2
 136 1054.24899595 l 2
 136 1077.47143323 136 1077.47143323 137.111247028 1083.14665948 c 0
 139.471709247 1095.20172626 139.471709247 1095.20172626 148.222242993 1103.57064924 c 0
 156.97277674 1112.32118299 156.97277674 1112.32118299 173.815445062 1113.44402755 c 0
 182.155031886 1114 182.155031886 1114 198 1114 c 2
 488 1114 l 2
 581.274160002 1114 581.274160002 1114 666.695534456 1111.97851153 c 0
 848.153209078 1107.8718271 848.153209078 1107.8718271 962.55023239 1068.00492871 c 0
 1094.08811567 1022.16451017 1094.08811567 1022.16451017 1141.81724648 904.501412382 c 0
1016.95571079 674.333635737 m 0
 1031 708.124414502 1031 708.124414502 1031 756.28125 c 0
 1031 843.138167404 1031 843.138167404 998.485408542 890.847577216 c 0
 966.444941057 937.86129399 966.444941057 937.86129399 902.091886746 961.16041413 c 0
 833.64025879 985.943429026 833.64025879 985.943429026 729.931327069 991.971714513 c 0
 626.222395347 998 626.222395347 998 488 998 c 2
 271 998 l 1
 271 543 l 1
 621 543 l 2
 706.720987625 543 706.720987625 543 784.455801056 550.461886099 c 0
 924.451170376 563.900260159 924.451170376 563.900260159 986.828775863 629.332493523 c 0
 993.935435705 636.787166103 993.935435705 636.787166103 1002.06238904 647.420406987 c 0
 1010.18934238 658.05364787 1010.18934238 658.05364787 1016.95571079 674.333635737 c 0
EndSplineSet
EndChar

StartChar: S
Encoding: 83 83 54
Width: 1540
Flags: W
LayerCount: 2
Fore
SplineSet
1413.28501624 454.346467234 m 0
 1452 399.280982993 1452 399.280982993 1452 320.580716273 c 0
 1452 254.32954126 1452 254.32954126 1426.75039153 202.551662007 c 0
 1401.50078306 150.773782755 1401.50078306 150.773782755 1357.12350582 113.13098384 c 0
 1273.54720209 42.2378107863 1273.54720209 42.2378107863 1125.72939674 9.16076153045 c 0
 1001.56099281 -20 1001.56099281 -20 829 -20 c 0
 720.68966612 -20 720.68966612 -20 613.581575505 -8.88500946446 c 0
 405.313801544 12.7276840598 405.313801544 12.7276840598 248.987074391 54.8582913775 c 0
 173.925947679 75.0875312007 173.925947679 75.0875312007 137.843948875 92.6247416712 c 0
 117.479488441 102.806971888 117.479488441 102.806971888 107.22760776 119.36770222 c 0
 97 135.889222447 97 135.889222447 97 155.173556294 c 0
 97 174.45789014 97 174.45789014 108.629873392 189.666186114 c 0
 122.649848717 208 122.649848717 208 148 208 c 0
 159.091695468 208 159.091695468 208 171.473020098 203.14001681 c 0
 208.924777889 187.775193101 208.924777889 187.775193101 280.646314962 169.107943725 c 0
 438.76285582 127.954323502 438.76285582 127.954323502 639.142744596 106.861703631 c 0
 742.328929089 96 742.328929089 96 844 96 c 0
 942.184567867 96 942.184567867 96 1029.55103826 108.040188915 c 0
 1209.74173409 132.872713439 1209.74173409 132.872713439 1281.91258098 219.581802219 c 0
 1317 261.737302144 1317 261.737302144 1317 324.980716253 c 0
 1317 376.312436909 1317 376.312436909 1287.43936462 409.420773411 c 0
 1230.11186572 473.628396141 1230.11186572 473.628396141 1072.06870353 497.487069979 c 0
 994.100739727 509.257349645 994.100739727 509.257349645 906.36330112 515.405474879 c 0
 818.625862513 521.553600113 818.625862513 521.553600113 724.52457887 524.896951991 c 0
 513.806051823 532.38363183 513.806051823 532.38363183 371.315781812 558.196546456 c 0
 241.365423722 581.737785437 241.365423722 581.737785437 169.349245304 636.852991224 c 0
 112.698456912 680.208802775 112.698456912 680.208802775 94.8034592415 737.61519702 c 0
 85 769.064278856 85 769.064278856 85 805.840220386 c 0
 85 872.434592533 85 872.434592533 111.423219865 923.905075643 c 0
 162.188938608 1022.79295087 162.188938608 1022.79295087 290.057704092 1072.65293749 c 0
 449.950284377 1135 449.950284377 1135 716 1135 c 0
 898.674740576 1135 898.674740576 1135 1072.5347371 1103.08898798 c 0
 1152.62755329 1088.38840779 1152.62755329 1088.38840779 1217.1891382 1070.45463421 c 0
 1281.75072312 1052.52086062 1281.75072312 1052.52086062 1321.91906823 1033.49374977 c 0
 1337.308879 1025.79884439 1337.308879 1025.79884439 1344.6544395 1012.02591845 c 0
 1352 998.252992515 1352 998.252992515 1352 984 c 0
 1352 961.307945095 1352 961.307945095 1337.11092691 942.500694877 c 0
 1320.08954347 921 1320.08954347 921 1291 921 c 0
 1275.42239351 921 1275.42239351 921 1263.23703953 927.393983105 c 0
 1158.85811997 970.508821193 1158.85811997 970.508821193 1015.86659845 994.340741448 c 0
 867.911047135 1019 867.911047135 1019 720 1019 c 0
 617.590977666 1019 617.590977666 1019 524.917519709 1007.84613827 c 0
 332.850914362 984.729655881 332.850914362 984.729655881 256.536605396 904.406016559 c 0
 220 865.949884889 220 865.949884889 220 806.520463477 c 0
 220 763.975396459 220 763.975396459 247.174203125 738.083189798 c 0
 306.028613039 682.005352396 306.028613039 682.005352396 464.319534731 661.959226063 c 0
 542.519854315 652.055856565 542.519854315 652.055856565 630.484078495 646.373528501 c 0
 718.448302674 640.691200437 718.448302674 640.691200437 812.772259935 636.38857847 c 0
 1018.26264154 627.015059211 1018.26264154 627.015059211 1166.7140261 593.891184223 c 0
 1249.1183859 575.504345187 1249.1183859 575.504345187 1311.17726141 542.431003506 c 0
 1375.43035783 508.188284891 1375.43035783 508.188284891 1413.28501624 454.346467234 c 0
EndSplineSet
EndChar

StartChar: T
Encoding: 84 84 55
Width: 1343
Flags: W
LayerCount: 2
Fore
SplineSet
1350 1051.07152484 m 0
 1350 1026.37956206 1350 1026.37956206 1334.03900131 1012.47966314 c 0
 1327.05167788 1006.39463729 1327.05167788 1006.39463729 1318.6481598 1003.69350648 c 0
 1300.93502853 998 1300.93502853 998 1275 998 c 2
 741 998 l 1
 741 95.0988743453 l 2
 741 79.9008393767 741 79.9008393767 739.804685142 65.1165773158 c 0
 737.504125773 36.6620890379 737.504125773 36.6620890379 720.406971049 18.6907018028 c 0
 703.489251139 -1.42108547152e-14 703.489251139 -1.42108547152e-14 674 0 c 0
 643.519899177 0 643.519899177 0 626.531250778 20.6597550116 c 0
 619.833344721 28.4085981972 619.833344721 28.4085981972 616.104170331 37.7995101022 c 0
 606 63.244116209 606 63.244116209 606 95.1872298213 c 2
 606 998 l 1
 71 998 l 2
 28.071867378 998 28.071867378 998 10.5427823824 1011.78939371 c 0
 -7 1025.58956258 -7 1025.58956258 -7 1051.21831184 c 0
 -7 1076.84706109 -7 1076.84706109 5.73716609704 1090.49402477 c 0
 18.4743321941 1104.14098844 18.4743321941 1104.14098844 33.7505911512 1108.50563386 c 0
 49.0268501083 1112.87027928 49.0268501083 1112.87027928 60.7800027659 1113.30558123 c 0
 79.5293096134 1114 79.5293096134 1114 92 1114 c 2
 1253 1114 l 2
 1284.67982512 1114 1284.67982512 1114 1294.55306598 1112.46476232 c 0
 1304.42630685 1110.92952463 1304.42630685 1110.92952463 1311.02722389 1108.84502452 c 0
 1327.76267355 1103.56014568 1327.76267355 1103.56014568 1338.88133677 1089.66181664 c 0
 1350 1075.76348761 1350 1075.76348761 1350 1051.07152484 c 0
EndSplineSet
EndChar

StartChar: U
Encoding: 85 85 56
Width: 1586
Flags: W
LayerCount: 2
Fore
SplineSet
435.15399038 159.66085356 m 0
 476.050075312 138.346779643 476.050075312 138.346779643 527.944593335 124.065170765 c 0
 633.557556202 95 633.557556202 95 793.5 95 c 0
 953.442443798 95 953.442443798 95 1059.05540667 124.08350379 c 0
 1162.03995726 152.443200233 1162.03995726 152.443200233 1222.8809842 209.090687947 c 0
 1283.72201115 265.738175661 1283.72201115 265.738175661 1309.36100557 353.057422495 c 0
 1335 440.376669329 1335 440.376669329 1335 561.918975537 c 2
 1335 1023.12057586 l 2
 1335 1052.10554912 1335 1052.10554912 1344.49694438 1076.99194655 c 0
 1352.11662338 1096.95903829 1352.11662338 1096.95903829 1369.93884084 1106.47801364 c 0
 1383.35874832 1114 1383.35874832 1114 1401 1114 c 0
 1423.93061344 1114 1423.93061344 1114 1438.46677508 1103.73918002 c 0
 1463.7111471 1086.69986183 1463.7111471 1086.69986183 1468.32095514 1049.96681845 c 0
 1470 1036.58742666 1470 1036.58742666 1470 1022.71034889 c 2
 1470 559.902539613 l 2
 1470 406.477591021 1470 406.477591021 1427.62764342 295.931041882 c 0
 1343.38317795 76.1430552458 1343.38317795 76.1430552458 1085.8275573 11.8091021014 c 0
 960.230213322 -21 960.230213322 -21 793.49365436 -21 c 0
 626.757095398 -21 626.757095398 -21 500.448146023 12.1302162295 c 0
 374.139196648 43.8090177171 374.139196648 43.8090177171 287.455951357 114.565107116 c 0
 116 254.517788646 116 254.517788646 116 559.902921138 c 2
 116 1022.69917377 l 2
 116 1036.57590502 116 1036.57590502 117.846898842 1051.29246602 c 0
 119.693797684 1066.00902702 119.693797684 1066.00902702 127.068619502 1080.11249768 c 0
 134.44344132 1094.21596835 134.44344132 1094.21596835 148.106425284 1103.43790969 c 0
 163.069386555 1114 163.069386555 1114 183.391794197 1114 c 0
 216.171977461 1114 216.171977461 1114 232.423325088 1093.11261915 c 0
 238.817504544 1085.2864177 238.817504544 1085.2864177 242.169658666 1075.92251285 c 0
 251 1051.25584389 251 1051.25584389 251 1022.53552747 c 2
 251 561.624649344 l 2
 251 373.172259788 251 373.172259788 312.042449246 272.849541537 c 0
 355.725260915 201.05723206 355.725260915 201.05723206 435.15399038 159.66085356 c 0
EndSplineSet
EndChar

StartChar: V
Encoding: 86 86 57
Width: 1427
Flags: W
LayerCount: 2
Fore
SplineSet
1369.44805652 996.225037834 m 2
 786.465928646 45.6469402758 l 2
 772.277647274 23.4432916907 772.277647274 23.4432916907 753.245494274 11.9832074442 c 0
 734.213341275 1.7763568394e-15 734.213341275 1.7763568394e-15 712.393102797 0 c 0
 690.57286432 0 690.57286432 0 672.061432544 12.7470513899 c 0
 653.550000768 24.9400050308 653.550000768 24.9400050308 640.438513139 45.8425855494 c 2
 55.2762913093 996.898354863 l 2
 46.6282634906 1011.37454613 46.6282634906 1011.37454613 39.8141317453 1026.19043749 c 0
 33 1041.00632884 33 1041.00632884 33 1057.52118458 c 0
 33 1066.34502634 33 1066.34502634 36.0896999507 1073.87465798 c 0
 39.1793999014 1081.40428963 39.1793999014 1081.40428963 44.9277357327 1089.9956383 c 0
 60.3195911646 1113 60.3195911646 1113 91 1113 c 2
 92.4832509428 1113 l 1
 120.917019399 1109.65485077 120.917019399 1109.65485077 138.826255404 1087.85230259 c 0
 151.625149894 1072.27103973 151.625149894 1072.27103973 163.573371017 1051.63320325 c 2
 713.981129552 114.400411616 l 1
 1263.34844135 1051.49911386 l 2
 1275.50580032 1072.49818845 1275.50580032 1072.49818845 1289.01265423 1088.25618468 c 0
 1307.15430824 1109.42144769 1307.15430824 1109.42144769 1332.20417438 1113 c 1
 1334 1113 l 2
 1348.42610798 1113 1348.42610798 1113 1361.17820026 1107.33553534 c 0
 1378.4450221 1100.00046022 1378.4450221 1100.00046022 1388.21961965 1079.73910078 c 0
 1394 1067.75718916 1394 1067.75718916 1394 1057.28883523 c 0
 1394 1039.00388777 1394 1039.00388777 1384.69553015 1021.89179909 c 0
 1377.83737452 1009.27878953 1377.83737452 1009.27878953 1369.44805652 996.225037834 c 2
EndSplineSet
EndChar

StartChar: W
Encoding: 87 87 58
Width: 1792
Flags: W
LayerCount: 2
Fore
SplineSet
860.876069579 1103.78229481 m 0
 874.830535519 1114 874.830535519 1114 893 1114 c 0
 929.757740859 1114 929.757740859 1114 946.636061977 1087.35001929 c 0
 957.603427004 1070.03312714 957.603427004 1070.03312714 967.56382281 1042.36536101 c 2
 1276.07073853 174.457351123 l 1
 1586.60691054 1042.84293393 l 1
 1601.57752453 1080.26946891 1601.57752453 1080.26946891 1613.90834244 1094.79461951 c 0
 1630.21234204 1114 1630.21234204 1114 1655 1114 c 0
 1688.21026215 1114 1688.21026215 1114 1703.17018659 1092.05877748 c 0
 1715 1075.46799482 1715 1075.46799482 1715 1057.57867433 c 0
 1715 1043.62848532 1715 1043.62848532 1711.82130198 1033.20723014 c 0
 1706.79901132 1016.7418181 1706.79901132 1016.7418181 1701.52593845 1002.62361704 c 2
 1347.56721504 64.2927797933 l 1
 1336.05953439 41.2846928311 1336.05953439 41.2846928311 1326.70481881 26.3760917186 c 0
 1310.15458488 1.27897692437e-13 1310.15458488 1.27897692437e-13 1276 0 c 0
 1255.00760095 0 1255.00760095 0 1238.98743454 11.9346983858 c 0
 1230.83903538 18.0050901505 1230.83903538 18.0050901505 1226.1977327 25.3334628077 c 0
 1221.55643001 32.6618354649 1221.55643001 32.6618354649 1218.05119991 39.5400477662 c 0
 1211.31016657 52.7677837581 1211.31016657 52.7677837581 1205.4249276 69.6653243986 c 2
 895.070687258 931.966926302 l 1
 586.582763188 69.687427696 l 2
 572.831771781 30.2111498182 572.831771781 30.2111498182 554.13152687 14.4992388937 c 0
 536.874598693 4.97379915032e-14 536.874598693 4.97379915032e-14 514 0 c 0
 480.242259141 0 480.242259141 0 463.363938023 25.4838652905 c 0
 452.348810869 42.1151412693 452.348810869 42.1151412693 443.423589617 66.6206727043 c 0
 85.7068977454 1017.98685519 85.7068977454 1017.98685519 82.408341735 1026.39811401 c 0
 76 1042.73927081 76 1042.73927081 76 1057.60508107 c 0
 76 1075.89319802 76 1075.89319802 88.7687133238 1092.68194316 c 0
 104.272754664 1114 104.272754664 1114 137 1114 c 0
 151.625096407 1114 151.625096407 1114 165.100780373 1106.90753475 c 0
 178.576464339 1099.81506951 178.576464339 1099.81506951 188.129229026 1082.2178714 c 0
 199.287610138 1061.66295883 199.287610138 1061.66295883 206.57171212 1042.3431329 c 2
 514.106285272 174.556754284 l 1
 824.606910541 1042.84293393 l 2
 833.318006287 1064.62067329 833.318006287 1064.62067329 841.869828001 1080.37402908 c 0
 850.421649715 1096.12738487 850.421649715 1096.12738487 860.876069579 1103.78229481 c 0
EndSplineSet
EndChar

StartChar: X
Encoding: 88 88 59
Width: 1435
Flags: W
LayerCount: 2
Fore
SplineSet
149.325796875 1003.54691729 m 2
 124 1027.75199246 124 1027.75199246 124 1055.80166777 c 0
 124 1078.34438006 124 1078.34438006 139.414467286 1094.71365063 c 0
 147.339396979 1103.51912807 147.339396979 1103.51912807 158.243398852 1108.25956403 c 0
 169.147400724 1113 169.147400724 1113 183.012446672 1113 c 0
 196.87749262 1113 196.87749262 1113 211.359751715 1105.75318869 c 0
 225.84201081 1098.50637738 225.84201081 1098.50637738 238.692129355 1085.65625883 c 2
 717.000000322 606.384057482 l 1
 1195.32579687 1085.67420313 l 2
 1222.65159375 1113 1222.65159375 1113 1253 1113 c 0
 1278.59412581 1112.12125623 1278.59412581 1112.12125623 1294.55485818 1094.17709006 c 0
 1309 1077.18280557 1309 1077.18280557 1309 1054 c 0
 1309 1041.17434242 1309 1041.17434242 1304.60692596 1030.19165732 c 0
 1297.31827592 1011.97003222 1297.31827592 1011.97003222 1284.6203163 999.272072607 c 2
 805.049052547 522.589792368 l 1
 1292.94820588 68.3717420566 l 2
 1309.79597909 52.8199514071 1309.79597909 52.8199514071 1317.39514773 35.5491135866 c 0
 1325 18.2653584185 1325 18.2653584185 1325 3 c 0
 1325 10.3401312039 1325 10.3401312039 1310.41210841 15.5604176996 c 0
 1295.82421681 0 1295.82421681 0 1273 0 c 0
 1241.01669472 0 1241.01669472 0 1208.83581249 30.8290568444 c 2
 717.017954613 488.828397974 l 1
 225.049894496 29.7226445079 l 2
 206.686862117 12.5838142878 206.686862117 12.5838142878 191.306644654 6.29190714391 c 0
 175.926427191 -8.881784197e-16 175.926427191 -8.881784197e-16 161 0 c 0
 137.65159375 0 137.65159375 0 122.825796875 14.825796875 c 0
 108 28.995519927 108 28.995519927 108 50.3549604945 c 0
 107.998249687 82.5164315746 107.998249687 82.5164315746 140.691135322 112.512739602 c 2
 628.970405957 547.889040315 l 1
 149.325796875 1003.54691729 l 2
EndSplineSet
EndChar

StartChar: Y
Encoding: 89 89 60
Width: 1165
Flags: W
LayerCount: 2
Fore
SplineSet
26.2648839574 1041.16077424 m 0
 25 1048.43337328 25 1048.43337328 25 1056.85317668 c 0
 25 1081.0877486 25 1081.0877486 41.825796875 1097.17420313 c 0
 58.65159375 1114 58.65159375 1114 83 1114 c 0
 116.642867947 1114 116.642867947 1114 145.293080522 1079.89260408 c 2
 583 549.28071482 l 1
 1020.55552351 1079.70907374 l 2
 1047.03276205 1113 1047.03276205 1113 1082 1113 c 0
 1112.99828821 1113 1112.99828821 1113 1128.65423606 1091.6509802 c 0
 1140 1076.86108913 1140 1076.86108913 1140 1052.81534815 c 0
 1140 1028.76960716 1140 1028.76960716 1117.1568707 1003.02734451 c 2
 651 465.828567205 l 1
 651 90.1548356514 l 2
 651 58.0866709573 651 58.0866709573 641.917099383 34.9326750267 c 0
 634.364229621 15.6790111258 634.364229621 15.6790111258 616.206352268 6.72008356104 c 0
 603.186190369 0 603.186190369 0 583.402763573 0 c 0
 563.619336777 0 563.619336777 0 549.270142851 9.28477254077 c 0
 522.339346986 25.9448741445 522.339346986 25.9448741445 517.694014996 61.4745657815 c 0
 516 74.43119204 516 74.43119204 516 88.3654101516 c 2
 516 467.856954602 l 1
 41.0889438869 1010.83871671 l 2
 28.9893223205 1025.49629554 28.9893223205 1025.49629554 26.2648839574 1041.16077424 c 0
EndSplineSet
EndChar

StartChar: Z
Encoding: 90 90 61
Width: 1335
Flags: W
LayerCount: 2
Fore
SplineSet
1097.06980108 998 m 1
 120 998 l 2
 87.3417955229 998 87.3417955229 998 68.6708977614 1014.97354342 c 0
 50 1031.94708684 50 1031.94708684 50 1055.31894782 c 0
 50 1078.6908088 50 1078.6908088 68.4952906273 1096.3454044 c 0
 86.9905812547 1114 86.9905812547 1114 120 1114 c 2
 1208 1114 l 2
 1245.65018411 1114 1245.65018411 1114 1271.72004667 1108.45322073 c 0
 1294.89051479 1103.75978992 1294.89051479 1103.75978992 1306.35095478 1086.92937162 c 0
 1315 1074.22767351 1315 1074.22767351 1315 1056.61178246 c 0
 1315 1034.82026074 1315 1034.82026074 1298.38935852 1015.41225294 c 0
 1286.92638262 1002.01881923 1286.92638262 1002.01881923 1274.54095098 989.155496156 c 1
 237.975744358 116 l 1
 1212 116 l 2
 1244.38656952 116 1244.38656952 116 1264.19328476 98.6691241647 c 0
 1284 81.3382483294 1284 81.3382483294 1284 57.3171281953 c 0
 1284 33.2960080613 1284 33.2960080613 1264.02239516 16.6480040307 c 0
 1244.04479033 0 1244.04479033 0 1212 0 c 2
 120 0 l 2
 79.9031758749 0 79.9031758749 0 58.6660299049 5.3092864925 c 0
 37.4288839349 10.3639775223 37.4288839349 10.3639775223 27.9215154815 29.5983363154 c 0
 22 41.5781553294 22 41.5781553294 22 58.3294711084 c 0
 22 81.2975725452 22 81.2975725452 34.7687133238 98.0126459526 c 0
 44.4253769937 110.65384464 44.4253769937 110.65384464 62.4367425317 125.658055085 c 2
 1097.06980108 998 l 1
EndSplineSet
EndChar

StartChar: bracketleft
Encoding: 91 91 62
Width: 391
Flags: W
LayerCount: 2
Fore
SplineSet
212 1203 m 1
 212 -88.8362685269 l 1
 265 -88 l 2
 301.505817408 -88 301.505817408 -88 323.194244637 -96.0557015421 c 0
 357 -108.612124963 357 -108.612124963 357 -149 c 0
 357 -166.188996573 357 -166.188996573 350.530946454 -176.89373994 c 0
 338.977536134 -196.011883208 338.977536134 -196.011883208 317.872477092 -202.041900077 c 0
 293.519127363 -209 293.519127363 -209 261 -209 c 2
 154 -209 l 2
 121.067400073 -209 121.067400073 -209 104.376179587 -187.229470165 c 0
 91.644613717 -170.628018894 91.644613717 -170.628018894 90.5202579624 -142.526675324 c 0
 90 -129.523719909 90 -129.523719909 90 -114.019670074 c 2
 90 1277.6064266 l 2
 90 1310.24350712 90 1310.24350712 91.9959590504 1320 c 0
 93.9919181008 1318.52923849 93.9919181008 1318.52923849 96.9477602066 1317.47126034 c 0
 103.942865108 1314.96751763 103.942865108 1314.96751763 118.944636603 1313.50460577 c 0
 133.619336777 1323 133.619336777 1323 156 1323 c 2
 261 1323 l 2
 276.508215477 1323 276.508215477 1323 290.841713215 1322.42666009 c 0
 305.175210954 1321.85332018 305.175210954 1321.85332018 320.46534515 1317.26627992 c 0
 335.755479347 1312.67923966 335.755479347 1312.67923966 346.377739673 1299.15999925 c 0
 357 1285.64075883 357 1285.64075883 357 1265 c 0
 357 1231.15235613 357 1231.15235613 334.048698123 1215.60344058 c 0
 317.8883252 1204.65520439 317.8883252 1204.65520439 289.514664537 1203.52025796 c 0
 276.508215477 1203 276.508215477 1203 261 1203 c 2
 212 1203 l 1
EndSplineSet
EndChar

StartChar: backslash
Encoding: 92 92 63
Width: 644
Flags: W
LayerCount: 2
Fore
SplineSet
35.7070967854 1162.98045715 m 0
 51.7283258981 1174 51.7283258981 1174 84 1174 c 0
 101.497517974 1174 101.497517974 1174 113.156911948 1170.21563568 c 0
 124.816305923 1164.21591971 124.816305923 1164.21591971 131.606540346 1156.94812223 c 0
 138.396774769 1148.09529123 138.396774769 1148.09529123 142.617477179 1139.49719772 c 0
 146.838179589 1127.96717072 146.838179589 1127.96717072 151.785248004 1117.15573189 c 2
 604.902393809 36.6541423029 l 1
 621 -4.13795959362 621 -4.13795959362 621 -30.7194605467 c 0
 621 -44.0641188484 621 -44.0641188484 606.312693762 -54.4554301976 c 0
 591.625387524 -63 591.625387524 -63 560.451440205 -63 c 0
 529.277492887 -63 529.277492887 -63 511.392924068 -46.473790265 c 0
 499.668525412 -29.8387510785 499.668525412 -29.8387510785 490.819039472 -9.88613106922 c 2
 39.0941940825 1071.34648936 l 1
 22 1114.54700536 22 1114.54700536 22 1139.47869466 c 0
 22 1152.23257627 22 1152.23257627 35.7070967854 1162.98045715 c 0
EndSplineSet
EndChar

StartChar: bracketright
Encoding: 93 93 64
Width: 390
Flags: W
LayerCount: 2
Fore
SplineSet
46.825796875 -185.174203125 m 0
 33 -171.34840625 33 -171.34840625 33 -149 c 0
 33 -131.531023545 33 -131.531023545 41.2073241243 -118.56718203 c 0
 51.8480073301 -101.759739239 51.8480073301 -101.759739239 75.2408626025 -95.3798696197 c 0
 98.6337178749 -89 98.6337178749 -89 140 -89 c 2
 179 -89 l 1
 179 1203 l 1
 130 1203 l 2
 116.509756211 1203 116.509756211 1203 101.676625438 1203.57053407 c 0
 86.8434946656 1204.14106813 86.8434946656 1204.14106813 71.8599653156 1208.63612694 c 0
 56.8764359656 1213.13118574 56.8764359656 1213.13118574 44.9382179828 1226.90605265 c 0
 33 1240.68091955 33 1240.68091955 33 1263.74558173 c 0
 33 1286.81024391 33 1286.81024391 45.1605601132 1299.90623172 c 0
 57.3211202264 1313.00221954 57.3211202264 1313.00221954 72.082307446 1317.4305757 c 0
 86.8434946656 1321.85893187 86.8434946656 1321.85893187 101.676511363 1322.42943251 c 0
 116.50952806 1322.99993315 116.50952806 1322.99993315 130 1323 c 2
 234 1323 l 2
 270.116985446 1323 270.116985446 1323 287.547985652 1298.12955257 c 0
 298.492998069 1282.51327394 298.492998069 1282.51327394 299.479742038 1258.62927656 c 0
 300 1246.0365066 300 1246.0365066 300 1231.02154062 c 2
 300 -116.704937803 l 2
 300 -131.719903774 300 -131.719903774 299.411071689 -145.97482975 c 0
 298.822143378 -160.229755727 298.822143378 -160.229755727 293.270626738 -174.818897091 c 0
 287.719110098 -189.408038455 287.719110098 -189.408038455 273.240154196 -199.045717817 c 0
 258.761198293 -209 258.761198293 -209 236 -209 c 2
 130 -209 l 2
 116.026008191 -209 116.026008191 -209 100.641643668 -207.816587344 c 0
 66.8703925466 -205.218798797 66.8703925466 -205.218798797 46.825796875 -185.174203125 c 0
EndSplineSet
EndChar

StartChar: asciicircum
Encoding: 94 94 65
Width: 619
Flags: W
LayerCount: 2
Fore
SplineSet
594.252242597 1037.92569897 m 0
 605 1024.06731489 605 1024.06731489 605 1006.38805543 c 0
 605 993.62179963 605 993.62179963 593.523203975 976.973575119 c 0
 585.093675722 964.745713041 585.093675722 964.745713041 572.573669813 959.778464266 c 0
 560.053663903 904 560.053663903 904 547 904 c 0
 524.060683284 904 524.060683284 904 504.628257943 975.051794119 c 0
 492.969757688 987.681836062 492.969757688 987.681836062 475.754148068 1004.89744568 c 1
 311.748650779 1191.43117062 l 1
 190.984876162 1057.72842015 l 1
 169.41146717 1031.25200157 l 2
 137.506422561 991.984254359 137.506422561 991.984254359 111.275170396 970.610641484 c 0
 90.8893831207 904 90.8893831207 904 72 904 c 0
 45.6034321647 904 45.6034321647 904 29.8017160824 975 c 0
 14 993.065476838 14 993.065476838 14 1006.82964967 c 0
 14 1028.63588995 14 1028.63588995 30.825796875 1043.11046346 c 0
 38.8027027331 1049.97268289 38.8027027331 1049.97268289 48.3655696271 1061.47886621 c 0
 57.928436521 1072.98504953 57.928436521 1072.98504953 71.1931886407 1087.98255609 c 0
 148.213419034 1175.06382229 148.213419034 1175.06382229 216.325796875 1233.65823107 c 0
 262.182902557 1273.10730157 262.182902557 1273.10730157 287.649581799 1282.80940961 c 0
 299.370269767 1288 299.370269767 1288 307.491159098 1288 c 0
 315.61204843 1288 315.61204843 1288 321.107113628 1287.12093114 c 0
 340.250127538 1284.05854209 340.250127538 1284.05854209 364.409074013 1265.93933224 c 1
 383.358090968 1249.650492 l 1
 569.060266127 1063.4129377 l 1
 583.504485194 1051.78408305 583.504485194 1051.78408305 594.252242597 1037.92569897 c 0
EndSplineSet
EndChar

StartChar: underscore
Encoding: 95 95 66
Width: 1511
Flags: W
LayerCount: 2
Fore
SplineSet
1398.97440524 248.604901622 m 0
 1413 239.261372697 1413 239.261372697 1413 228.350943306 c 0
 1413 217.440513914 1413 217.440513914 1399.81617457 208.657752373 c 0
 1383.37767299 134 1383.37767299 134 1350 134 c 2
 160 134 l 2
 132.926437297 134 132.926437297 134 116.530636586 201.225686132 c 0
 113.052269022 203.284043658 113.052269022 203.284043658 110.328541269 205.720619753 c 0
 98 216.749412523 98 216.749412523 98 230.387584533 c 0
 98 244.025756542 98 244.025756542 110.328541269 255.054549312 c 0
 118.275416657 262.163617604 118.275416657 262.163617604 131.564129745 265.707736806 c 0
 144.852842832 272 144.852842832 272 160 272 c 2
 1350 272 l 2
 1365.08142008 272 1365.08142008 272 1378.34452804 265.827527738 c 0
 1391.60763601 259.655055475 1391.60763601 259.655055475 1398.97440524 248.604901622 c 0
EndSplineSet
EndChar

StartChar: grave
Encoding: 96 96 67
Width: 376
Flags: W
LayerCount: 2
Fore
SplineSet
119.078741765 1281.26966448 m 2
 371.138361131 1044.90522559 l 2
 386 1031.86766042 386 1031.86766042 386 1013.97278189 c 0
 386 996.077903354 386 996.077903354 370.4395823 983.587891593 c 0
 354.879164601 919 354.879164601 919 334 919 c 0
 319.831491537 919 319.831491537 919 304.464896566 978.604086445 c 1
 11.4003171844 1183.66995507 l 2
 -13 1200.49857628 -13 1200.49857628 -13 1224.6469804 c 0
 -13 1247.82003436 -13 1247.82003436 8.35071530442 1269.31338961 c 0
 22.5817758431 1283.63952507 22.5817758431 1283.63952507 40.952468987 1291.21401632 c 0
 59.3231621309 1300 59.3231621309 1300 76 1300 c 0
 100.34840625 1300 100.34840625 1300 119.078741765 1281.26966448 c 2
EndSplineSet
EndChar

StartChar: a
Encoding: 97 97 68
Width: 1191
Flags: W
LayerCount: 2
Fore
SplineSet
540 393 m 0
 464.868696533 393 464.868696533 393 406.203455024 384.956878208 c 0
 293.758243971 369.540415167 293.758243971 369.540415167 257.469867033 312.53281247 c 0
 239 283.517382996 239 283.517382996 239 239.623022094 c 0
 239 218.423835097 239 218.423835097 243.929876902 203.401913969 c 0
 248.859753804 188.379992841 248.859753804 188.379992841 258.584986637 176.307290014 c 0
 300.655399993 124.081949297 300.655399993 124.081949297 415.402408054 107.475902844 c 0
 473.970502198 99 473.970502198 99 544 99 c 0
 629.701163272 99 629.701163272 99 695.458656219 110.140456693 c 0
 761.319591764 121.298438351 761.319591764 121.298438351 810.044804704 138.028356568 c 0
 858.770017643 154.758274786 858.770017643 154.758274786 891.507099286 174.154225979 c 0
 918.628801165 190.223196684 918.628801165 190.223196684 938 205.281240941 c 1
 938 360.028660535 l 1
 848.339037555 371.378875811 848.339037555 371.378875811 747.933023648 382.189437906 c 0
 647.527009741 393 647.527009741 393 540 393 c 0
753.997298133 667.63388735 m 0
 699.545860613 677 699.545860613 677 639 677 c 0
 543.931332235 677 543.931332235 677 493.653760055 673.303119693 c 0
 443.376187874 669.606239385 443.376187874 669.606239385 414.767886256 666.413776535 c 0
 386.159584638 663.221313686 386.159584638 663.221313686 362.592327497 659.333931065 c 0
 286.798308852 646.831824896 286.798308852 646.831824896 223.376573029 624 c 1
 219 624 l 2
 195.296008061 624 195.296008061 624 178.648004031 643.977604837 c 0
 162 663.955209674 162 663.955209674 162 687 c 0
 162 699.092293325 162 699.092293325 168.040981132 710.293279174 c 0
 174.081962264 721.494265023 174.081962264 721.494265023 185.896442875 727.401505329 c 0
 197.710923485 733.308745634 197.710923485 733.308745634 228.922242987 742.830843109 c 0
 260.133562489 752.352940584 260.133562489 752.352940584 301.341770306 759.670285897 c 0
 342.549978124 766.987631211 342.549978124 766.987631211 376.286064707 771.172749623 c 0
 410.02215129 775.357868034 410.02215129 775.357868034 450.282775759 778.902828679 c 0
 530.886364328 786 530.886364328 786 640 786 c 0
 761.595547697 786 761.595547697 786 844.409692021 754.363135876 c 0
 892.392835403 737.1719473 892.392835403 737.1719473 933.847127875 706.877828026 c 0
 1019.14594347 644.542847992 1019.14594347 644.542847992 1052.32742643 513.26003292 c 0
 1069 447.294856062 1069 447.294856062 1069 359.192345042 c 2
 1069 89.0947069947 l 2
 1069 54.8879270559 1069 54.8879270559 1061.27966889 37.9935955944 c 0
 1043.91744662 1.27897692437e-13 1043.91744662 1.27897692437e-13 1003 0 c 0
 986.214825399 0 986.214825399 0 973.169043701 7.35466887681 c 0
 938 27.1815123056 938 27.1815123056 938 99 c 2
 938 106.314472098 l 1
 913.361032895 84.4132748299 913.361032895 84.4132748299 889.832551998 70.0352453762 c 0
 866.304071101 55.6572159226 866.304071101 55.6572159226 840.411100689 43.7675866516 c 0
 788.915072808 20.1214514001 788.915072808 20.1214514001 718.230950542 5.04910179935 c 0
 647.655852448 -10 647.655852448 -10 555.263416457 -10 c 0
 358.60423553 -10 358.60423553 -10 244.423041207 43.951042396 c 0
 182.426840249 73.2444797793 182.426840249 73.2444797793 145.713420125 121.173347513 c 0
 109 169.102215246 109 169.102215246 109 236.942271881 c 0
 109 313.414252867 109 313.414252867 143.3212473 365.449861313 c 0
 192.650794868 440.240063421 192.650794868 440.240063421 299.654970294 473.709549475 c 0
 333.255973911 484.219497498 333.255973911 484.219497498 371.394071227 490.238131541 c 0
 445.925149314 502 445.925149314 502 532 502 c 0
 740.45312876 502 740.45312876 502 889.870950183 462.679520678 c 0
 915.516604464 455.930664288 915.516604464 455.930664288 936.875887065 447.935562941 c 1
 932.655203973 513.408952936 932.655203973 513.408952936 913.067069546 555.407549616 c 0
 888.651254822 604.465251423 888.651254822 604.465251423 848.809150934 631.192662782 c 0
 808.448735653 658.267774699 808.448735653 658.267774699 753.997298133 667.63388735 c 0
EndSplineSet
EndChar

StartChar: b
Encoding: 98 98 69
Width: 1255
Flags: W
LayerCount: 2
Fore
SplineSet
421.719944065 748.921661274 m 0
 543.548771308 786 543.548771308 786 689 786 c 0
 781.855455206 786 781.855455206 786 866.275438045 766.599134378 c 0
 950.695420885 748.404349735 950.695420885 748.404349735 1015.39892884 703.269627089 c 0
 1080.9344177 657.554545992 1080.9344177 657.554545992 1118.96720885 582.19870503 c 0
 1157 506.842864067 1157 506.842864067 1157 396.537749427 c 0
 1157 286.232634786 1157 286.232634786 1125.54513514 208.734130233 c 0
 1063.6596969 56.2607707822 1063.6596969 56.2607707822 883.813664138 12.3054771624 c 0
 798.222879678 -10 798.222879678 -10 689 -10 c 0
 540.169405337 -10 540.169405337 -10 409.769704625 26.4179344329 c 0
 352.651440517 42.3698820667 352.651440517 42.3698820667 307.107564891 62.0365556326 c 0
 284.062579625 71.9877992701 284.062579625 71.9877992701 263.70015895 81.6741915807 c 1
 263.432704516 74.6511668948 263.432704516 74.6511668948 262.532939602 62.9542230198 c 0
 261.633174689 51.2572791447 261.633174689 51.2572791447 255.625021582 36.2368963769 c 0
 249.616868474 21.2165136091 249.616868474 21.2165136091 235.979002409 10.9881140603 c 0
 221.328183662 -3.5527136788e-15 221.328183662 -3.5527136788e-15 198 0 c 0
 174.23651239 0 174.23651239 0 160.731530463 10.8039855415 c 0
 135.996906993 29.6749046728 135.996906993 29.6749046728 134.518734994 66.3267699817 c 0
 134 79.1890114309 134 79.1890114309 134 93.9601400816 c 2
 134 1040 l 2
 134 1085.80099265 134 1085.80099265 159.206034357 1101.67145873 c 0
 178.786658725 1114 178.786658725 1114 201.509034745 1114 c 0
 224.231410764 1114 224.231410764 1114 242.338118137 1100.61678151 c 0
 264 1084.60582535 264 1084.60582535 264 1040 c 2
 264 657.240423927 l 1
 321.107625495 718.30052084 321.107625495 718.30052084 421.719944065 748.921661274 c 0
559.016659109 106.820014419 m 0
 620.599272658 99 620.599272658 99 689 99 c 0
 781.407540259 99 781.407540259 99 845.283506553 117.649917166 c 0
 909.159472846 136.299834332 909.159472846 136.299834332 949.108630464 174.453524192 c 0
 989.057788083 212.607214053 989.057788083 212.607214053 1008.02889404 273.22221114 c 0
 1027 333.837208227 1027 333.837208227 1027 421 c 0
 1027 509.676969192 1027 509.676969192 1000.85412086 568.390522349 c 0
 974.70824172 627.104075506 974.70824172 627.104075506 930.289393461 661.551345584 c 0
 885.870545201 695.998615663 885.870545201 695.998615663 823.444674343 711.487741515 c 0
 761.018803484 726.976867367 761.018803484 726.976867367 689.211199219 726.999963114 c 0
 630.592050344 726.009945428 630.592050344 726.009945428 561.579043957 717.747822764 c 0
 492.56603757 709.485700099 492.56603757 709.485700099 430.788186123 688.576273456 c 0
 369.010334676 667.666846812 369.010334676 667.666846812 322.356735594 631.277039528 c 0
 280.047885339 598.276136329 280.047885339 598.276136329 264 545.380912295 c 1
 264 182.444695994 l 1
 330.028517251 158.416582688 330.028517251 158.416582688 359.596809582 149.641212343 c 0
 406.057840692 135.852362111 406.057840692 135.852362111 451.745943126 125.246195474 c 0
 497.43404556 114.640028838 497.43404556 114.640028838 559.016659109 106.820014419 c 0
EndSplineSet
EndChar

StartChar: c
Encoding: 99 99 70
Width: 1132
Flags: W
LayerCount: 2
Fore
SplineSet
720.974114435 670.247176628 m 0
 673.222006306 677 673.222006306 677 628 677 c 0
 459.366761839 677 459.366761839 677 369.044826079 639.041015029 c 0
 338.45625608 626.185764983 338.45625608 626.185764983 315.169135101 608.914471589 c 0
 269.070863785 574.724896607 269.070863785 574.724896607 247.460952937 520.857835133 c 0
 225 464.869379596 225 464.869379596 225 385.238853503 c 0
 225 305.148420508 225 305.148420508 249.239559077 251.268492052 c 0
 296.675845443 145.826651813 296.675845443 145.826651813 445.503172222 115.006597916 c 0
 522.797624288 99 522.797624288 99 627 99 c 0
 711.102325734 99 711.102325734 99 813.305307171 122.847362335 c 0
 857.092050409 133.064269091 857.092050409 133.064269091 893.714423727 145.592975752 c 0
 930.336797045 158.121682414 930.336797045 158.121682414 954.424642055 170.165604919 c 1
 974.927827299 177 974.927827299 177 982.556014472 177 c 0
 990.184201646 177 990.184201646 177 995.220345014 176.144755313 c 0
 1000.25648838 175.289510626 1000.25648838 175.289510626 1005.17625637 173.541764923 c 0
 1015.45990281 169.888503442 1015.45990281 169.888503442 1023.17420312 162.174203125 c 0
 1038 147.34840625 1038 147.34840625 1038 126 c 0
 1038 111.192053307 1038 111.192053307 1029.56427341 96.8513181033 c 0
 1020.79087292 81.9365372684 1020.79087292 81.9365372684 1003.35731553 72.726514886 c 0
 912.142541023 26.0825961048 912.142541023 26.0825961048 815.234997198 8.0412980524 c 0
 718.327453374 -10 718.327453374 -10 628 -10 c 0
 511.595306951 -10 511.595306951 -10 414.422491597 8.70706605744 c 0
 317.249676244 26.2562338363 317.249676244 26.2562338363 245.846947541 71.5831866361 c 0
 174.444218839 116.910139436 174.444218839 116.910139436 134.72210942 193.451295575 c 0
 95 269.992451713 95 269.992451713 95 384.464635152 c 0
 95 498.93681859 95 498.93681859 131.442539434 576.360048805 c 0
 202.763587246 727.883679973 202.763587246 727.883679973 407.553024225 766.509720401 c 0
 504.491520124 786 504.491520124 786 628 786 c 0
 718.327453374 786 718.327453374 786 814.596824635 768.077510669 c 0
 912.142541023 749.917403895 912.142541023 749.917403895 1003.65319128 703.122185013 c 0
 1028.31139489 689.67225577 1028.31139489 689.67225577 1035.77898269 665.030400792 c 0
 1038 657.701396035 1038 657.701396035 1038 648.808910161 c 0
 1038 639.916424287 1038 639.916424287 1034.16020104 630.444210059 c 0
 1030.32040208 620.971995832 1030.32040208 620.971995832 1022.978048 613.62964175 c 0
 1008.34840625 599 1008.34840625 599 985 599 c 0
 976.181607308 599 976.181607308 599 969.687039958 600.955892449 c 0
 955.843387262 605.125022478 955.843387262 605.125022478 948.829685385 608.631873416 c 0
 930.336797045 617.878317586 930.336797045 617.878317586 893.714423727 630.407024248 c 0
 816.918650598 656.679262423 816.918650598 656.679262423 720.974114435 670.247176628 c 0
EndSplineSet
EndChar

StartChar: d
Encoding: 100 100 71
Width: 1255
Flags: W
LayerCount: 2
Fore
SplineSet
833.514922306 27.651094293 m 0
 714.070071446 -10 714.070071446 -10 566 -10 c 0
 473.144544794 -10 473.144544794 -10 388.724561955 9.40086562151 c 0
 304.304579115 27.5956502645 304.304579115 27.5956502645 239.185080705 73.0205521361 c 0
 174.065582295 118.445454008 174.065582295 118.445454008 136.032791148 193.80129497 c 0
 98 269.157135933 98 269.157135933 98 379.462250573 c 0
 98 489.767365214 98 489.767365214 129.454864865 567.265869767 c 0
 191.340303102 719.739229218 191.340303102 719.739229218 371.186335862 763.694522838 c 0
 456.777120322 786 456.777120322 786 566 786 c 0
 674.062043014 786 674.062043014 786 752.203179171 773.147839448 c 0
 897.538971782 749.24392619 897.538971782 749.24392619 976.413839558 696.268268728 c 0
 984.062546195 691.131077703 984.062546195 691.131077703 991 686.198128504 c 1
 991 1018 l 2
 991 1031.49024379 991 1031.49024379 991.592274972 1046.88863811 c 0
 992.184549945 1062.28703244 992.184549945 1062.28703244 998.20554924 1077.33953068 c 0
 1004.22654854 1092.39202892 1004.22654854 1092.39202892 1017.73153046 1103.19601446 c 0
 1031.23651239 1114 1031.23651239 1114 1055 1114 c 0
 1086.87551759 1114 1086.87551759 1114 1104.21595 1093.04706857 c 0
 1117.74505352 1076.69947288 1117.74505352 1076.69947288 1119.91963579 1049.51719453 c 0
 1121 1036.01264186 1121 1036.01264186 1121 1020 c 2
 1121 76.094143243 l 2
 1121 34.8559976925 1121 34.8559976925 1100.71342825 17.8521831399 c 0
 1080.4268565 0 1080.4268565 0 1055.69103309 0 c 0
 1030.95520967 0 1030.95520967 0 1012.01071872 15.7870757975 c 0
 991 33.2960080613 991 33.2960080613 991 77 c 2
 991 119.759576073 l 1
 934.677969787 59.5394462164 934.677969787 59.5394462164 833.514922306 27.651094293 c 0
907.615861478 621.398031982 m 0
 886.416601619 630.3308575 886.416601619 630.3308575 860.730745027 638.732773208 c 0
 809.234231902 655.577427034 809.234231902 655.577427034 736.689609812 666.288713517 c 0
 664.144987722 677 664.144987722 677 568.868723731 677 c 0
 413.242740234 677 413.242740234 677 334.665813993 624.532421215 c 0
 271.976613066 582.673433521 271.976613066 582.673433521 247.364054966 504.033308858 c 0
 228 442.162791773 228 442.162791773 228 353.761896746 c 0
 228 265.36100172 228 265.36100172 254.130516669 207.14037686 c 0
 280.261033339 148.919752 280.261033339 148.919752 324.695244069 114.460568169 c 0
 369.129454799 80.0013843373 369.129454799 80.0013843373 431.555325658 64.5122584849 c 0
 493.981196517 49.0231326326 493.981196517 49.0231326326 565.788800783 49.0000368857 c 0
 624.407949657 49.9900545718 624.407949657 49.9900545718 694.002337005 58.3217813642 c 0
 762.43396243 66.5142999009 762.43396243 66.5142999009 824.990143641 87.687161234 c 0
 885.989665324 108.333153188 885.989665324 108.333153188 932.643264406 144.722960472 c 0
 974.952114661 177.723863671 974.952114661 177.723863671 991 230.619087705 c 1
 991 574.489799218 l 1
 951.196610481 603.034219785 951.196610481 603.034219785 907.615861478 621.398031982 c 0
EndSplineSet
EndChar

StartChar: e
Encoding: 101 101 72
Width: 1130
Flags: W
LayerCount: 2
Fore
SplineSet
602.65957414 677 m 0
 509.764205327 677 509.764205327 677 441.521962485 663.376209875 c 0
 339.34652076 642.978041293 339.34652076 642.978041293 286.566164008 587.709034424 c 0
 238.773112762 537.662489835 238.773112762 537.662489835 229.005932193 456 c 1
 931 456 l 1
 931 482.052845528 l 2
 931 568.999510825 931 568.999510825 861.573135425 618.005523537 c 0
 823.49190367 644.885742584 823.49190367 644.885742584 760.266770071 660.756279168 c 0
 695.554942953 677 695.554942953 677 602.65957414 677 c 0
308.527237206 163.477183717 m 0
 384.570045017 99 384.570045017 99 548 99 c 0
 640.882262682 99 640.882262682 99 709.810546892 110.649850852 c 0
 778.917550905 122.329907869 778.917550905 122.329907869 827.920721272 138.664297991 c 0
 876.923891639 154.998688114 876.923891639 154.998688114 907.969165188 172.192993464 c 0
 939.014438737 189.387298814 939.014438737 189.387298814 958.939153734 202.670442145 c 1
 971.935971866 207.002714856 971.935971866 207.002714856 978 207 c 0
 1000.08847642 207 1000.08847642 207 1016.54423821 188.812052761 c 0
 1033 170.624105522 1033 170.624105522 1033 148.557390105 c 0
 1033 126.490674688 1033 126.490674688 1014.2526983 111.936110285 c 0
 1003.34359496 101.503005575 1003.34359496 101.503005575 972.207662106 81.4493523185 c 0
 941.071729256 61.3956990617 941.071729256 61.3956990617 883.346367454 40.9294344228 c 0
 826.500617113 20.775032029 826.500617113 20.775032029 743.408030634 5.38751601451 c 0
 660.315444156 -10 660.315444156 -10 543.480642099 -10 c 0
 426.645840042 -10 426.645840042 -10 341.581491096 20.455137277 c 0
 255.188043627 49.4425186721 255.188043627 49.4425186721 200.153735126 102.029940888 c 0
 144.945269061 154.783777429 144.945269061 154.783777429 120.47263453 227.577000617 c 0
 96 300.370223804 96 300.370223804 96 385.52222592 c 0
 96 499.575771857 96 499.575771857 135.607104658 576.822002796 c 0
 175.214209316 654.068233735 175.214209316 654.068233735 244.417144959 700.823760828 c 0
 313.620080602 747.579287921 313.620080602 747.579287921 404.958536168 766.166506791 c 0
 496.296991735 786 496.296991735 786 600 786 c 0
 816.487766887 786 816.487766887 786 926.70903388 705.968727077 c 0
 1040 623.708556453 1040 623.708556453 1040 472.161925602 c 0
 1040 440.879232224 1040 440.879232224 1031.88706329 406.915978564 c 0
 1024.36206835 375.4140304 1024.36206835 375.4140304 1013.19558194 363.747283338 c 0
 1003.8662542 354 1003.8662542 354 991 354 c 2
 697 354 l 1
 227.007317239 363.47048589 l 1
 231.122258099 297.249850858 231.122258099 297.249850858 249.112368622 249.930405182 c 0
 269.576864087 196.50345452 269.576864087 196.50345452 308.527237206 163.477183717 c 0
EndSplineSet
EndChar

StartChar: f
Encoding: 102 102 73
Width: 689
Flags: W
LayerCount: 2
Fore
SplineSet
655 960 m 0
 637.922035104 960 637.922035104 960 625.964662258 966.020697107 c 0
 575.251884906 983.693727244 575.251884906 983.693727244 527.25425842 990.346863622 c 0
 479.256631934 997 479.256631934 997 426.715537474 997 c 0
 397.332203456 997 397.332203456 997 371.053853192 989.909016595 c 0
 335.681292744 980.364039967 335.681292744 980.364039967 317.139361177 948.528621775 c 0
 289 900.214975082 289 900.214975082 289 791 c 2
 289 751 l 1
 629 751 l 2
 654.34840625 751 654.34840625 751 669.174203125 736.174203125 c 0
 684 721.34840625 684 721.34840625 684 701.762094718 c 0
 684 682.175783187 684 682.175783187 668.4395823 667.587891593 c 0
 652.879164601 653 652.879164601 653 629 653 c 2
 289 653 l 1
 289 69.6050386872 l 2
 289 28.2333157095 289 28.2333157095 267.338118137 13.3832184925 c 0
 249.231410764 -7.1054273576e-15 249.231410764 -7.1054273576e-15 225.893064822 -3.5527136788e-15 c 0
 202.554718879 0 202.554718879 0 183.344473617 12.5605449787 c 0
 159 27.3253746128 159 27.3253746128 159 69.5506992992 c 2
 159 653 l 1
 96 653 l 2
 71.1427429788 653 71.1427429788 653 56.7226445079 668.450105504 c 0
 43 683.152938906 43 683.152938906 43 702 c 0
 43 720.847061094 43 720.847061094 57.0713714894 735.923530547 c 0
 71.1427429788 751 71.1427429788 751 96 751 c 2
 160 751 l 1
 160 791 l 2
 160 956.422967106 160 956.422967106 230.01149595 1033.32083971 c 0
 264.797032598 1071.52790455 264.797032598 1071.52790455 312.773702743 1088.26395227 c 0
 360.750372889 1105 360.750372889 1105 419 1105 c 0
 486.718430165 1105 486.718430165 1105 534.560935466 1097.17122641 c 0
 595.405471627 1087.21484776 595.405471627 1087.21484776 662.792515362 1064.75988139 c 0
 681.29931212 1058.77186269 681.29931212 1058.77186269 692.769062692 1048.85608076 c 0
 711 1033.09514141 711 1033.09514141 711 1010 c 0
 711 992.092595007 711 992.092595007 695.897602349 976.046297504 c 0
 680.795204699 960 680.795204699 960 655 960 c 0
EndSplineSet
EndChar

StartChar: g
Encoding: 103 103 74
Width: 1239
Flags: W
LayerCount: 2
Fore
SplineSet
804.457987901 650.140804292 m 0
 743.313721776 667 743.313721776 667 651.703410781 667 c 0
 470.004451831 667 470.004451831 667 376.454251212 631.612322788 c 0
 312.891224639 607.568035848 312.891224639 607.568035848 278.063815677 565.631185007 c 0
 226 502.939398931 226 502.939398931 226 383 c 0
 226 302.131014475 226 302.131014475 245.260962869 248.180134354 c 0
 268.213065061 183.890196082 268.213065061 183.890196082 324.382768663 150.011233424 c 0
 363.395922219 126.480306825 363.395922219 126.480306825 421.021754158 114.520796031 c 0
 495.807320144 99 495.807320144 99 606 99 c 0
 771.074481442 99 771.074481442 99 902.645381746 147.884980929 c 0
 940.951084592 162.117410356 940.951084592 162.117410356 975 181.444605626 c 1
 975 509.632454528 l 1
 968.540719578 531.50218366 968.540719578 531.50218366 952.599634333 558.033012843 c 0
 936.715935056 584.468334267 936.715935056 584.468334267 901.561791247 608.598555629 c 0
 865.602254026 633.281608584 865.602254026 633.281608584 804.457987901 650.140804292 c 0
347.697281387 -173.711691452 m 0
 363.571443032 -180.220549137 363.571443032 -180.220549137 378.118377606 -184.015401635 c 1
 419.342110757 -197.756646018 419.342110757 -197.756646018 477.368251578 -208.878323009 c 0
 535.3943924 -220 535.3943924 -220 619.439758199 -220 c 0
 786.317668623 -220 786.317668623 -220 879.758428062 -164.490637957 c 0
 924.916728553 -137.663924794 924.916728553 -137.663924794 949.958364277 -96.8065191398 c 0
 975 -55.9491134858 975 -55.9491134858 975 2 c 2
 975 75.6417832789 l 1
 863.768769205 12.1514958526 863.768769205 12.1514958526 706.13039656 -4.36300032922 c 0
 652.32267243 -10 652.32267243 -10 602 -10 c 0
 414.052734413 -10 414.052734413 -10 307.112463758 30.9192382076 c 0
 266.905211153 46.3039958575 266.905211153 46.3039958575 233.554634202 68.5399086808 c 0
 165.750768493 113.746948102 165.750768493 113.746948102 130.875384247 190.870620234 c 0
 96 267.994292366 96 267.994292366 96 382.972282864 c 0
 96 497.950273362 96 497.950273362 135.66537371 576.005529481 c 0
 175.33074742 654.0607856 175.33074742 654.0607856 248.225963104 700.891813445 c 0
 321.121178787 747.722841289 321.121178787 747.722841289 420.319121103 766.264283728 c 0
 519.517063418 786 519.517063418 786 632.562147134 786 c 0
 745.60723085 786 745.60723085 786 815.796084777 765.418305991 c 0
 885.984938704 744.836611983 885.984938704 744.836611983 929.863719395 713.958951497 c 0
 954.853063332 696.373857615 954.853063332 696.373857615 972.534580659 676.585182657 c 1
 973.964814127 701.772668339 973.964814127 701.772668339 978.898940969 720.75007927 c 0
 983.833067811 739.727490201 983.833067811 739.727490201 994.3419028 750.62877131 c 0
 1009.15976726 766 1009.15976726 766 1032.11955583 766 c 0
 1055.0793444 766 1055.0793444 766 1069.63993145 755.484020465 c 0
 1096.87031302 737.04145318 1096.87031302 737.04145318 1102.68532385 702.959274609 c 0
 1105 689.392798435 1105 689.392798435 1105 676.257355362 c 2
 1105 2 l 2
 1105 -169.39324876 1105 -169.39324876 974.322091147 -256.329598164 c 0
 848.553373922 -340 848.553373922 -340 621 -340 c 0
 427.588521673 -340 427.588521673 -340 304.928469887 -285.885271271 c 0
 271.336673076 -271.065360913 271.336673076 -271.065360913 244.227079436 -256.163677189 c 0
 229.5670945 -251.34323473 229.5670945 -251.34323473 212.010718717 -236.712924202 c 0
 200.824716512 -227.391255699 200.824716512 -227.391255699 194.412358256 -214.777293486 c 0
 188 -202.163331272 188 -202.163331272 188 -190.25388258 c 0
 188 -178.344433888 188 -178.344433888 190.690637084 -169.417414113 c 0
 196.656031798 -149.625374194 196.656031798 -149.625374194 213.781757459 -139.476796025 c 0
 227.733189312 -131.209280852 227.733189312 -131.209280852 234.607407513 -129.604640426 c 0
 241.481625714 -128 241.481625714 -128 246 -128 c 0
 250.400347125 -128 250.400347125 -128 254.752490599 -128.694412865 c 0
 259.104634072 -129.388825729 259.104634072 -129.388825729 263.242196026 -130.720448198 c 0
 270.926116605 -133.193421753 270.926116605 -133.193421753 278.945056313 -137.537014095 c 0
 337.900859122 -169.694879744 337.900859122 -169.694879744 347.697281387 -173.711691452 c 0
EndSplineSet
EndChar

StartChar: h
Encoding: 104 104 75
Width: 1198
Flags: W
LayerCount: 2
Fore
SplineSet
1076 416.239080719 m 2
 1076 91.7523953307 l 2
 1076 57.6853657881 1076 57.6853657881 1067.22217392 37.105252428 c 0
 1060.96884971 22.4439775193 1060.96884971 22.4439775193 1048.8603598 12.6024420999 c 0
 1034.31908045 -8.881784197e-15 1034.31908045 -8.881784197e-15 1011.72463814 -3.5527136788e-15 c 0
 989.130195822 0 989.130195822 0 975.377766616 11.1738487302 c 0
 949.937044028 30.4006085108 949.937044028 30.4006085108 947.07435272 65.0161524129 c 0
 946 78.0071806916 946 78.0071806916 946 91.0050980872 c 2
 946 412.83721882 l 2
 946 482.989908091 946 482.989908091 934.918541908 532.809130442 c 0
 923.837083816 582.628352793 923.837083816 582.628352793 894.802247241 613.665986013 c 0
 850.418549378 661.111231027 850.418549378 661.111231027 747.52961049 672.77332982 c 0
 710.239786632 677 710.239786632 677 659.011219317 677 c 0
 607.782652001 677 607.782652001 677 543.077313532 668.456355409 c 0
 478.371975062 659.912710819 478.371975062 659.912710819 421.0938972 639.194360079 c 0
 363.815819338 618.47600934 363.815819338 618.47600934 319.948727656 584.579119712 c 0
 280.064724688 553.760034274 280.064724688 553.760034274 264 507.653074536 c 1
 264 90.3287482806 l 2
 264 56.5014165341 264 56.5014165341 255.222173922 36.0661061663 c 0
 238.253529529 7.1054273576e-14 238.253529529 7.1054273576e-14 201 0 c 0
 169.841787825 0 169.841787825 0 151.402537655 23.4034232412 c 0
 137.199699283 40.5678979458 137.199699283 40.5678979458 135.07435272 66.8761716369 c 0
 134 80.1748806019 134 80.1748806019 134 93.4806418463 c 2
 134 1019 l 2
 134 1032.01264186 134 1032.01264186 135.212163232 1047.16468226 c 0
 136.424326464 1062.31672266 136.424326464 1062.31672266 143.105404436 1077.1635626 c 0
 149.786482408 1092.01040254 149.786482408 1092.01040254 164.164296134 1103.00520127 c 0
 178.54210986 1114 178.54210986 1114 201 1114 c 0
 233.706365931 1114 233.706365931 1114 250.422008117 1085.99327438 c 0
 264 1063.24361937 264 1063.24361937 264 1019 c 2
 264 662.375725015 l 1
 319.351784466 721.051261065 319.351784466 721.051261065 409.512276901 749.357462179 c 0
 526.225545518 786 526.225545518 786 664 786 c 0
 775.096824125 786 775.096824125 786 852.074402191 766.755605484 c 0
 932.397449479 747.923409404 932.397449479 747.923409404 982.789895022 703.260883978 c 0
 1033.18234056 658.598358552 1033.18234056 658.598358552 1055.0546245 586.292408184 c 0
 1076 517.050655194 1076 517.050655194 1076 416.239080719 c 2
EndSplineSet
EndChar

StartChar: i
Encoding: 105 105 76
Width: 476
Flags: W
LayerCount: 2
Fore
SplineSet
302 686.869140625 m 2,0,-1
 302 83.056640625 l 2,1,2
 302 69.8369140625 302 69.8369140625 300.787109375 56.7626953125 c 0,3,4
 297.666015625 23.107421875 297.666015625 23.107421875 273.223632812 8.7841796875 c 0,5,6
 259.168945312 0 259.168945312 0 238.387695312 0 c 128,-1,7
 217.607421875 0 217.607421875 0 201.647460938 7.9599609375 c 0,8,9
 185.688476562 15.4208984375 185.688476562 15.4208984375 179.41796875 32.07421875 c 0,10,11
 172 51.7734375 172 51.7734375 172 82.982421875 c 2,12,-1
 172 684.737304688 l 2,13,14
 172 712.577148438 172 712.577148438 180.690429688 733.522460938 c 0,15,16
 186.286132812 747.010742188 186.286132812 747.010742188 199.59765625 755.56640625 c 0,17,18
 214.814453125 766 214.814453125 766 239 766 c 0,19,20
 255.772460938 766 255.772460938 766 268.3046875 760.024414062 c 0,21,22
 286.919921875 751.702148438 286.919921875 751.702148438 294.021484375 733.263671875 c 0,23,24
 302 712.548828125 302 712.548828125 302 686.869140625 c 2,0,-1
181.576171875 912.071289062 m 128,-1,26
 159 933.142578125 159 933.142578125 159 966.625976562 c 128,-1,27
 159 1000.109375 159 1000.109375 181.205078125 1023.0546875 c 128,-1,28
 203.41015625 1046 203.41015625 1046 236.763671875 1046 c 128,-1,29
 270.116210938 1046 270.116210938 1046 293.55859375 1023.29101562 c 128,-1,30
 317 1000.58203125 317 1000.58203125 317 966.622070312 c 128,-1,31
 317 932.662109375 317 932.662109375 293.193359375 911.831054688 c 128,-1,32
 269.38671875 891 269.38671875 891 236.76953125 891 c 128,-1,25
 204.153320312 891 204.153320312 891 181.576171875 912.071289062 c 128,-1,26
EndSplineSet
EndChar

StartChar: j
Encoding: 106 106 77
Width: 533
Flags: W
LayerCount: 2
Fore
SplineSet
409 693.095703125 m 2,0,-1
 409 106.078125 l 2,1,2
 409 72.48828125 409 72.48828125 407.450195312 33.369140625 c 0,3,4
 403.954101562 -54.9013671875 403.954101562 -54.9013671875 368.495117188 -123.913085938 c 0,5,6
 348.284179688 -165.45703125 348.284179688 -165.45703125 311.970703125 -197.30078125 c 128,-1,7
 275.728515625 -229.083007812 275.728515625 -229.083007812 221.438476562 -247.541015625 c 128,-1,8
 167.1484375 -266 167.1484375 -266 91 -266 c 0,9,10
 77.470703125 -266 77.470703125 -266 63.1337890625 -265.40234375 c 0,11,12
 28.537109375 -263.9609375 28.537109375 -263.9609375 10.83203125 -241.426757812 c 0,13,14
 0 -227.640625 0 -227.640625 0 -206 c 128,-1,15
 0 -184.359375 0 -184.359375 10.494140625 -171.002929688 c 0,16,17
 27.7255859375 -149.072265625 27.7255859375 -149.072265625 64.943359375 -147.522460938 c 0,18,19
 77.470703125 -147 77.470703125 -147 91 -147 c 0,20,21
 167.098632812 -147 167.098632812 -147 204.357421875 -124.73046875 c 128,-1,22
 241.616210938 -102.4609375 241.616210938 -102.4609375 258.415039062 -66.708984375 c 128,-1,23
 275.213867188 -30.9580078125 275.213867188 -30.9580078125 277.106445312 18.2666015625 c 0,24,25
 279 64.4052734375 279 64.4052734375 279 112.686523438 c 2,26,-1
 279 693.826171875 l 2,27,28
 279 719.983398438 279 719.983398438 289.125 738.963867188 c 0,29,30
 303.546875 766 303.546875 766 345 766 c 0,31,32
 392.024414062 766 392.024414062 766 402.723632812 735.609375 c 0,33,34
 409 717.78125 409 717.78125 409 693.095703125 c 2,0,-1
342.76953125 891 m 128,-1,36
 310.153320312 891 310.153320312 891 287.576171875 912.071289062 c 128,-1,37
 265 933.142578125 265 933.142578125 265 966.625976562 c 128,-1,38
 265 1000.109375 265 1000.109375 287.205078125 1023.0546875 c 128,-1,39
 309.41015625 1046 309.41015625 1046 342.763671875 1046 c 128,-1,40
 376.116210938 1046 376.116210938 1046 399.55859375 1023.29101562 c 128,-1,41
 423 1000.58203125 423 1000.58203125 423 967 c 0,42,43
 423 950.68359375 423 950.68359375 416.732421875 936.188476562 c 128,-1,44
 410.463867188 921.693359375 410.463867188 921.693359375 398.75390625 911.446289062 c 0,45,35
 375.38671875 891 375.38671875 891 342.76953125 891 c 128,-1,36
EndSplineSet
EndChar

StartChar: k
Encoding: 107 107 78
Width: 1099
Flags: W
LayerCount: 2
Fore
SplineSet
1017 55.3125 m 1,0,-1
 1017 52.4111328125 l 2,1,2
 1017 28.3984375 1017 28.3984375 998.588867188 13.8701171875 c 0,3,4
 981.901367188 -0.1826171875 981.901367188 -0.1826171875 954.107421875 -0.181640625 c 0,5,6
 932.044921875 -0.181640625 932.044921875 -0.181640625 908.806640625 22.84765625 c 1,7,-1
 414.804764392 424.435546875 l 1,8,-1
 290 355.3359375 l 1,9,-1
 290 69 l 2,10,11
 290 34.0615234375 290 34.0615234375 267.69140625 16.04296875 c 0,12,13
 247.829101562 0 247.829101562 0 225.62890625 0 c 128,-1,14
 203.427734375 0 203.427734375 0 183.170898438 15.755859375 c 0,15,16
 160 32.9423828125 160 32.9423828125 160 66.533203125 c 2,17,-1
 160 1045 l 2,18,19
 160 1060.24023438 160 1060.24023438 166.482421875 1073.65234375 c 128,-1,20
 172.963867188 1087.06542969 172.963867188 1087.06542969 184.10546875 1094.74902344 c 0,21,22
 206.21875 1110 206.21875 1110 227 1110 c 0,23,24
 250.044921875 1110 250.044921875 1110 270.022460938 1093.3515625 c 128,-1,25
 290 1076.70410156 290 1076.70410156 290 1045 c 2,26,-1
 290 428.456054688 l 1,27,-1
 929.84375 771.375 l 2,28,29
 941.09375 777 941.09375 777 953.374023438 777 c 0,30,31
 978.555664062 777 978.555664062 777 994.5546875 758.176757812 c 0,32,33
 1009 742.252929688 1009 742.252929688 1009 723.33984375 c 0,34,35
 1009 709.841796875 1009 709.841796875 1001.00976562 699.283203125 c 128,-1,36
 993.018554688 688.725585938 993.018554688 688.725585938 980.157226562 680.926757812 c 2,37,-1
 538.231321989 452.485351562 l 1,38,-1
 996.673828125 96.1474609375 l 2,39,40
 1008.26855469 85.283203125 1008.26855469 85.283203125 1012.04199219 72.90625 c 0,41,42
 1014.15527344 65.974609375 1014.15527344 65.974609375 1017 55.3125 c 1,0,-1
EndSplineSet
EndChar

StartChar: l
Encoding: 108 108 79
Width: 449
Flags: W
LayerCount: 2
Fore
SplineSet
290 1019 m 2,0,-1
 290 90.556640625 l 2,1,2
 290 58.9423828125 290 58.9423828125 281.666015625 35.6767578125 c 0,3,4
 267.120117188 0 267.120117188 0 226 0 c 0,5,6
 203.239257812 0 203.239257812 0 189.016601562 9.7783203125 c 0,7,8
 164.262695312 25.9912109375 164.262695312 25.9912109375 161.086914062 62.29296875 c 0,9,10
 160 74.7216796875 160 74.7216796875 160 89.064453125 c 2,11,-1
 160 1017 l 2,12,13
 160 1032.97363281 160 1032.97363281 161.213867188 1048.75195312 c 128,-1,14
 162.427734375 1064.53027344 162.427734375 1064.53027344 169.319335938 1079.08007812 c 128,-1,15
 176.2109375 1093.62988281 176.2109375 1093.62988281 190.106445312 1103.4375 c 0,16,17
 205.069335938 1114 205.069335938 1114 228 1114 c 0,18,19
 260.706054688 1114 260.706054688 1114 277.421875 1085.99316406 c 0,20,21
 287.052734375 1069.85742188 287.052734375 1069.85742188 288.919921875 1046.51757812 c 0,22,23
 290 1033.01269531 290 1033.01269531 290 1019 c 2,0,-1
EndSplineSet
EndChar

StartChar: m
Encoding: 109 109 80
Width: 1730
Flags: W
LayerCount: 2
Fore
SplineSet
1453 72.5048828125 m 2,0,-1
 1453 478.911132812 l 2,1,2
 1453 595.03515625 1453 595.03515625 1412.48828125 639.124023438 c 0,3,4
 1393.67089844 659.602539062 1393.67089844 659.602539062 1363.90917969 668.30078125 c 128,-1,5
 1333.97224229 677 1333.97224229 677 1287.32345209 677 c 0,6,7
 1244.10777015 677 1244.10777015 677 1215.76063551 673.174804688 c 128,-1,8
 1187.41350087 669.349609375 1187.41350087 669.349609375 1169.87647808 665.58203125 c 128,-1,9
 1152.33945529 661.814453125 1152.33945529 661.814453125 1136.13357456 656.80859375 c 0,10,11
 1063.62760771 634.4140625 1063.62760771 634.4140625 1002.18043893 580.282226562 c 0,12,13
 968.286879023 550.422851562 968.286879023 550.422851562 940.739461518 512.272460938 c 1,14,-1
 940.739461518 72.650390625 l 2,15,16
 940.739461518 33.06640625 940.739461518 33.06640625 918.426837577 15.0693359375 c 0,17,18
 906.950122807 5.11328125 906.950122807 5.11328125 895.244327775 2.556640625 c 128,-1,19
 883.539564636 0 883.539564636 0 876.542297701 0 c 0,20,21
 865.000573667 0 865.000573667 0 855.329671777 1.220703125 c 0,22,23
 839.883264352 3.1689453125 839.883264352 3.1689453125 827.946325271 12.583984375 c 0,24,25
 803.373855498 30.6064453125 803.373855498 30.6064453125 803.373855498 72.4912109375 c 2,26,-1
 803.373855498 518.897460938 l 2,27,28
 803.373855498 595.2421875 803.373855498 595.2421875 764.419891952 637.19140625 c 0,29,30
 727.453354467 677 727.453354467 677 640.648445291 677 c 0,31,32
 569.052608133 677 569.052608133 677 507.880954809 662.896484375 c 0,33,34
 386.84765625 634.756835938 386.84765625 634.756835938 326.802734375 571.14453125 c 0,35,36
 299.751953125 542.486328125 299.751953125 542.486328125 289 511.830078125 c 1,37,-1
 289 73.2744140625 l 2,38,39
 289 51.6279296875 289 51.6279296875 285.448242188 41.15625 c 128,-1,40
 281.895507812 30.6845703125 281.895507812 30.6845703125 277.87890625 24.6748046875 c 0,41,42
 273.861328125 18.205078125 273.861328125 18.205078125 266.307617188 12.62109375 c 0,43,44
 249.231445312 0 249.231445312 0 229 0 c 1,45,-1
 210.873046875 1.1943359375 l 2,46,47
 196.159179688 3.033203125 196.159179688 3.033203125 184.27734375 12.173828125 c 0,48,49
 172.581054688 20.6015625 172.581054688 20.6015625 165.509765625 36.05859375 c 0,50,51
 159 50.2880859375 159 50.2880859375 159 72.9033203125 c 2,52,-1
 159 695.8828125 l 2,53,54
 159 738.52734375 159 738.52734375 183.344726562 753.439453125 c 0,55,56
 202.5546875 766 202.5546875 766 226.69921875 766 c 128,-1,57
 250.844726562 766 250.844726562 766 268.212890625 751.939453125 c 0,58,59
 288 735.921875 288 735.921875 288 692 c 2,60,-1
 288 659.196289062 l 1,61,62
 361.801757812 742.712890625 361.801757812 742.712890625 501.808264068 772.415039062 c 0,63,64
 566.955801406 786 566.955801406 786 638.535128275 786 c 0,65,66
 724.414429364 786 724.414429364 786 778.741535927 763.333984375 c 128,-1,67
 833.06864249 740.666992188 833.06864249 740.666992188 864.27308905 707.161132812 c 128,-1,68
 895.476503717 673.655273438 895.476503717 673.655273438 908.257531332 636.791015625 c 0,69,70
 909.150118841 634.216796875 909.150118841 634.216796875 910.007621986 631.6953125 c 1,71,72
 919.903476566 643.211914062 919.903476566 643.211914062 931.376063763 654.959960938 c 0,73,74
 966.06727702 690.481445312 966.06727702 690.481445312 1016.16774955 719.782226562 c 128,-1,75
 1066.22901015 749.060546875 1066.22901015 749.060546875 1133.04821427 767.50390625 c 128,-1,76
 1200.05522292 786 1200.05522292 786 1285.21013507 786 c 0,77,78
 1513.06542969 786 1513.06542969 786 1565.24316406 617.573242188 c 0,79,80
 1583 560.255859375 1583 560.255859375 1583 483.305664062 c 2,81,-1
 1583 72.5068359375 l 2,82,83
 1583 51.0498046875 1583 51.0498046875 1577.22265625 37.470703125 c 0,84,85
 1564.48632812 7.5400390625 1564.48632812 7.5400390625 1537.25488281 2.0546875 c 0,86,87
 1527.66894531 0 1527.66894531 0 1518.43652344 0 c 128,-1,88
 1509.20410156 0 1509.20410156 0 1497.83007812 1.625 c 128,-1,89
 1486.45507812 3.25 1486.45507812 3.25 1475.01074219 12.787109375 c 0,90,91
 1453 29.845703125 1453 29.845703125 1453 72.5048828125 c 2,0,-1
EndSplineSet
EndChar

StartChar: n
Encoding: 110 110 81
Width: 1292
Flags: W
LayerCount: 2
Fore
SplineSet
1145 415.673828125 m 2,0,-1
 1145 91.615234375 l 2,1,2
 1145 35.109375 1145 35.109375 1114.74804688 12.0888671875 c 0,3,4
 1099.87011719 0 1099.87011719 0 1079 0 c 0,5,6
 1054.68066406 0 1054.68066406 0 1041.35644531 11.5478515625 c 0,7,8
 1016.95410156 31.21875 1016.95410156 31.21875 1015.51855469 65.9375 c 0,9,10
 1015 78.48046875 1015 78.48046875 1015 91.0283203125 c 2,11,-1
 1015 412.84765625 l 2,12,13
 1015 526.7890625 1015 526.7890625 988.953125 578.7421875 c 0,14,15
 969.106445312 618.328125 969.106445312 618.328125 930.077148438 640.772460938 c 0,16,17
 863.463462747 677 863.463462747 677 716.524478042 677 c 0,18,19
 652.900639687 677 652.900639687 677 582.046696245 668.474609375 c 0,20,21
 429.393158157 650.10546875 429.393158157 650.10546875 344.153320312 584.858398438 c 0,22,23
 305.080078125 554.05078125 305.080078125 554.05078125 289 507.876953125 c 1,24,-1
 289 91.0927734375 l 2,25,26
 289 78.0966796875 289 78.0966796875 287.81640625 63.7890625 c 0,27,28
 285.0625 30.498046875 285.0625 30.498046875 262.860351562 12.6025390625 c 0,29,30
 248.319335938 -0 248.319335938 -0 226.430664062 -0 c 0,31,32
 189.958007812 -0 189.958007812 -0 171.737304688 29.837890625 c 0,33,34
 163.123046875 43.9453125 163.123046875 43.9453125 161.061523438 60.7158203125 c 128,-1,35
 159 77.4873046875 159 77.4873046875 159 91.056640625 c 2,36,-1
 159 699.350585938 l 2,37,38
 159 720.682617188 159 720.682617188 168.47265625 739.1015625 c 0,39,40
 182.305664062 766 182.305664062 766 226 766 c 0,41,42
 243.533203125 766 243.533203125 766 258.124023438 759.768554688 c 0,43,44
 280.350585938 750.274414062 280.350585938 750.274414062 286.830078125 717.872070312 c 0,45,46
 289 707.01953125 289 707.01953125 289 695 c 2,47,-1
 289 655.716796875 l 1,48,49
 324.559570312 696.5546875 324.559570312 696.5546875 382.704101562 727.353515625 c 0,50,51
 412.802484258 742.864257812 412.802484258 742.864257812 448.100172357 753.262695312 c 0,52,53
 517.184342518 773.614257812 517.184342518 773.614257812 588.640160975 779.880859375 c 0,54,55
 658.41637876 786 658.41637876 786 716.524478042 786 c 0,56,57
 885.155950844 786 885.155950844 786 971.973632812 750.541015625 c 0,58,59
 1089.2890625 704.916992188 1089.2890625 704.916992188 1124.59863281 585.35546875 c 0,60,61
 1145 516.274414062 1145 516.274414062 1145 415.673828125 c 2,0,-1
EndSplineSet
EndChar

StartChar: o
Encoding: 111 111 82
Width: 1340
Flags: W
LayerCount: 2
Fore
SplineSet
932.705314983 18.755859375 m 0,0,1
 824.375114682 -10 824.375114682 -10 670 -10 c 0,2,3
 370.905603342 -10 370.905603342 -10 242.083984375 95.3310546875 c 0,4,5
 178.6328125 147.284179688 178.6328125 147.284179688 150.81640625 220.634765625 c 128,-1,6
 123 293.986328125 123 293.986328125 123 384.4609375 c 0,7,8
 123 488.451171875 123 488.451171875 154.576171875 564.350585938 c 128,-1,9
 186.15234375 640.25 186.15234375 640.25 252.438476562 689.852539062 c 128,-1,10
 318.724609375 739.454101562 318.724609375 739.454101562 421.929123424 762.278320312 c 0,11,12
 527.091120097 786 527.091120097 786 670 786 c 128,-1,13
 812.908879903 786 812.908879903 786 919.356262048 761.98828125 c 0,14,15
 1071.72460938 727.862304688 1071.72460938 727.862304688 1145.13378906 633.759765625 c 0,16,17
 1217 541.634765625 1217 541.634765625 1217 385.338867188 c 0,18,19
 1217 295.078125 1217 295.078125 1189.18359375 221.900390625 c 128,-1,20
 1161.3671875 148.723632812 1161.3671875 148.723632812 1098.3046875 97.2119140625 c 128,-1,21
 1035.2421875 45.7001953125 1035.2421875 45.7001953125 932.705314983 18.755859375 c 0,0,1
389.173625205 143.134765625 m 0,22,23
 490.490114885 99 490.490114885 99 670 99 c 128,-1,24
 849.509885115 99 849.509885115 99 951.413158055 143.390625 c 0,25,26
 995.428710938 163.517578125 995.428710938 163.517578125 1021.06054688 190.005859375 c 0,27,28
 1071.16992188 241.7890625 1071.16992188 241.7890625 1081.72851562 313.34765625 c 0,29,30
 1087 349.076171875 1087 349.076171875 1087 380.844726562 c 128,-1,31
 1087 412.61328125 1087 412.61328125 1084.43066406 437.212890625 c 0,32,33
 1075.65332031 521.245117188 1075.65332031 521.245117188 1036.91992188 571.630859375 c 0,34,35
 986.665039062 637.002929688 986.665039062 637.002929688 868.783212599 660.578125 c 0,36,37
 785.693212028 677 785.693212028 677 669.464333975 677 c 0,38,39
 493.46982371 677 493.46982371 677 397.993478129 639.975585938 c 0,40,41
 365.7265625 627.35546875 365.7265625 627.35546875 342.646484375 610.278320312 c 0,42,43
 297.065429688 576.551757812 297.065429688 576.551757812 275.4609375 522.698242188 c 0,44,45
 253 466.709960938 253 466.709960938 253 385.239257812 c 0,46,47
 253 349.076171875 253 349.076171875 258.150390625 314.16796875 c 0,48,49
 268.830078125 241.7890625 268.830078125 241.7890625 319.172851562 189.764648438 c 0,50,51
 344.571289062 163.517578125 344.571289062 163.517578125 389.173625205 143.134765625 c 0,22,23
EndSplineSet
EndChar

StartChar: p
Encoding: 112 112 83
Width: 1355
Flags: W
LayerCount: 2
Fore
SplineSet
654.775550997 782.94140625 m 0,0,1
 703.854089274 786 703.854089274 786 743.092345902 786 c 0,2,3
 844.683370905 786 844.683370905 786 937.045258788 766.599609375 c 0,4,5
 1025.6953125 748.404296875 1025.6953125 748.404296875 1090.39941406 703.26953125 c 0,6,7
 1155.93457031 657.5546875 1155.93457031 657.5546875 1193.96679688 582.198242188 c 128,-1,8
 1232 506.842773438 1232 506.842773438 1232 396.538085938 c 128,-1,9
 1232 286.232421875 1232 286.232421875 1200.54492188 208.734375 c 0,10,11
 1138.66015625 56.2607421875 1138.66015625 56.2607421875 956.233273786 12.3056640625 c 0,12,13
 862.59033295 -10 862.59033295 -10 743.092345902 -10 c 0,14,15
 580.259724393 -10 580.259724393 -10 437.592735439 26.41796875 c 0,16,17
 377.651367188 42.3701171875 377.651367188 42.3701171875 332.107421875 62.0361328125 c 0,18,19
 309.106445312 71.96875 309.106445312 71.96875 288.778320312 81.63671875 c 1,20,-1
 287 -242 l 2,21,22
 287 -272.493164062 287 -272.493164062 285.033203125 -282.325195312 c 0,23,24
 279.305664062 -310.966796875 279.305664062 -310.966796875 261.099609375 -325.53125 c 0,25,26
 246.763671875 -337 246.763671875 -337 223 -337 c 0,27,28
 198.680664062 -337 198.680664062 -337 185.2734375 -325.379882812 c 0,29,30
 160.95703125 -304.305664062 160.95703125 -304.305664062 159.517578125 -265.439453125 c 0,31,32
 159 -251.470703125 159 -251.470703125 159 -236 c 2,33,-1
 159 694.931640625 l 2,34,35
 159 737.694335938 159 737.694335938 181.573242188 752.9140625 c 0,36,37
 200.046875 766 200.046875 766 224.115234375 766 c 128,-1,38
 248.182617188 766 248.182617188 766 265.176757812 751.5546875 c 0,39,40
 275.33984375 742.916992188 275.33984375 742.916992188 279.669921875 728.151367188 c 128,-1,41
 284 713.385742188 284 713.385742188 284 692 c 2,42,-1
 284 652.994140625 l 1,43,44
 343.366210938 715.96484375 343.366210938 715.96484375 448.688427613 748.325195312 c 0,45,46
 543.78337092 776.024414062 543.78337092 776.024414062 654.775550997 782.94140625 c 0,0,1
600.880510041 106.8203125 m 128,-1,48
 668.257057386 99 668.257057386 99 743.092345902 99 c 0,49,50
 844.192959475 99 844.192959475 99 914.078191001 117.650390625 c 128,-1,51
 983.963422527 136.299804688 983.963422527 136.299804688 1024.10839844 174.453125 c 128,-1,52
 1064.05761719 212.607421875 1064.05761719 212.607421875 1083.02929688 273.22265625 c 128,-1,53
 1102 333.836914062 1102 333.836914062 1102 421 c 0,54,55
 1102 509.676757812 1102 509.676757812 1075.85449219 568.390625 c 128,-1,56
 1049.70800781 627.104492188 1049.70800781 627.104492188 1005.2890625 661.551757812 c 0,57,58
 958.483396821 695.999023438 958.483396821 695.999023438 890.184790511 711.487304688 c 128,-1,59
 821.886184202 726.9765625 821.886184202 726.9765625 743.323127752 727 c 0,60,61
 679.189279083 726.009765625 679.189279083 726.009765625 603.684082141 717.748046875 c 128,-1,62
 528.1788852 709.485351562 528.1788852 709.485351562 460.588650958 688.576171875 c 0,63,64
 394.010742188 667.666992188 394.010742188 667.666992188 347.356445312 631.27734375 c 0,65,66
 305.047851562 598.276367188 305.047851562 598.276367188 289 545.380859375 c 1,67,-1
 289 182.444335938 l 1,68,69
 355.028320312 158.416992188 355.028320312 158.416992188 384.596679688 149.641601562 c 0,70,71
 433.531615945 135.852539062 433.531615945 135.852539062 483.518323538 125.24609375 c 128,-1,47
 533.503962696 114.639648438 533.503962696 114.639648438 600.880510041 106.8203125 c 128,-1,48
EndSplineSet
EndChar

StartChar: q
Encoding: 113 113 84
Width: 1297
Flags: W
LayerCount: 2
Fore
SplineSet
419.22510982 766.866210938 m 0,0,1
 464.82268853 776.443359375 464.82268853 776.443359375 513.001604967 781.221679688 c 128,-1,2
 561.179452969 786 561.179452969 786 596.390780006 786 c 0,3,4
 753.982730344 786 753.982730344 786 868.70374679 757.577148438 c 0,5,6
 973.713867188 731.01171875 973.713867188 731.01171875 1033.43066406 683.610351562 c 0,7,8
 1050.94042969 669.711914062 1050.94042969 669.711914062 1066 653.572265625 c 1,9,-1
 1066 689 l 2,10,11
 1066 706.607421875 1066 706.607421875 1068.1484375 714.793945312 c 128,-1,12
 1070.296875 722.98046875 1070.296875 722.98046875 1071.52050781 726.331054688 c 0,13,14
 1077.21875 741.935546875 1077.21875 741.935546875 1087.84667969 750.111328125 c 0,15,16
 1108.50292969 766 1108.50292969 766 1134 766 c 0,17,18
 1158.02441406 766 1158.02441406 766 1176.77441406 748.065429688 c 0,19,20
 1196 730.557617188 1196 730.557617188 1196 689.9296875 c 2,21,-1
 1196 -244 l 2,22,23
 1196 -260.012695312 1196 -260.012695312 1194.79003906 -275.134765625 c 0,24,25
 1191.9140625 -311.08203125 1191.9140625 -311.08203125 1167.13867188 -328.115234375 c 0,26,27
 1152.76074219 -338 1152.76074219 -338 1129.49902344 -338 c 128,-1,28
 1106.23632812 -338 1106.23632812 -338 1092.73144531 -327.196289062 c 0,29,30
 1068.03710938 -307.440429688 1068.03710938 -307.440429688 1066.52050781 -269.514648438 c 0,31,32
 1066 -256.5078125 1066 -256.5078125 1066 -242 c 2,33,-1
 1066 88.16015625 l 1,34,35
 1059.53613281 83.515625 1059.53613281 83.515625 1052.4140625 78.7314453125 c 0,36,37
 1016.33789062 54.501953125 1016.33789062 54.501953125 960.779296875 34.583984375 c 0,38,39
 900.984358022 14.6669921875 900.984358022 14.6669921875 814.961491966 2.3330078125 c 128,-1,40
 728.939694344 -10 728.939694344 -10 610.674680697 -10 c 128,-1,41
 492.40966705 -10 492.40966705 -10 397.448278054 12.619140625 c 0,42,43
 308.185546875 33.8330078125 308.185546875 33.8330078125 247.047851562 82.5439453125 c 0,44,45
 123 181.376953125 123 181.376953125 123 395.611328125 c 0,46,47
 123 506.860351562 123 506.860351562 161.033203125 582.215820312 c 128,-1,48
 199.065429688 657.571289062 199.065429688 657.571289062 264.185546875 702.99609375 c 128,-1,49
 329.3046875 748.420898438 329.3046875 748.420898438 419.22510982 766.866210938 c 0,0,1
279.145507812 568.390625 m 128,-1,51
 253 509.676757812 253 509.676757812 253 421.756835938 c 128,-1,52
 253 333.836914062 253 333.836914062 271.970703125 273.22265625 c 128,-1,53
 290.942382812 212.607421875 290.942382812 212.607421875 330.759765625 174.579101562 c 0,54,55
 371.036577473 136.299804688 371.036577473 136.299804688 440.921808999 117.650390625 c 128,-1,56
 510.807040525 99 510.807040525 99 615.039235587 99 c 128,-1,57
 719.272499083 99 719.272499083 99 798.227670991 109.727539062 c 0,58,59
 945.297678476 129.708984375 945.297678476 129.708984375 1018.65527344 171.240234375 c 0,60,61
 1046.02929688 186.828125 1046.02929688 186.828125 1066 201.400390625 c 1,62,-1
 1066 545.380859375 l 1,63,64
 1049.95214844 598.276367188 1049.95214844 598.276367188 1007.64355469 631.27734375 c 0,65,66
 960.989257812 667.666992188 960.989257812 667.666992188 894.411349042 688.576171875 c 0,67,68
 826.8211148 709.485351562 826.8211148 709.485351562 751.315917859 717.748046875 c 128,-1,69
 675.810720917 726.009765625 675.810720917 726.009765625 611.676872248 727 c 0,70,71
 533.113815798 726.9765625 533.113815798 726.9765625 463.695490144 711.233398438 c 0,72,73
 396.516603179 695.999023438 396.516603179 695.999023438 349.30078125 661.233398438 c 0,74,50
 305.291992188 627.104492188 305.291992188 627.104492188 279.145507812 568.390625 c 128,-1,51
EndSplineSet
EndChar

StartChar: r
Encoding: 114 114 85
Width: 909
Flags: W
LayerCount: 2
Fore
SplineSet
530.714661206 778.659179688 m 128,-1,1
 599.972941129 786 599.972941129 786 645.211914062 786 c 0,2,3
 685.149414062 786 685.149414062 786 713.788085938 783.396484375 c 0,4,5
 764.266601562 778.807617188 764.266601562 778.807617188 800.44921875 769.159179688 c 0,6,7
 815.595703125 765.120117188 815.595703125 765.120117188 829.75 761.077148438 c 0,8,9
 850.4375 760.495117188 850.4375 760.495117188 860.564453125 758.741210938 c 0,10,11
 869 757.279296875 869 757.279296875 869 755.326171875 c 0,12,13
 869 719.302734375 869 719.302734375 855.29296875 685.965820312 c 0,14,15
 839.271484375 647 839.271484375 647 810 647 c 0,16,17
 807.537109375 647 807.537109375 647 802.150390625 647.34375 c 2,18,-1
 791.208007812 649.935546875 l 1,19,20
 730.75 666.987304688 730.75 666.987304688 684.344726562 670.580078125 c 0,21,22
 666.006835938 672 666.006835938 672 646 672 c 0,23,24
 501.065783942 672 501.065783942 672 398.356445312 631.534179688 c 0,25,26
 358.822265625 611.671875 358.822265625 611.671875 330.594726562 581.728515625 c 128,-1,27
 302.3671875 551.784179688 302.3671875 551.784179688 288 512.88671875 c 1,28,-1
 288 88.88671875 l 2,29,30
 288 61.08203125 288 61.08203125 280.498046875 39.1552734375 c 128,-1,31
 272.997070312 17.2294921875 272.997070312 17.2294921875 255.104492188 7.658203125 c 0,32,33
 241.7890625 0 241.7890625 0 221.928710938 0 c 0,34,35
 192.151367188 0 192.151367188 0 174.495117188 22.599609375 c 0,36,37
 161.322265625 38.3984375 161.322265625 38.3984375 159.080078125 64.654296875 c 0,38,39
 158 77.3076171875 158 77.3076171875 158 90.4375 c 2,40,-1
 158 690.104492188 l 2,41,42
 158 717.040039062 158 717.040039062 168.490234375 737.3125 c 0,43,44
 183.334960938 766 183.334960938 766 228 766 c 0,45,46
 243.373046875 766 243.373046875 766 255.116210938 760.473632812 c 0,47,48
 288 744.999023438 288 744.999023438 288 685 c 2,49,-1
 288 672.108398438 l 1,50,51
 294.276367188 679.379882812 294.276367188 679.379882812 301.173828125 686.015625 c 0,52,53
 344.0234375 727.23828125 344.0234375 727.23828125 396.784179688 749.5390625 c 0,54,0
 461.457645952 771.319335938 461.457645952 771.319335938 530.714661206 778.659179688 c 128,-1,1
EndSplineSet
EndChar

StartChar: s
Encoding: 115 115 86
Width: 1282
Flags: W
LayerCount: 2
Fore
SplineSet
1017.7578125 169.39453125 m 0,0,1
 1042 190.91015625 1042 190.91015625 1042 224.7109375 c 0,2,3
 1042 262.642578125 1042 262.642578125 1014.22558594 282.643554688 c 0,4,5
 981.166992188 306.450195312 981.166992188 306.450195312 925.014930554 317.905273438 c 0,6,7
 859.800318897 330.048828125 859.800318897 330.048828125 774.90758169 333.259765625 c 128,-1,8
 690.01591651 336.469726562 690.01591651 336.469726562 600.292626147 338.8046875 c 128,-1,9
 510.570407812 341.139648438 510.570407812 341.139648438 422.388692113 347.333007812 c 0,10,11
 336.928710938 353.526367188 336.928710938 353.526367188 272.598632812 373.494140625 c 0,12,13
 205.34765625 394.368164062 205.34765625 394.368164062 163.592773438 434.287109375 c 0,14,15
 119 476.918945312 119 476.918945312 119 549.252929688 c 128,-1,16
 119 621.586914062 119 621.586914062 161.401367188 667.9140625 c 128,-1,17
 203.801757812 714.241210938 203.801757812 714.241210938 269.081054688 740.151367188 c 128,-1,18
 334.360351562 766.060546875 334.360351562 766.060546875 418.662326652 775.674804688 c 0,19,20
 505.937107603 786 505.937107603 786 587.311452565 786 c 0,21,22
 827.412242567 786 827.412242567 786 986.084960938 734.283203125 c 0,23,24
 1040.29394531 715.578125 1040.29394531 715.578125 1090.40625 689.249023438 c 0,25,26
 1108.02832031 680.350585938 1108.02832031 680.350585938 1115.16796875 665.049804688 c 0,27,28
 1120.3203125 654.008789062 1120.3203125 654.008789062 1122 640.57421875 c 1,29,-1
 1122 639 l 2,30,31
 1122 617.236328125 1122 617.236328125 1107.50585938 599.118164062 c 128,-1,32
 1093.01074219 581 1093.01074219 581 1071 581 c 0,33,34
 1058.12011719 581 1058.12011719 581 1049.69628906 586.70703125 c 0,35,36
 968.064453125 627.658203125 968.064453125 627.658203125 858.702563364 652.173828125 c 0,37,38
 743.810225733 677 743.810225733 677 599.943145382 677 c 0,39,40
 437.378844084 677 437.378844084 677 342.649414062 644.626953125 c 0,41,42
 298.471679688 628.423828125 298.471679688 628.423828125 272.372070312 602.098632812 c 0,43,44
 249 578.525390625 249 578.525390625 249 542.9453125 c 128,-1,45
 249 507.365234375 249 507.365234375 276.084960938 489.208984375 c 0,46,47
 309.232421875 466.98828125 309.232421875 466.98828125 367.351903728 456.033203125 c 0,48,49
 430.899513575 445.079101562 430.899513575 445.079101562 514.813490233 442.358398438 c 2,50,-1
 690.43615105 436.7734375 l 2,51,52
 866.922865538 431.262695312 866.922865538 431.262695312 949.979492188 416.263671875 c 0,53,54
 986.422851562 409.235351562 986.422851562 409.235351562 1018.74316406 398.715820312 c 0,55,56
 1086.10351562 376.790039062 1086.10351562 376.790039062 1129.05175781 333.604492188 c 128,-1,57
 1172 290.41796875 1172 290.41796875 1172 217.9921875 c 0,58,59
 1172 152.237304688 1172 152.237304688 1127.54101562 106.487304688 c 0,60,61
 1085.67675781 63.40625 1085.67675781 63.40625 1018.59863281 38.126953125 c 128,-1,62
 951.520507812 12.8486328125 951.520507812 12.8486328125 860.810168225 1.83203125 c 0,63,64
 767.628519123 -10 767.628519123 -10 669.101743959 -10 c 0,65,66
 548.457982075 -10 548.457982075 -10 469.958813226 -3.134765625 c 0,67,68
 354.298828125 7.0693359375 354.298828125 7.0693359375 272.475585938 34.8173828125 c 0,69,70
 210.903320312 55.69921875 210.903320312 55.69921875 164.573242188 92.33203125 c 0,71,72
 141 110.853515625 141 110.853515625 141 138 c 0,73,74
 141 159.672851562 141 159.672851562 153.868164062 175.97265625 c 0,75,76
 168.889648438 195 168.889648438 195 192 195 c 0,77,78
 208.56640625 195 208.56640625 195 219.51171875 185.670898438 c 0,79,80
 258.374023438 159.078125 258.374023438 159.078125 303.188476562 142.446289062 c 0,81,82
 394.454887502 109.555664062 394.454887502 109.555664062 525.845718934 102.456054688 c 0,83,84
 589.791050756 99 589.791050756 99 664.376249438 99 c 128,-1,85
 738.960376093 99 738.960376093 99 813.777132583 105.848632812 c 0,86,87
 886.99656901 112.55078125 886.99656901 112.55078125 941.3359375 128.923828125 c 0,88,89
 989.708007812 144.499023438 989.708007812 144.499023438 1017.7578125 169.39453125 c 0,0,1
EndSplineSet
EndChar

StartChar: t
Encoding: 116 116 87
Width: 814
Flags: W
LayerCount: 2
Fore
SplineSet
315.061703003 751 m 1,0,-1
 672 751 l 2,1,2
 697.348632812 751 697.348632812 751 712.173828125 736.173828125 c 128,-1,3
 727 721.348632812 727 721.348632812 727 702 c 128,-1,4
 727 682.651367188 727 682.651367188 712.173828125 667.826171875 c 128,-1,5
 697.348632812 653 697.348632812 653 672 653 c 2,6,-1
 315.061703003 653 l 1,7,-1
 315.061703003 287.030273438 l 2,8,9
 315.061703003 223.807617188 315.061703003 223.807617188 331.91955471 186.907226562 c 128,-1,10
 348.777406417 150.0078125 348.777406417 150.0078125 375.040151944 131.220703125 c 128,-1,11
 401.30289747 112.434570312 401.30289747 112.434570312 438.670808052 105.717773438 c 128,-1,12
 476.037491002 99 476.037491002 99 525.9824982 99 c 0,13,14
 572.515625 99 572.515625 99 615.635742188 114.935546875 c 128,-1,15
 658.756835938 130.872070312 658.756835938 130.872070312 717.55078125 162.228515625 c 0,16,17
 735.09375 171 735.09375 171 752 171 c 0,18,19
 775.348632812 171 775.348632812 171 790.173828125 156.173828125 c 128,-1,20
 805 141.348632812 805 141.348632812 805 120 c 0,21,22
 805 100.248046875 805 100.248046875 792.877929688 84.8203125 c 0,23,24
 784.250976562 73.83984375 784.250976562 73.83984375 769.981445312 66.056640625 c 0,25,26
 690.180664062 22.3564453125 690.180664062 22.3564453125 630.486328125 4.9912109375 c 0,27,28
 600.9765625 -3.59375 600.9765625 -3.59375 580.056640625 -6.0078125 c 0,29,30
 541.911031983 -10 541.911031983 -10 503.626079803 -10 c 0,31,32
 430.779585304 -10 430.779585304 -10 366.503194416 6.494140625 c 0,33,34
 304.7890625 21.8037109375 304.7890625 21.8037109375 266.08984375 56.6845703125 c 128,-1,35
 227.352539062 91.5986328125 227.352539062 91.5986328125 206.17578125 147.541992188 c 128,-1,36
 185 203.486328125 185 203.486328125 185 282.642578125 c 2,37,-1
 185 653 l 1,38,-1
 122 653 l 2,39,40
 97.142578125 653 97.142578125 653 82.72265625 668.450195312 c 0,41,42
 69 683.153320312 69 683.153320312 69 702 c 128,-1,43
 69 720.846679688 69 720.846679688 83.0712890625 735.923828125 c 128,-1,44
 97.142578125 751 97.142578125 751 122 751 c 2,45,-1
 185 751 l 1,46,-1
 185 975 l 2,47,48
 185 1020.52148438 185 1020.52148438 209.344726562 1036.43945312 c 0,49,50
 228.5546875 1049 228.5546875 1049 251.892578125 1049 c 128,-1,51
 275.231445312 1049 275.231445312 1049 293.337890625 1035.6171875 c 0,52,53
 315.061703003 1019.60546875 315.061703003 1019.60546875 315.061703003 975 c 2,54,-1
 315.061703003 751 l 1,0,-1
EndSplineSet
EndChar

StartChar: u
Encoding: 117 117 88
Width: 1278
Flags: W
LayerCount: 2
Fore
SplineSet
989 207.334960938 m 1,0,-1
 989 675.044921875 l 2,1,2
 989 700.405273438 989 700.405273438 991.2734375 711.204101562 c 128,-1,3
 993.547851562 722.002929688 993.547851562 722.002929688 995.896484375 728.237304688 c 0,4,5
 1001.59082031 743.353515625 1001.59082031 743.353515625 1015.13574219 754.260742188 c 0,6,7
 1028.68066406 766 1028.68066406 766 1051.56933594 766 c 128,-1,8
 1074.45800781 766 1074.45800781 766 1088.8359375 755.004882812 c 0,9,10
 1114.99804688 736.241210938 1114.99804688 736.241210938 1117.92578125 700.546875 c 0,11,12
 1119 687.448242188 1119 687.448242188 1119 674.341796875 c 2,13,-1
 1119 89.099609375 l 2,14,15
 1119 55.9677734375 1119 55.9677734375 1111.38671875 38.1171875 c 0,16,17
 1095.12988281 -0 1095.12988281 -0 1056 0 c 0,18,19
 1038.34179688 0 1038.34179688 0 1025.20117188 5.7197265625 c 0,20,21
 1005.32910156 14.3701171875 1005.32910156 14.3701171875 996.6640625 35.7421875 c 128,-1,22
 988 57.1142578125 988 57.1142578125 988 86 c 2,23,-1
 988 105.79296875 l 1,24,25
 981.868164062 100.486328125 981.868164062 100.486328125 975.282226562 95.1162109375 c 0,26,27
 900.060546875 33.7822265625 900.060546875 33.7822265625 761.958856974 5.1171875 c 0,28,29
 687.486403259 -10 687.486403259 -10 590.586322245 -10 c 0,30,31
 467.41640037 -10 467.41640037 -10 379.662109375 11.7177734375 c 0,32,33
 218.200195312 52.7919921875 218.200195312 52.7919921875 170.224609375 190.698242188 c 0,34,35
 147 257.458007812 147 257.458007812 147 350.197265625 c 2,36,-1
 147 674.359375 l 2,37,38
 147 732.405273438 147 732.405273438 175.251953125 753.911132812 c 0,39,40
 190.129882812 766 190.129882812 766 212 766 c 0,41,42
 245.202148438 766 245.202148438 766 262.333007812 741.421875 c 0,43,44
 273.765625 726.202148438 273.765625 726.202148438 275.92578125 700.15234375 c 0,45,46
 277 687.194335938 277 687.194335938 277 674.229492188 c 2,47,-1
 277 353.21484375 l 2,48,49
 277 278.104492188 277 278.104492188 290.280273438 227.939453125 c 0,50,51
 303.193359375 181.279296875 303.193359375 181.279296875 333.047851562 153.553710938 c 0,52,53
 363.69140625 125.5234375 363.69140625 125.5234375 423.617345754 112.26171875 c 0,54,55
 486.919585405 99 486.919585405 99 590.586322245 99 c 0,56,57
 754.890274011 99 754.890274011 99 893.864257812 154.517578125 c 0,58,59
 941.0390625 175.1953125 941.0390625 175.1953125 989 207.334960938 c 1,0,-1
EndSplineSet
EndChar

StartChar: v
Encoding: 118 118 89
Width: 1124
Flags: W
LayerCount: 2
Fore
SplineSet
642.211995499 41.0068359375 m 2,0,1
 633.114908119 28.1064453125 633.114908119 28.1064453125 618.523625992 12.744140625 c 0,2,3
 596.911683189 -10 596.911683189 -10 559.974455493 -10 c 128,-1,4
 523.037227798 -10 523.037227798 -10 502.504637145 13.5732421875 c 0,5,6
 489.052250166 29.0244140625 489.052250166 29.0244140625 481.326816922 41.7177734375 c 2,7,-1
 74.474609375 707.58984375 l 2,8,9
 61 730.111328125 61 730.111328125 61 755.326171875 c 0,10,11
 61 751.784179688 61 751.784179688 78.7880859375 749.625 c 0,12,13
 96.025390625 766 96.025390625 766 120 766 c 0,14,15
 161.184570312 766 161.184570312 766 185.796875 722.245117188 c 2,16,-1
 562 98.9296875 l 1,17,-1
 938.194335938 722.229492188 l 2,18,19
 955.6953125 753.340820312 955.6953125 753.340820312 985.435546875 763.041015625 c 0,20,21
 994.5078125 766 994.5078125 766 1004 766 c 0,22,23
 1027.97460938 766 1027.97460938 766 1045.48730469 749.36328125 c 0,24,25
 1063 751.599609375 1063 751.599609375 1063 755.326171875 c 0,26,27
 1063 731.84765625 1063 731.84765625 1049.58886719 707.69921875 c 2,28,-1
 642.211995499 41.0068359375 l 2,0,1
EndSplineSet
EndChar

